<svg width="705" height="579" viewBox="0 0 705 579" fill="none" xmlns="http://www.w3.org/2000/svg">
<path d="M94.1637 430.295C97.0207 436.103 183.207 536.508 202.47 543.52L274.729 577.527C293.993 584.539 434.875 562.012 434.875 562.012C552.051 528.437 608.129 499.107 650.444 449.264C682.882 411.055 709.393 331.912 704.305 288.476C696.932 225.546 657.772 178.325 608.467 154.944L534.853 120.3C528.136 117.186 521.237 114.513 514.208 112.3C475.854 100.226 433.655 101.873 396.405 120.543C390.644 109.255 383.398 98.367 375.129 88.9275L375.034 88.8183C362.636 74.665 355.486 66.5019 340.467 58.4519L260.467 20.8004L237.357 11.4383C199.108 -2.24411 185.956 -1.18881 158.872 2.10208C120.632 6.74851 85.6327 24.3637 55.3671 54.1972C37.5279 71.7815 30.0116 84.783 16.8418 120.837C-10.1369 194.693 -4.95497 258.291 34.2077 333.969C42.0725 349.167 44.5102 354.243 47.3572 359.079C52.1998 367.303 58.2265 374.831 94.1637 430.295Z" fill="#D18AF2"/>
<path d="M202.47 543.52C183.207 536.508 97.0207 436.103 94.1637 430.295C37.0999 342.225 55.4507 375.02 34.2077 333.969C-4.95497 258.291 -10.1369 194.693 16.8418 120.837C30.0116 84.783 37.5279 71.7815 55.3671 54.1972C85.6327 24.3637 120.632 6.74851 158.872 2.10208C185.956 -1.18881 199.108 -2.24411 237.357 11.4383C277.299 25.7268 284.056 33.4402 302.775 54.8102L302.871 54.9198C325.744 81.0319 340.796 118.232 338.2 144.291L338.765 169.052L355.402 150.552C449.475 54.9908 616.005 117.545 632.046 254.468C637.135 297.904 610.623 377.047 578.185 415.256C535.871 465.099 479.793 494.429 362.617 528.004C362.617 528.004 221.734 550.531 202.47 543.52Z" fill="#E6B2FF"/>
<path opacity="0.99" d="M308.882 181.333C313.366 169.014 331.99 185.093 327.133 197.766C324.615 204.682 321.941 212.031 319.188 219.595C316.218 227.081 313.17 234.783 309.532 242.76C307.606 246.709 305.679 250.658 303.457 254.745C301.019 258.753 298.287 262.898 294.532 267.161C292.586 269.145 290.345 271.267 287.672 273.231C284.783 275.117 281.108 276.471 277.237 277.021C273.287 277.786 269.514 277.392 266.194 276.428C265.329 276.113 264.681 275.877 263.738 275.779C262.952 275.248 262.303 275.012 261.655 274.776C260.791 274.461 260.005 273.93 259.356 273.694C258.924 273.537 258.492 273.38 258.138 273.006L256.92 272.318C253.993 270.274 251.085 267.502 249.141 264.102C247.118 260.918 245.979 257.322 245.41 254.178C245.43 253.451 245.234 252.645 245.254 251.918L245.215 250.68C245.077 250.385 245.019 249.874 245.097 249.658C245.117 248.931 244.921 248.125 244.941 247.398L244.922 245.433C244.942 244.706 245.178 244.058 245.119 243.547L245.394 241.444C245.572 240.285 245.533 239.047 245.71 237.888C247.285 228.181 249.842 219.811 252.32 211.657C255.015 203.581 257.552 195.938 260.305 188.373C263.058 180.809 265.654 173.677 268.25 166.544C272.734 154.225 291.142 170.226 286.5 182.977C283.983 189.893 281.387 197.026 278.929 204.453C276.254 211.801 273.717 219.444 271.691 227.029C270.57 230.782 269.665 234.613 268.838 238.228C268.228 241.923 267.696 245.4 267.912 248.171C267.892 248.898 267.951 249.409 267.931 250.136C268.284 250.51 268.264 251.237 268.402 251.532C268.677 252.121 268.814 252.416 268.952 252.711C269.305 253.084 269.738 253.242 270.523 253.772C271.604 254.166 272.469 254.48 272.98 254.421C273.628 254.657 273.923 254.52 274.218 254.383C274.728 254.324 275.397 253.833 276.144 253.126C277.854 251.79 280.114 248.941 281.943 245.935C283.771 242.929 285.54 239.412 287.31 235.896C289.08 232.379 290.633 228.783 292.186 225.188C295.372 217.78 298.125 210.216 301.016 202.946C303.691 195.598 306.365 188.249 308.882 181.333ZM254.579 214.192C253.045 219.753 251.51 225.313 250.408 231.031C251.51 225.313 253.34 219.615 255.09 214.133C256.762 208.867 258.729 203.464 260.695 198.061L260.774 197.845C264.196 187.097 267.835 176.428 271.689 165.838C267.835 176.428 263.548 186.861 259.909 197.53L259.831 197.746C257.864 203.15 256.114 208.631 254.579 214.192ZM261.344 198.297C258.433 206.294 256.387 214.605 254.046 223.054C256.387 214.605 259.297 206.608 262.208 198.612L262.287 198.396C264.981 190.32 267.676 182.245 270.586 174.248C267.676 182.245 264.117 190.005 261.422 198.081L261.344 198.297ZM262.856 198.848C260.575 205.115 258.864 211.835 257.015 218.26C258.864 211.835 261.224 205.351 263.721 199.162L263.8 198.946C265.649 192.521 267.714 186.175 269.995 179.907C267.714 186.175 265 192.285 262.935 198.632L262.856 198.848ZM282.295 249.001C280.703 251.358 279.189 253.5 277.479 254.835C279.189 253.5 280.919 251.437 282.728 249.158C284.457 247.095 286.128 244.522 287.446 241.575C290.434 236.054 292.5 229.707 295.134 223.813C292.5 229.707 289.786 235.818 286.66 241.044L286.581 241.26C285.343 243.991 283.888 246.643 282.295 249.001ZM278.992 255.386C278.088 256.526 276.83 257.292 275.946 257.704C276.83 257.292 278.088 256.526 279.13 255.681C280.25 254.62 281.449 253.343 282.648 252.066C284.909 249.218 287.111 245.858 288.88 242.341C290.728 238.608 292.282 235.013 293.914 231.201C295.33 227.311 296.962 223.499 298.378 219.609C296.962 223.499 295.33 227.311 293.482 231.044C291.928 234.639 290.08 238.372 288.094 241.811L288.016 242.027C286.246 245.544 284.339 248.766 282.295 251.693C281.233 253.265 280.113 254.325 278.992 255.386ZM290.314 243.108L290.393 242.892C295.308 233.422 298.947 222.753 302.939 212.457C298.947 222.753 294.66 233.186 289.529 242.577L289.45 242.793C287.071 247.312 284.397 251.969 281.39 255.524C279.817 257.155 278.107 258.491 276.633 259.178C275.749 259.59 274.943 259.787 273.921 259.904C274.943 259.787 275.749 259.59 276.633 259.178C278.323 258.569 279.955 257.45 281.606 255.603C284.967 252.421 287.857 247.843 290.314 243.108ZM398.133 226.79C398.015 228.46 397.818 230.347 397.189 232.076C396.539 234.532 395.537 236.615 394.102 238.54C392.961 240.328 391.389 241.958 389.895 243.373C389.148 244.08 388.185 244.708 387.517 245.199C386.849 245.69 385.886 246.319 385.217 246.81C383.665 247.713 382.191 248.401 380.501 249.009C377.631 250.168 374.625 251.032 371.697 251.679C369.063 252.189 366.214 252.621 363.659 252.915C360.083 253.326 356.585 253.522 353.166 253.501C357.975 269.203 363.256 286.301 367.968 300.254C369.382 304.439 346.92 308.992 345.369 304.511C342.071 294.744 338.38 283.365 334.984 271.849C332.073 279.846 329.241 287.627 326.645 294.759C324.364 301.027 304.462 289.132 306.822 282.649C317.127 254.336 330.421 217.81 340.726 189.497C342.3 185.174 352.654 189.677 357.821 194.984C361.161 195.221 364.639 195.753 367.822 196.422C372.165 197.268 376.644 198.409 381.379 200.867C383.678 201.948 386.036 203.54 388.315 205.349C389.454 206.253 390.515 207.374 391.576 208.494C392.558 209.83 393.619 210.951 394.306 212.425C395.838 214.94 397.134 218.105 397.624 221.465C398.017 223.076 398.114 224.825 398.133 226.79ZM375.182 225.29C375.045 224.995 374.77 224.406 374.495 223.816C373.867 222.853 372.373 221.575 369.78 220.631C368.483 220.159 367.186 219.687 365.595 219.353C364.003 219.018 362.196 218.605 360.604 218.271C358.501 217.995 356.615 217.798 354.65 217.817C353.155 221.923 351.582 226.246 350.088 230.352C354.371 230.688 358.812 230.591 362.978 229.904C364 229.787 364.806 229.59 365.828 229.473L367.144 229.218C367.655 229.159 367.95 229.021 368.461 228.963C369.856 228.491 371.252 228.02 372.431 227.47C373.61 226.921 374.494 226.508 374.868 226.155C375.241 225.801 375.32 225.585 375.32 225.585C375.32 225.585 375.104 225.506 375.182 225.29ZM336.875 255.894C336.659 255.815 336.738 255.599 336.738 255.599C336.659 255.815 336.659 255.815 336.875 255.894ZM335.872 257.976L335.656 257.898L335.872 257.976ZM336.07 253.398C336.149 253.182 336.011 252.887 336.011 252.887C336.011 252.887 335.933 253.103 335.854 253.319C335.854 253.319 335.991 253.614 335.913 253.83C335.991 253.614 336.07 253.398 336.07 253.398ZM334.93 255.186L334.851 255.402C334.989 255.697 335.126 255.992 335.264 256.286L335.342 256.07C335.205 255.775 335.067 255.481 334.93 255.186ZM334.065 257.563C333.986 257.779 333.986 257.779 333.986 257.779C334.045 258.29 334.182 258.585 334.32 258.88C334.261 258.369 334.123 258.074 334.065 257.563ZM334.791 260.275C334.928 260.57 334.85 260.786 334.987 261.081C334.85 260.786 334.928 260.57 334.791 260.275ZM376.245 221.026C374.968 219.827 373.396 218.766 371.53 217.842C369.663 216.917 367.286 216.052 364.83 215.403C361.784 215.029 358.738 214.654 355.83 214.575C355.751 214.791 355.751 214.791 355.751 214.791C358.797 215.165 361.764 215.756 364.436 216.484L364.731 216.346C367.187 216.995 369.427 217.566 371.372 218.274C373.396 218.766 374.968 219.827 376.245 221.026ZM370.489 215.994C372.296 216.407 373.731 217.174 375.165 217.941C372.591 216.27 368.917 214.933 365.164 213.811C362.118 213.437 359.289 213.142 356.381 213.062C359.132 213.574 362.099 214.164 364.849 214.676L365.066 214.755C366.873 215.168 368.681 215.581 370.489 215.994ZM365.42 212.436C362.669 211.924 359.84 211.629 356.931 211.549C359.761 211.845 362.433 212.573 365.105 213.3L365.321 213.379C368.288 213.97 371.413 214.128 374.065 215.583C371.629 214.206 368.603 213.105 365.42 212.436ZM340.623 206.593L340.544 206.809C339.443 209.834 338.695 213.234 337.516 216.476C338.695 213.234 340.092 210.07 341.409 207.123L341.488 206.907C342.373 203.803 343.337 200.482 344.517 197.24C343.337 200.482 341.724 203.567 340.623 206.593ZM339.11 206.042L339.032 206.258C337.616 210.148 336.769 214.491 335.353 218.381C336.769 214.491 338.264 210.384 339.896 206.573L339.975 206.357C341.175 202.388 342.669 198.281 344.164 194.175C342.669 198.281 340.526 202.152 339.11 206.042ZM337.519 205.707C335.631 210.894 334.096 216.455 332.13 221.858C334.096 216.455 336.279 211.13 338.383 206.022L338.462 205.806C340.134 200.54 341.884 195.058 343.851 189.655C341.884 195.058 339.485 200.304 337.597 205.491L337.519 205.707ZM332.039 262.456C330.367 267.721 328.912 273.066 327.102 278.037C328.833 273.282 330.564 268.527 332.51 263.851C332.373 263.556 332.314 263.045 332.039 262.456ZM332.982 265.246C332.018 268.567 331.133 271.671 330.031 274.697C331.054 271.887 332.077 269.078 333.315 266.347C333.178 266.052 333.04 265.757 332.982 265.246ZM332.488 272.654C332.96 271.357 333.432 270.061 333.904 268.764C333.983 268.548 333.845 268.253 333.845 268.253C333.295 269.766 333.039 271.141 332.488 272.654ZM359.505 279.795C358.759 277.81 357.797 275.747 357.129 273.546C357.797 275.747 357.953 278.007 358.621 280.208C359.288 282.409 360.545 284.335 361.213 286.536C360.545 284.335 360.094 282.212 359.643 280.09L359.505 279.795ZM358.031 280.483C357.089 277.692 356.068 275.117 355.125 272.327C356.068 275.117 356.283 277.888 357.225 280.679C357.952 283.391 359.484 285.906 360.426 288.697C359.484 285.906 358.757 283.194 358.031 280.483ZM356.42 280.875C355.281 277.279 353.848 273.82 352.709 270.224C353.848 273.82 354.475 277.475 355.614 281.071L355.535 281.287C356.674 284.884 358.402 288.205 359.757 291.88C358.402 288.205 357.48 284.687 356.636 280.954L356.42 280.875ZM375.195 248.792C377.18 248.046 379.381 247.378 381.445 246.416C379.381 247.378 377.18 248.046 375.058 248.497C374.036 248.615 373.014 248.732 371.913 249.066C370.892 249.183 369.87 249.301 369.064 249.497L368.848 249.419C365.193 250.046 361.38 251.106 357.372 251.361C361.38 251.106 365.173 250.773 369.182 250.519L369.26 250.303L371.972 249.577C372.994 249.459 374.095 249.125 375.195 248.792ZM376.414 246.788C378.399 246.042 380.679 245.158 382.821 243.98C380.679 245.158 378.478 245.826 376.277 246.493C373.643 247.003 371.01 247.513 368.671 247.886C363.995 248.631 359.16 249.809 354.287 249.748C359.16 249.809 363.975 249.358 368.789 248.908C371.206 248.319 373.84 247.809 376.414 246.788ZM383.097 241.877C384.649 240.974 386.143 239.559 387.637 238.145C386.143 239.559 384.512 240.679 382.88 241.799C381.328 242.702 379.638 243.311 378.164 243.998C376.474 244.607 374.862 244.999 373.251 245.392C372.445 245.588 371.639 245.784 370.834 245.98L368.495 246.353L368.279 246.274C362.796 247.216 357.314 248.158 351.713 248.077C357.235 248.374 362.993 248.022 368.613 247.375L368.691 247.159L371.03 246.786C371.619 246.511 372.641 246.394 373.31 245.903C374.921 245.51 376.532 245.118 378.301 244.293C379.775 243.605 381.544 242.781 383.097 241.877ZM184.056 348.353C181.757 347.271 179.458 346.19 177.376 345.187C175.077 344.105 172.994 343.103 170.774 341.805C170.774 341.805 170.558 341.726 170.637 341.51C163.559 352.886 157.857 364.517 153.335 375.598C152.017 378.545 150.17 379.586 147.91 379.743C145.513 379.605 142.998 378.445 140.797 376.42C138.381 374.317 136.496 371.428 135.416 368.342C134.414 365.041 134.219 361.543 135.831 358.458C138.859 351.483 142.399 344.449 146.449 337.357C150.499 330.264 154.843 323.034 159.837 316.04C162.333 312.543 165.046 309.125 167.759 305.707C170.55 302.072 173.695 298.811 177.135 295.413C178.924 293.861 180.791 292.093 182.796 290.62C183.837 289.775 184.879 288.93 186.137 288.164L186.805 287.673C187.1 287.536 187.473 287.182 188.063 286.907C188.947 286.495 189.91 285.867 190.795 285.454C194.627 283.667 198.656 282.686 202.645 283.159C206.496 283.337 210.386 284.752 213.588 287.387C214.296 288.133 215.082 288.664 215.573 289.333C216.201 290.296 216.908 291.042 217.399 291.711C218.028 292.674 218.44 293.558 219.069 294.521C219.206 294.816 219.481 295.406 219.54 295.917C219.894 296.29 219.952 296.801 220.227 297.39C220.64 298.275 220.757 299.297 221.091 300.397L221.562 301.793C221.484 302.009 221.621 302.303 221.542 302.52L221.817 303.109C221.994 304.642 222.249 305.959 222.288 307.197C222.797 312.522 222.521 317.317 222.107 321.816C221.2 331.032 219.586 339.501 217.835 347.675C215.789 355.986 213.9 363.865 211.579 371.587C209.258 379.309 206.878 386.52 204.204 393.868C203.024 397.11 200.803 398.505 198.622 398.445C196.146 398.523 193.788 396.931 191.588 394.906C187.05 390.562 183.593 383.919 185.58 377.789C188.274 369.714 190.831 361.343 193.113 352.383C190.166 351.066 187.219 349.749 184.056 348.353ZM193.546 349.849L193.763 349.927C193.92 349.495 193.782 349.2 193.94 348.768C192.348 348.434 190.835 347.883 189.617 347.195C190.835 347.883 192.112 349.082 193.546 349.849ZM194.746 345.88C194.098 345.644 193.233 345.329 192.585 345.093C193.233 345.329 193.862 346.292 194.51 346.528C194.589 346.312 194.668 346.096 194.746 345.88ZM194.49 347.255C193.331 347.078 192.251 346.685 191.17 346.291C192.251 346.685 193.095 347.726 194.176 348.12C194.254 347.904 194.333 347.687 194.49 347.255ZM220.3 318.711C220.458 315.587 220.4 312.384 220.342 309.181C220.4 312.384 220.242 315.508 219.867 318.554C219.473 322.326 218.942 325.804 218.489 329.066L218.41 329.282C217.642 336.101 216.579 343.057 215.162 349.639C216.579 343.057 218.29 336.337 219.569 329.459L219.353 329.381C219.885 325.903 220.2 322.346 220.3 318.711ZM217.966 302.931C217.77 302.125 217.573 301.32 217.377 300.514C217.573 301.32 217.77 302.125 217.966 302.931L218.084 303.953C218.142 304.464 218.28 304.759 218.201 304.975C218.456 306.292 218.495 307.53 218.534 308.767C218.691 311.027 218.768 313.503 218.414 315.822C218.216 320.4 217.665 324.605 217.035 329.026C215.853 337.653 214.455 346.2 212.409 354.511C214.455 346.2 216.501 337.889 217.899 329.341L217.978 329.125C218.392 324.625 218.727 320.342 218.925 315.763C218.985 313.582 218.907 311.106 218.75 308.846C218.711 307.608 218.456 306.292 218.417 305.054C218.28 304.759 218.142 304.464 218.3 304.032L217.966 302.931ZM213.37 295.384C212.25 293.753 211.131 292.122 209.343 290.981C211.131 292.122 212.25 293.753 213.37 295.384C214.411 297.232 215.157 299.216 215.903 301.201L216.08 302.734C216.354 303.324 216.413 303.835 216.256 304.267C216.452 305.073 216.648 305.878 216.629 306.605C216.805 308.138 216.981 309.671 216.863 311.341C216.92 317.236 216.25 323.111 215.443 328.692L215.364 328.908C213.75 340.069 211.624 351.289 208.713 361.977C211.624 351.289 214.398 340.305 216.308 329.007L216.386 328.79C216.977 323.131 217.569 317.472 217.374 311.282C217.198 309.75 217.021 308.217 216.923 306.468C216.943 305.741 216.747 304.935 216.551 304.129C216.413 303.835 216.354 303.324 216.296 302.813L215.903 301.201C215.373 299.295 214.411 297.232 213.37 295.384ZM195.071 310.018C192.536 312.277 189.922 314.752 187.582 317.817C186.088 319.231 184.732 320.941 183.376 322.65C183.808 322.807 184.24 322.964 184.594 323.338C185.242 323.574 185.674 323.731 186.107 323.889C188.189 324.891 190.272 325.894 192.355 326.897C194.221 327.821 196.088 328.745 198.033 329.453C198.308 327.351 198.663 325.032 198.939 322.93C199.333 319.157 199.648 315.6 199.669 312.181C199.571 310.432 199.473 308.683 199.218 307.367L199.159 306.856L198.786 307.209C197.823 307.838 196.486 308.82 195.071 310.018ZM186.793 328.055C185.713 327.661 184.632 327.268 183.551 326.875C184.632 327.268 185.477 328.31 186.479 328.919C187.559 329.312 188.797 329.274 189.799 329.883C188.797 329.274 187.795 328.664 186.793 328.055ZM184.966 325.676C185.752 326.207 186.381 327.17 187.029 327.406L187.245 327.485C188.11 327.8 189.132 327.682 189.918 328.213C189.132 327.682 188.346 327.151 187.56 326.62C186.696 326.306 185.752 326.207 184.966 325.676ZM160.418 345.378C157.35 351.115 154.716 357.01 151.865 362.825C154.716 357.01 158.215 351.43 161.203 345.909L161.282 345.693C164.487 340.251 167.338 334.435 171.053 328.934C167.338 334.435 163.917 339.799 160.418 345.378ZM151.136 368.19C154.321 360.782 158.588 353.768 162.638 346.676L162.716 346.46C166.688 339.583 170.522 332.412 175.141 325.772C170.522 332.412 165.902 339.053 161.852 346.145C158.018 353.316 154.321 360.782 151.136 368.19ZM164.072 347.443C169.419 338.13 174.551 328.739 181.254 320.409C174.551 328.739 168.634 337.599 163.286 346.912L163.207 347.128C158.076 356.519 153.593 366.147 149.758 376.01C153.593 366.147 158.724 356.755 164.072 347.443ZM186.243 329.568C184.73 329.017 183.217 328.466 181.999 327.778C183.217 328.466 184.278 329.587 185.712 330.353C187.146 331.12 188.816 331.239 190.329 331.789C188.816 331.239 187.461 330.256 186.243 329.568ZM314.942 418.999C315.707 422.949 316.472 426.899 317.316 430.632C317.905 433.049 295.051 435.99 294.541 433.357C294.423 432.335 294.011 431.451 293.893 430.429C291.633 430.585 289.157 430.663 286.839 430.309C284.736 430.033 282.712 429.541 281.062 428.696C279.117 427.988 277.25 427.064 275.757 425.786C272.476 423.368 269.864 420.459 268.057 417.354C266.466 414.327 265.17 411.163 264.523 408.235C262.795 402.222 262.738 396.327 263.172 391.1C263.468 385.578 264.629 380.371 265.927 375.459C266.577 373.003 267.521 370.409 268.386 368.032L269.566 364.79L270.195 363.061C270.431 362.413 270.589 361.98 270.825 361.332C272.555 356.577 274.797 351.763 277.687 347.186C280.282 342.746 283.604 338.325 287.791 334.22C290.031 332.098 292.193 330.193 295.004 328.523C297.814 326.854 300.841 325.263 304.575 324.419C308.093 323.497 312.101 323.242 316.228 324.01C320.275 324.994 324.087 326.626 327.073 329.181C328.782 330.537 329.98 331.953 331.179 333.368C332.377 334.783 333.28 336.336 333.968 337.81C335.775 340.915 336.638 343.922 337.365 346.633C338.66 352.49 338.874 357.952 338.519 362.963C338.085 368.19 337.082 372.965 335.941 377.445C335.37 379.685 334.8 381.925 334.013 384.086C333.62 385.166 333.226 386.247 332.833 387.328C332.518 388.192 332.125 389.273 331.81 390.137C331.417 391.218 330.886 392.004 330.572 392.868C330.257 393.733 330.158 394.676 329.549 395.678C327.838 399.706 325.833 403.871 323.316 408.095C321.036 411.671 318.244 415.305 314.942 418.999ZM294.922 406.083C294.922 406.083 294.922 406.083 295.001 405.866C294.333 403.665 293.371 401.602 292.998 399.263C293.371 401.602 293.744 403.94 293.9 406.2L294.038 406.495C294.333 406.357 294.627 406.22 294.922 406.083ZM293.173 406.18C292.997 404.648 291.877 403.016 291.78 401.267C291.877 403.016 292.27 404.628 292.368 406.377C292.505 406.671 292.426 406.887 292.564 407.182C292.78 407.261 292.859 407.045 293.075 407.123C293.153 406.907 293.153 406.907 293.37 406.986C293.232 406.691 293.311 406.475 293.389 406.259L293.173 406.18ZM291.778 406.651C291.523 405.335 290.541 403.998 290.286 402.682C290.541 403.998 290.796 405.315 290.756 406.769C290.894 407.064 291.031 407.359 291.168 407.653C291.385 407.732 291.679 407.595 291.974 407.457C291.837 407.162 291.699 406.868 291.778 406.651ZM321.78 352.465C321.211 349.321 320.269 346.53 318.874 344.309C320.269 346.53 320.916 349.458 321.348 352.308C321.701 355.373 321.68 358.792 321.522 361.917L321.443 362.133C320.832 368.519 319.848 375.259 317.488 381.743C319.848 375.259 321.775 368.618 322.465 362.015C322.486 358.596 322.428 355.393 321.78 352.465ZM317.813 345.881C317.047 344.623 316.202 343.581 315.2 342.972C316.202 343.581 317.047 344.623 317.813 345.881C318.579 347.139 318.971 348.75 319.364 350.362C320.07 353.801 320.108 357.731 319.852 361.798C319.595 365.866 318.827 369.992 317.844 374.04C317.352 376.064 316.86 378.087 316.152 380.033C315.66 382.056 314.874 384.218 313.871 386.3C314.874 384.218 315.66 382.056 316.368 380.111C317.076 378.166 317.784 376.221 318.276 374.197C319.555 370.012 320.538 365.964 320.795 361.897C321.052 357.829 320.797 353.821 319.875 350.303C319.266 348.613 318.579 347.139 317.813 345.881ZM314.296 344.111C313.294 343.502 312.213 343.109 310.975 343.148C312.213 343.109 313.294 343.502 314.217 344.328C315.141 345.153 316.201 346.274 316.81 347.964C317.222 348.848 317.556 349.949 317.674 350.97C318.007 352.071 318.125 353.093 318.164 354.331C318.321 356.591 318.398 359.066 318.181 361.68C317.748 366.907 316.803 372.192 315.131 377.458C314.659 378.755 314.403 380.13 313.931 381.427C313.459 382.724 312.987 384.021 312.437 385.534C312.043 386.614 311.729 387.479 311.119 388.481C311.119 388.481 311.119 388.481 311.335 388.559C311.729 387.479 312.122 386.398 312.437 385.534C313.203 384.099 313.675 382.803 314.147 381.506C314.619 380.209 315.091 378.912 315.563 377.615C317.235 372.35 318.691 367.005 319.125 361.778C319.342 359.165 319.264 356.689 318.97 354.134C318.852 353.113 318.597 351.796 318.185 350.912C317.851 349.811 317.733 348.789 317.321 347.905C316.496 346.136 315.435 345.016 314.296 344.111ZM291.828 370.2L290.805 373.01L289.625 376.252C289.311 377.116 288.996 377.981 288.603 379.062C288.19 380.869 287.698 382.893 287.285 384.701C286.379 388.532 285.769 392.226 285.965 395.724C285.944 399.143 286.297 402.209 287.18 404.489C287.73 405.668 288.221 406.336 288.575 406.71C288.712 407.004 288.929 407.083 289.066 407.378C288.105 402.622 287.281 398.161 286.299 394.133C285.848 392.01 301.117 389.735 306.992 390.405C306.992 390.405 306.992 390.405 307.071 390.189C308.467 387.026 310.02 383.43 311.279 379.972C312.616 376.298 313.58 372.977 314.406 369.362C315.233 365.747 315.764 362.269 315.785 358.85C315.806 355.43 315.453 352.365 314.569 350.085C314.019 348.906 313.607 348.022 313.037 347.57C312.9 347.275 312.762 346.98 312.546 346.901C312.33 346.823 312.114 346.744 312.193 346.528C311.76 346.37 311.466 346.508 310.817 346.272C310.522 346.409 310.228 346.547 309.933 346.684C309.422 346.743 309.127 346.881 308.537 347.156C306.474 348.118 304.017 350.161 301.619 352.715C299.437 355.347 297.314 358.49 295.544 362.007C294.699 363.658 293.775 365.524 293.145 367.253C292.536 368.255 292.221 369.12 291.828 370.2ZM273.558 421.069C275.463 423.231 277.742 425.04 280.689 426.357C277.742 425.04 275.542 423.015 273.558 421.069C271.653 418.907 270.337 416.47 269.237 414.112C267.038 409.395 266.214 404.934 265.822 400.631L265.9 400.415C265.509 396.111 265.549 391.965 265.806 387.898C266.357 383.693 267.046 379.782 267.951 375.951C267.046 379.782 266.141 383.614 265.59 387.819C264.822 391.945 264.566 396.013 264.879 400.532L264.8 400.748C265.408 405.131 266.448 409.67 268.863 414.466C270.042 416.608 271.436 418.829 273.558 421.069ZM284.698 426.103C286.211 426.654 288.097 426.851 289.768 426.969C288.097 426.851 286.29 426.438 284.698 426.103C282.89 425.69 281.24 424.845 279.806 424.078C278.234 423.016 276.879 422.033 275.602 420.834C274.403 419.419 273.343 418.299 272.655 416.825C270.907 414.23 269.749 411.361 268.806 408.57C268.08 405.859 267.57 403.225 267.355 400.454L267.433 400.238C266.924 394.913 267.279 389.902 267.85 384.97C268.716 379.901 269.72 375.126 271.451 370.371C269.72 375.126 268.5 379.822 267.418 384.813C266.552 389.882 266.197 394.893 266.411 400.356L266.549 400.651C266.843 403.205 267.274 406.055 268.217 408.845C269.159 411.636 270.318 414.505 272.282 417.178C273.048 418.436 274.246 419.851 275.523 421.05C276.8 422.249 278.155 423.232 279.806 424.078C281.24 424.845 282.89 425.69 284.698 426.103ZM289.67 425.22C290.829 425.398 291.851 425.28 292.873 425.162C291.851 425.28 290.908 425.181 289.67 425.22C285.386 424.885 281.064 423.312 277.94 420.462C274.817 417.611 272.656 414.133 271.439 410.752C270.005 407.294 269.299 403.855 269.103 400.357L269.182 400.141C268.496 393.282 269.186 386.68 270.446 380.53C271.115 377.347 272 374.242 272.885 371.138L273.672 368.977L274.458 366.815L275.245 364.654C275.56 363.79 275.795 363.141 276.11 362.277C275.795 363.141 275.56 363.79 275.245 364.654L274.458 366.815L272.885 371.138C271.784 374.164 270.898 377.268 270.013 380.373C268.459 386.66 267.769 393.263 268.16 400.258L268.082 400.474C268.572 403.835 269.2 407.49 270.633 410.949C272.066 414.408 274.443 417.965 277.567 420.815C280.985 423.528 285.308 425.101 289.67 425.22ZM309.379 425.541C309.929 426.72 310.184 428.036 310.655 429.432C310.184 428.036 310.44 426.661 310.185 425.344C310.205 424.617 309.93 424.028 309.655 423.438C309.576 423.654 309.281 423.792 309.281 423.792C309.34 424.303 309.32 425.03 309.379 425.541ZM310.99 425.148C311.383 426.759 311.992 428.45 312.305 430.277C311.992 428.45 312.11 426.779 311.796 424.952C311.6 424.146 311.404 423.34 310.991 422.456C310.913 422.672 310.696 422.593 310.618 422.81C310.814 423.615 310.794 424.342 310.774 425.069L310.99 425.148ZM312.523 424.972C313.191 427.173 313.858 429.374 314.309 431.496C313.858 429.374 313.78 426.898 313.408 424.559C313.074 423.459 312.74 422.358 312.406 421.258C312.328 421.474 312.112 421.395 312.033 421.611C312.151 422.633 312.268 423.655 312.602 424.755L312.523 424.972ZM408.628 357.641C412.302 358.978 406.892 381.24 403.218 379.903C397.598 377.858 391.547 375.655 385.279 373.374C375.918 399.093 365.141 428.703 356.488 452.477C354.206 458.745 334.088 446.772 336.448 440.288C344.629 417.811 354.698 390.146 363.666 365.507C358.263 363.541 353.076 361.653 348.321 359.922C344.43 358.506 349.841 336.244 353.515 337.581C370.157 343.639 391.77 351.505 408.628 357.641ZM352.06 340.234C355.086 341.335 358.249 342.731 361.196 344.049L361.412 344.127C364.517 345.012 367.543 346.114 370.431 346.92C367.621 345.898 364.753 344.364 361.727 343.263L361.511 343.184C358.485 342.083 355.086 341.335 352.06 340.234ZM360.311 347.153C362.119 347.566 364.143 348.058 366.088 348.766C364.143 348.058 362.355 346.918 360.626 346.288L360.41 346.21C358.681 345.581 356.578 345.305 354.633 344.597C356.578 345.305 358.445 346.229 360.095 347.074L360.311 347.153ZM360.862 345.64C363.318 346.289 365.695 347.155 368.073 348.02C365.695 347.155 363.554 345.641 361.176 344.776L360.96 344.697C358.583 343.832 355.969 343.615 353.592 342.749C355.969 343.615 358.347 344.48 360.646 345.561L360.862 345.64ZM361.697 378.987C362.798 375.961 363.546 372.562 364.726 369.32C363.546 372.562 362.15 375.725 360.832 378.672C359.868 381.993 358.905 385.313 357.725 388.555C358.905 385.313 360.517 382.229 361.697 378.987ZM363.21 379.537C364.626 375.647 365.472 371.305 366.967 367.198C365.472 371.305 363.977 375.411 362.345 379.223C361.067 383.408 359.572 387.514 358.156 391.405C359.572 387.514 361.715 383.644 363.21 379.537ZM356.591 435.381C357.771 432.139 358.302 428.662 359.404 425.636C358.302 428.662 356.906 431.825 355.51 434.988C354.546 438.309 353.582 441.629 352.481 444.655C353.582 441.629 355.411 438.623 356.591 435.381ZM357.888 435.853C359.382 431.747 360.445 427.483 361.861 423.593C360.445 427.483 358.734 431.511 357.023 435.539C355.745 439.724 354.545 443.693 353.05 447.799C354.545 443.693 356.393 439.96 357.888 435.853ZM359.617 436.483L359.4 436.404L359.617 436.483L359.4 436.404C361.367 431.001 362.901 425.44 364.789 420.253C362.901 425.44 360.719 430.765 358.536 436.089C356.785 441.571 355.114 446.837 353.147 452.24C355.114 446.837 357.434 441.807 359.4 436.404L359.617 436.483ZM364.723 380.088C366.217 375.982 367.574 371.58 368.853 367.395C368.853 367.395 368.853 367.395 368.637 367.317C367.142 371.423 365.569 375.746 363.858 379.773L363.779 379.99C362.108 385.255 360.357 390.737 358.391 396.14C360.357 390.737 362.756 385.491 364.644 380.304L364.723 380.088ZM385.908 371.645C387.637 372.274 389.661 372.766 391.39 373.395C389.661 372.766 387.873 371.626 386.223 370.78C386.065 371.212 385.987 371.429 385.908 371.645ZM386.38 370.348C388.836 370.997 391.076 371.568 393.454 372.433C391.076 371.568 388.856 370.27 386.695 369.483C386.616 369.7 386.537 369.916 386.38 370.348ZM387.009 368.619C390.035 369.72 393.14 370.605 396.382 371.785C393.14 370.605 390.271 369.072 387.324 367.754C387.167 368.187 387.088 368.403 387.009 368.619Z" fill="white"/>
</svg>
