<svg width="705" height="580" viewBox="0 0 705 580" fill="none" xmlns="http://www.w3.org/2000/svg">
<path d="M94.1968 430.994C97.0538 436.803 183.24 537.208 202.503 544.219L274.762 578.227C294.026 585.238 434.908 562.711 434.908 562.711C552.084 529.137 608.162 499.807 650.477 449.964C682.915 411.754 709.426 332.612 704.338 289.176C696.965 226.246 657.805 179.025 608.5 155.644L534.886 121C528.169 117.886 521.27 115.213 514.241 113C475.887 100.926 433.688 102.572 396.438 121.242C390.677 109.955 383.431 99.0666 375.162 89.6272L375.067 89.5179C362.669 75.3646 355.519 67.2016 340.5 59.1515L260.5 21.5L237.39 12.1379C199.141 -1.54446 185.989 -0.489166 158.905 2.80173C120.665 7.44815 85.6658 25.0633 55.4001 54.8968C37.561 72.4812 30.0447 85.4826 16.8749 121.536C-10.1038 195.393 -4.92189 258.991 34.2408 334.669C42.1056 349.867 44.5433 354.943 47.3902 359.778C52.2329 368.003 58.2596 375.53 94.1968 430.994Z" fill="#6CECDD"/>
<path d="M202.503 544.219C183.24 537.208 97.0538 436.803 94.1968 430.994C37.133 342.924 55.4838 375.719 34.2408 334.669C-4.92189 258.991 -10.1038 195.393 16.8749 121.536C30.0447 85.4826 37.561 72.4812 55.4001 54.8968C85.6658 25.0633 120.665 7.44815 158.905 2.80173C185.989 -0.489166 199.141 -1.54446 237.39 12.1379C277.332 26.4265 284.089 34.1399 302.808 55.5098L302.904 55.6194C325.777 81.7316 340.829 118.932 338.233 144.991L338.798 169.752L355.435 151.251C449.508 55.6905 616.038 118.245 632.079 255.168C637.168 298.604 610.656 377.747 578.218 415.956C535.904 465.799 479.826 495.129 362.65 528.703C362.65 528.703 221.767 551.231 202.503 544.219Z" fill="#9BF2E8"/>
<path opacity="0.99" d="M309.568 267.383C309.403 267.835 309.239 268.286 309.075 268.737L308.665 269.864C307.823 272.878 306.613 275.502 304.869 278.188C301.689 283.416 297.156 288.151 291.373 291.409C285.815 294.75 279.397 296.245 273.471 296.387C267.771 296.611 262.481 295.707 257.806 294.516C254.116 293.428 250.733 292.197 247.35 290.966C240.686 290.328 228.775 281.651 230.663 276.464C241.416 246.92 255.289 208.806 266.042 179.262C267.684 174.752 278.488 179.451 283.879 184.988C287.365 185.236 290.994 185.79 294.316 186.488C298.847 187.371 303.521 188.562 308.462 191.127C310.861 192.255 313.321 193.917 315.699 195.804C316.888 196.747 317.995 197.916 319.102 199.085C320.127 200.48 321.234 201.649 321.951 203.187C323.549 205.812 324.902 209.114 325.413 212.62C325.823 214.302 325.925 216.127 325.945 218.177C325.821 219.92 325.616 221.889 324.959 223.693C324.282 226.256 323.235 228.429 321.738 230.438C320.548 232.303 318.907 234.005 317.348 235.481C316.569 236.219 315.564 236.874 314.867 237.387C314.169 237.899 313.164 238.555 312.467 239.067C310.847 240.01 309.309 240.727 307.545 241.363C306.93 241.649 306.315 241.936 305.7 242.223C305.843 242.531 306.069 242.613 306.212 242.92C306.642 243.843 306.929 244.459 307.216 245.074C307.933 246.612 308.425 248.068 308.917 249.524C310.044 252.743 310.412 255.942 310.39 259.51C310.492 261.335 310.369 263.078 310.019 264.738C309.917 265.723 309.896 266.481 309.568 267.383ZM280.192 242.134C280.643 242.298 280.951 242.154 281.258 242.011C280.951 242.154 280.643 242.298 280.192 242.134ZM276.522 240.287C276.44 240.513 276.44 240.513 276.44 240.513C276.215 240.431 276.215 240.431 276.215 240.431C276.215 240.431 276.215 240.431 276.522 240.287ZM284.415 245.969C283.964 245.805 283.431 245.866 282.897 245.928C285.665 247.446 287.9 249.025 289.355 251.343C288.269 249.415 286.424 247.467 284.415 245.969ZM286.014 245.785C287.203 246.729 288.7 247.529 289.499 248.841C288.618 247.754 287.736 246.667 286.547 245.724C286.547 245.724 286.24 245.867 286.014 245.785ZM283.411 243.816C283.718 243.673 283.944 243.755 284.251 243.611C283.944 243.755 283.718 243.673 283.411 243.816ZM261.84 244.138L261.614 244.056C260.075 247.582 258.536 251.108 257.223 254.717C255.171 260.355 253.795 266.239 251.825 271.652C253.795 266.239 256.073 260.683 258.125 255.045L258.351 255.127L258.125 255.045C259.439 251.437 260.526 247.746 261.84 244.138ZM260.38 255.866C259.149 259.249 258.595 262.878 257.445 266.035C258.595 262.878 260.051 259.577 261.283 256.194C262.514 252.811 263.52 249.346 264.669 246.189C263.52 249.346 261.612 252.483 260.38 255.866ZM259.929 255.702C261.017 252.011 262.187 248.095 263.501 244.487C261.962 248.013 260.115 251.683 258.802 255.291C257.242 259.576 256.441 263.882 254.882 268.167C256.441 263.882 258.144 259.905 259.929 255.702ZM281.606 245.968C281.073 246.03 280.314 246.009 279.555 245.988C280.232 246.235 280.601 246.624 281.052 246.788C282.917 247.978 284.557 249.086 285.89 250.337C286.71 250.891 287.222 251.588 287.735 252.286C288.247 252.983 288.677 253.906 288.882 254.747C288.677 253.906 288.247 252.983 287.817 252.06C287.304 251.363 286.792 250.666 286.28 249.968C285.029 248.491 283.471 247.158 281.606 245.968ZM304.388 240.213C305.844 239.722 307.074 239.148 308.53 238.656C307.074 239.148 305.844 239.722 304.47 239.988C304.388 240.213 304.388 240.213 304.388 240.213ZM303.589 238.901C305.66 238.122 307.813 237.118 309.966 236.114C307.813 237.118 305.434 238.04 303.22 238.511C303.445 238.593 303.363 238.819 303.589 238.901ZM310.029 233.838C308.408 234.781 306.645 235.416 305.107 236.133C303.958 236.481 303.118 236.686 301.969 237.034C302.195 237.117 302.338 237.424 302.564 237.506C303.405 237.301 304.327 236.871 305.25 236.441C306.788 235.724 308.634 234.863 310.254 233.92C311.874 232.977 313.433 231.502 314.992 230.026C313.433 231.502 311.956 232.752 310.029 233.838ZM301.996 216.612C301.852 216.304 301.566 215.689 301.279 215.074C300.623 214.069 299.065 212.736 296.359 211.751C295.005 211.258 293.652 210.766 291.991 210.417C290.331 210.067 288.444 209.636 286.784 209.287C284.815 209.082 282.621 208.794 280.571 208.814C279.011 213.099 277.37 217.609 275.81 221.894C280.28 222.244 284.914 222.143 289.261 221.427C290.327 221.304 291.168 221.099 292.234 220.976L293.608 220.71C294.141 220.649 294.449 220.506 294.982 220.444C296.438 219.952 298.12 219.543 299.125 218.887C300.355 218.313 301.278 217.883 301.668 217.514C302.057 217.145 302.139 216.919 302.139 216.919C302.139 216.919 302.139 216.919 301.996 216.612ZM303.104 212.163C301.772 210.912 300.132 209.804 298.184 208.84C296.237 207.875 293.756 206.972 291.193 206.295C288.015 205.904 284.837 205.514 281.802 205.431C281.72 205.656 281.72 205.656 281.72 205.656C284.898 206.047 287.994 206.663 290.783 207.423L291.09 207.279C293.653 207.956 295.99 208.552 298.02 209.291C300.132 209.804 301.772 210.912 303.104 212.163ZM297.098 206.912C298.984 207.343 300.481 208.143 301.978 208.943C299.292 207.199 295.458 205.804 291.542 204.634C288.364 204.244 285.411 203.935 282.377 203.852C285.247 204.386 288.343 205.002 291.214 205.536L291.439 205.618C293.326 206.049 295.212 206.481 297.098 206.912ZM291.809 203.199C288.939 202.665 285.986 202.356 282.951 202.274C285.904 202.582 288.692 203.341 291.481 204.101L291.706 204.183C294.802 204.799 298.062 204.964 300.83 206.482C298.288 205.046 295.131 203.897 291.809 203.199ZM263.597 196.506L263.679 196.281C265.423 190.786 267.25 185.066 269.302 179.427C267.25 185.066 264.747 190.54 262.777 195.952L262.695 196.178C260.725 201.59 259.123 207.393 257.071 213.031C259.123 207.393 261.401 201.837 263.597 196.506ZM265.175 197.081L265.257 196.855C266.509 192.714 268.069 188.429 269.629 184.144C268.069 188.429 265.833 192.467 264.355 196.527L264.273 196.752C262.796 200.812 261.913 205.343 260.435 209.403C261.913 205.343 263.472 201.058 265.175 197.081ZM266.754 197.655L266.836 197.43C267.76 194.19 268.766 190.725 269.997 187.342C268.766 190.725 267.083 193.944 265.934 197.101L265.852 197.327C264.703 200.484 263.923 204.031 262.691 207.414C263.923 204.031 265.379 200.731 266.754 197.655ZM258.408 269.706C261.34 270.773 264.354 271.615 267.224 272.149C270.402 272.539 273.129 272.765 275.426 272.069C277.866 271.68 279.712 270.819 281.496 269.426C283.281 268.032 284.635 265.715 285.763 263.317C285.927 262.865 286.009 262.64 286.173 262.189C286.173 262.189 286.255 261.963 286.338 261.738L286.42 261.512C286.584 261.061 286.44 260.754 286.605 260.303C286.625 259.544 286.728 258.56 286.38 257.411C286.175 256.571 285.827 255.422 285.171 254.417C285.028 254.11 284.884 253.802 284.884 253.802C284.741 253.495 284.515 253.412 284.372 253.105C284.228 252.797 283.859 252.408 283.49 252.018C281.789 250.377 279.554 248.797 276.848 247.812C274.9 246.848 272.645 246.027 270 245.575C269.098 245.247 268.339 245.226 267.355 245.124C264.318 253.468 261.363 261.587 258.408 269.706ZM284.095 288.25C277.348 290.647 270.274 291.137 263.774 290.048C267.096 290.746 270.356 290.911 273.924 290.933C277.266 290.872 281.08 290.217 284.3 289.09L284.607 288.947C287.909 287.595 291.149 285.709 293.877 283.126C296.523 280.769 298.656 277.715 300.482 274.803C298.656 277.715 296.379 280.461 293.508 282.737C290.637 285.012 287.396 286.897 284.177 288.024L284.095 288.25ZM284.586 289.706C279.521 291.693 273.718 292.901 268.572 292.305C273.718 292.901 279.5 292.452 285.017 290.628C287.703 289.563 290.328 287.964 292.728 286.284C294.984 284.295 297.014 282.225 298.819 280.073C297.014 282.225 294.758 284.213 292.359 285.894C290.041 287.349 287.498 288.722 284.812 289.788L284.586 289.706ZM285.734 292.166C290.266 290.24 294.142 287.309 297.65 283.989C296.009 285.69 293.999 287.002 291.763 288.231C289.754 289.543 287.6 290.547 285.304 291.244C280.854 292.944 276.342 294.112 271.934 294.295C276.342 294.112 281.058 293.785 285.734 292.166ZM395.263 248.004C383.987 243.9 370.004 238.811 357.375 234.214C355.569 239.176 353.681 244.363 351.793 249.55C357.882 251.766 364.197 254.065 369.384 255.952C371.639 256.773 364.866 279.593 362.836 278.854C356.973 276.72 350.207 274.257 343.667 271.877C340.547 280.447 337.428 289.017 334.473 297.136C346.426 301.486 359.506 306.247 370.106 310.105C373.489 311.337 367.618 334.485 364.235 333.253C352.282 328.903 337.172 323.403 323.866 318.56C321.364 318.416 318.207 317.267 315.296 315.441C315.07 315.359 314.845 315.277 314.619 315.195C314.394 315.112 314.394 315.112 314.25 314.805C309.248 311.707 305.497 307.277 306.646 304.12C317.399 274.576 331.272 236.462 342.025 206.918C343.01 204.212 346.864 204.848 351.067 206.634C351.293 206.716 351.518 206.798 351.518 206.798C366.629 212.297 386.024 219.357 401.134 224.856C404.517 226.088 398.646 249.236 395.263 248.004ZM389.525 238.509C387.946 237.934 386.06 237.503 384.481 236.929C386.06 237.503 387.618 238.837 389.196 239.411C389.422 239.493 389.422 239.493 389.422 239.493C391 240.068 393.051 240.048 394.63 240.622C393.051 240.048 391.329 239.166 389.75 238.591C389.75 238.591 389.75 238.591 389.525 238.509ZM389.032 239.862C386.92 239.349 384.583 238.754 382.553 238.015C384.583 238.754 386.674 240.026 388.622 240.99L388.847 241.072C390.959 241.585 393.378 241.955 395.408 242.694C393.378 241.955 391.205 240.909 389.258 239.944L389.032 239.862ZM388.457 241.441C385.669 240.681 382.655 239.84 379.949 238.855C382.655 239.84 385.341 241.583 388.047 242.568L388.273 242.651C390.979 243.636 394.157 244.026 396.863 245.011C394.157 244.026 391.307 242.733 388.683 241.523L388.457 241.441ZM365.93 218.428C368.862 219.495 371.958 220.111 374.664 221.096C371.958 220.111 369.108 218.819 366.258 217.526C365.13 217.116 363.695 216.849 362.342 216.356C362.485 216.664 362.629 216.971 362.629 216.971C363.674 217.607 364.802 218.018 365.93 218.428ZM367.407 214.369C365.746 214.02 363.86 213.588 362.282 213.014C363.86 213.588 365.5 214.696 367.079 215.271C368.883 215.927 370.626 216.051 372.43 216.708C370.626 216.051 369.129 215.251 367.407 214.369ZM366.833 215.947C364.946 215.516 362.917 214.777 361.112 214.121C361.03 214.346 361.03 214.346 361.03 214.346C363.06 215.085 364.7 216.193 366.504 216.849C368.76 217.67 370.954 217.958 373.209 218.779C370.954 217.958 369.006 216.994 366.833 215.947ZM338.479 269.989C338.479 269.989 338.479 269.989 338.254 269.907C336.694 274.192 334.766 278.087 333.206 282.372C331.646 286.657 330.62 290.881 329.06 295.166C329.286 295.248 329.286 295.248 329.286 295.248C330.846 290.963 332.549 286.986 334.108 282.701C335.668 278.416 336.92 274.274 338.479 269.989ZM339.58 224.162L339.662 223.936C341.406 218.441 343.233 212.721 345.285 207.083C343.233 212.721 340.73 218.195 338.76 223.608L338.678 223.833C336.708 229.246 335.106 235.048 333.054 240.686C335.106 235.048 337.384 229.492 339.58 224.162ZM341.158 224.736L341.24 224.511C342.492 220.369 344.052 216.084 345.612 211.799C344.052 216.084 341.816 220.123 340.338 224.182L340.256 224.408C338.779 228.467 337.896 232.999 336.418 237.058C337.896 232.999 339.455 228.714 341.158 224.736ZM342.737 225.311L342.819 225.085C343.743 221.846 344.749 218.381 345.98 214.998C344.749 218.381 343.066 221.6 341.917 224.757L341.835 224.982C340.686 228.14 339.906 231.687 338.674 235.07C339.906 231.687 341.362 228.386 342.737 225.311ZM358.497 323.758C356.836 323.409 355.032 322.752 353.453 322.178C355.032 322.752 356.59 324.085 358.168 324.66C358.394 324.742 358.394 324.742 358.394 324.742C359.972 325.317 362.023 325.297 363.602 325.871C362.023 325.297 360.219 324.64 358.722 323.84C358.722 323.84 358.722 323.84 358.497 323.758ZM357.922 325.337C355.892 324.598 353.555 324.003 351.525 323.264C353.555 324.003 355.564 325.5 357.594 326.239L357.819 326.321C359.849 327.06 362.35 327.204 364.38 327.943C362.35 327.204 360.177 326.157 358.147 325.419L357.922 325.337ZM357.347 326.915C354.559 326.156 351.627 325.089 348.921 324.104C351.627 325.089 354.313 326.832 357.019 327.817L357.245 327.899C359.951 328.885 363.129 329.275 365.835 330.26C363.129 329.275 360.197 328.208 357.573 326.997L357.347 326.915ZM334.82 303.903C337.834 304.744 340.93 305.36 343.636 306.345C340.93 305.36 338.08 304.068 335.23 302.775C334.246 302.672 333.569 302.426 332.667 302.097C332.585 302.323 332.503 302.549 332.421 302.774C333.323 303.102 333.917 303.574 334.82 303.903ZM335.476 302.098C337.732 302.919 339.925 303.207 342.181 304.028C339.925 303.207 337.978 302.243 335.805 301.196C334.903 300.868 334.144 300.847 333.242 300.519C333.16 300.744 333.078 300.97 333.078 300.97C333.898 301.524 334.574 301.77 335.476 302.098ZM336.379 299.618C335.395 299.515 334.718 299.268 333.734 299.166L333.652 299.391C334.472 299.945 335.067 300.417 335.969 300.745C337.773 301.402 339.598 301.3 341.402 301.957C339.598 301.3 338.101 300.5 336.379 299.618ZM336.363 283.521C335.132 286.904 334.577 290.533 333.428 293.691C334.577 290.533 336.034 287.233 337.266 283.85C338.497 280.467 339.503 277.002 340.652 273.845C339.503 277.002 337.595 280.139 336.363 283.521ZM335.912 283.357C337.246 278.99 338.498 274.849 340.058 270.564C338.498 274.849 336.344 278.662 334.785 282.947C333.225 287.232 332.424 291.538 330.865 295.823C332.424 291.538 334.127 287.56 335.912 283.357ZM360.03 270.426C358.82 270.241 357.61 270.056 356.483 269.646C357.61 270.056 358.574 270.918 359.701 271.328C360.829 271.738 361.895 271.616 363.023 272.026C361.895 271.616 361.075 271.062 360.03 270.426ZM359.455 272.005C357.794 271.656 356.441 271.163 355.088 270.671C356.441 271.163 357.548 272.332 359.127 272.907C360.48 273.399 362.079 273.215 363.432 273.708C362.079 273.215 360.726 272.723 359.455 272.005ZM358.88 273.583C356.769 273.07 354.964 272.413 353.16 271.757C354.964 272.413 356.522 273.747 358.552 274.485C360.356 275.142 362.407 275.122 364.211 275.779C362.407 275.122 360.603 274.466 358.88 273.583ZM349.823 254.962C350.582 254.983 351.033 255.147 351.709 255.394C351.033 255.147 350.582 254.983 349.905 254.737C349.905 254.737 349.905 254.737 349.823 254.962ZM350.931 253.322C350.705 253.24 350.705 253.24 350.48 253.158C350.705 253.24 350.705 253.24 350.931 253.322ZM199.904 308.432C202.284 301.891 223.277 314.385 220.815 321.151C210.062 350.695 196.189 388.809 185.436 418.353C183.056 424.893 162.063 412.399 164.525 405.634C168.465 394.808 172.898 382.63 177.495 370L174.214 370.594L173.824 370.963L173.373 370.799L172.307 370.922L170.482 371.024C169.108 371.29 167.673 371.023 166.381 371.063L164.556 371.165C164.023 371.227 163.879 370.919 163.654 370.837L162.916 370.058C161.952 369.196 160.907 368.56 160.025 367.473L157.135 364.889C156.254 363.802 155.372 362.715 154.716 361.71C149.545 375.918 144.538 389.675 140.105 401.853C137.725 408.394 116.732 395.9 119.194 389.134C129.045 362.071 141.522 327.791 151.864 299.375C152.028 298.924 152.193 298.473 152.357 298.022C152.849 296.669 153.26 295.541 153.67 294.413C153.609 293.88 153.998 293.511 154.081 293.286C154.245 292.835 154.409 292.384 154.573 291.933C156.953 285.392 177.946 297.886 175.484 304.652C175.156 305.554 174.909 306.23 174.581 307.132C174.171 308.26 173.842 309.162 173.657 310.372C173.329 311.274 172.919 312.402 172.816 313.386C172.405 314.513 172.22 315.723 171.892 316.625C171.707 317.835 171.604 318.819 171.419 320.029C170.619 324.335 170.043 328.722 170.083 332.823C170.041 337.15 170.696 340.964 171.822 344.183C172.335 344.881 172.765 345.804 172.97 346.644C173.278 346.501 173.278 346.501 173.278 346.501L173.811 346.44C173.893 346.214 174.118 346.296 174.2 346.071C175.041 345.866 175.738 345.353 176.436 344.841C176.743 344.698 177.277 344.636 177.666 344.267L178.753 343.386C181.625 341.111 184.599 337.851 187.122 334.428C188.537 332.644 189.501 330.697 190.691 328.831C191.327 327.786 191.963 326.74 192.517 325.92C192.763 325.243 192.927 324.792 193.317 324.423C193.563 323.747 193.728 323.296 193.892 322.845C194.938 320.671 195.902 318.724 196.867 316.776C197.031 316.325 197.195 315.874 197.441 315.198C198.262 312.942 199.083 310.687 199.904 308.432ZM150.116 318.915C150.033 319.141 149.951 319.366 149.951 319.366C150.669 318.095 151.244 316.517 151.737 315.164C152.004 313.728 152.27 312.293 152.537 310.858C151.552 313.564 150.793 316.353 150.116 318.915ZM151.776 319.264C152.351 317.686 152.843 316.333 153.561 315.062L153.788 312.335L154.28 310.981C153.295 313.688 152.843 316.333 151.858 319.039L151.776 319.264ZM154.014 309.607C154.61 307.27 155.512 304.789 156.415 302.309L157.011 299.971C156.518 301.324 156.251 302.76 155.759 304.113L155.02 306.142L154.363 307.947L153.768 310.284C153.85 310.059 153.932 309.833 153.932 309.833L154.014 309.607ZM156.253 297.141C156.171 297.367 155.781 297.736 155.699 297.961C154.447 302.103 152.969 306.162 151.943 310.386C152.025 310.161 152.189 309.709 152.353 309.258L152.435 309.033C152.949 306.921 153.77 304.666 154.508 302.636C154.939 300.75 155.596 298.946 156.253 297.141ZM146.731 323.302C146.403 324.204 146.156 324.881 145.828 325.783C146.156 324.881 146.403 324.204 146.649 323.528L146.731 323.302ZM146.882 367.797C148.359 363.738 149.529 359.822 151.007 355.762L150.863 355.455C149.16 359.432 147.457 363.41 145.98 367.469C143.928 373.107 142.552 378.992 140.582 384.404C142.552 378.992 144.604 373.353 146.882 367.797ZM148.461 368.372C149.774 364.764 150.78 361.299 152.093 357.69C150.554 361.216 148.872 364.435 147.559 368.044C145.999 372.329 145.198 376.634 143.638 380.919C145.198 376.634 146.675 372.575 148.461 368.372ZM150.039 368.947C150.963 365.707 152.03 362.775 153.179 359.618C152.954 359.536 152.954 359.536 152.954 359.536C151.805 362.693 150.286 365.461 149.137 368.618C147.906 372.001 147.126 375.548 145.977 378.706C147.126 375.548 148.582 372.247 150.039 368.947ZM194.196 333.938L194.668 333.343C194.75 333.118 194.832 332.892 194.914 332.667C194.442 333.261 194.196 333.938 193.806 334.307C193.724 334.532 193.642 334.758 193.56 334.983C193.642 334.758 194.032 334.389 194.196 333.938ZM182.649 342.505C180.229 344.945 177.665 347.076 175.205 348.224C177.665 347.076 180.742 345.642 183.162 343.203C183.859 342.69 184.413 341.87 185.11 341.358C185.274 340.907 185.664 340.538 185.746 340.312L186.69 339.123C187.244 338.303 187.715 337.709 188.269 336.889C188.598 335.987 189.069 335.392 189.623 334.572L188.044 336.807C187.49 337.627 186.793 338.139 186.321 338.733L185.377 339.922C185.07 340.066 184.68 340.435 184.516 340.886C183.818 341.398 183.121 341.911 182.649 342.505ZM174.855 349.885C174.466 350.254 174.24 350.171 173.933 350.315C174.24 350.171 174.466 350.254 175.081 349.967C175.081 349.967 175.389 349.823 175.614 349.905L176.311 349.393L177.767 348.901L178.998 348.327L179.695 347.815C180.003 347.672 180.31 347.528 180.392 347.303L181.705 346.503C182.32 346.216 182.71 345.848 183.1 345.479L184.269 344.372C186.135 342.752 187.55 340.969 188.822 338.878C188.987 338.427 189.069 338.201 189.233 337.75C187.653 339.985 185.705 341.83 183.756 343.674L182.587 344.781C182.197 345.15 181.726 345.745 181.418 345.888L180.023 346.913C179.941 347.138 179.634 347.282 179.552 347.507L178.936 347.794L177.542 348.819L176.311 349.393L175.696 349.68C175.389 349.823 175.081 349.967 174.855 349.885ZM185.601 345.623C185.991 345.254 186.463 344.659 186.852 344.29C187.181 343.388 187.427 342.712 187.673 342.035C186.812 342.999 185.95 343.962 184.863 344.843L184.781 345.069C182.751 347.139 180.269 349.046 177.951 350.501C177.336 350.788 176.721 351.074 176.106 351.361L175.183 351.792L174.342 351.996L173.194 352.345C172.968 352.263 172.435 352.324 172.128 352.467L173.194 352.345L174.568 352.079L176.249 351.669C176.864 351.382 177.48 351.095 178.095 350.808C180.638 349.435 183.263 347.837 185.601 345.623ZM192.213 384.296C194.039 378.576 196.091 372.938 198.061 367.525C196.091 372.938 193.363 378.33 191.311 383.968C189.258 389.606 187.883 395.491 185.913 400.903C187.883 395.491 189.935 389.852 192.213 384.296ZM193.791 384.871C195.351 380.586 196.603 376.444 198.163 372.159C196.603 376.444 194.449 380.258 192.889 384.543C191.33 388.828 190.529 393.133 188.969 397.418C190.529 393.133 192.232 389.156 193.791 384.871ZM195.37 385.446C196.376 381.981 197.382 378.516 198.531 375.358C197.382 378.516 195.699 381.734 194.468 385.117C193.237 388.5 192.456 392.047 191.307 395.205C192.456 392.047 193.913 388.746 195.37 385.446ZM258.743 352.067C257.164 351.493 255.134 350.754 253.33 350.097C246.025 370.169 237.898 392.496 230.511 412.794C231.864 413.286 233.217 413.779 234.57 414.271C236.825 415.092 230.052 437.912 227.797 437.091C225.091 436.106 222.159 435.039 219.001 433.89C217.033 433.684 214.778 432.863 212.461 431.509C206.597 429.375 200.734 427.241 195.772 425.435C193.517 424.614 200.29 401.794 202.32 402.533C204.124 403.19 205.928 403.846 207.958 404.585C215.264 384.513 223.39 362.186 230.778 341.889C229.425 341.396 228.071 340.904 226.718 340.411C224.463 339.591 231.318 316.545 233.348 317.284C236.054 318.269 238.986 319.336 241.918 320.403C244.112 320.691 246.818 321.676 249.36 323.112C254.999 325.164 260.637 327.216 265.598 329.022C267.854 329.843 260.998 352.888 258.743 352.067ZM254.459 347.699C256.263 348.355 258.539 348.418 260.343 349.074C258.539 348.418 256.591 347.453 254.869 346.571C254.869 346.571 254.644 346.489 254.562 346.715C254.479 346.94 254.397 347.166 254.233 347.617L254.459 347.699ZM259.565 347.003C258.211 346.511 256.715 345.71 255.444 344.992L255.218 344.91C255.054 345.361 254.972 345.587 254.89 345.812L255.115 345.895C256.469 346.387 258.211 346.511 259.565 347.003ZM256.018 343.414C255.936 343.639 255.711 343.557 255.711 343.557C255.629 343.783 255.547 344.008 255.382 344.459L255.608 344.541C256.736 344.952 258.109 344.686 259.237 345.096C258.109 344.686 257.064 344.05 256.018 343.414ZM241.241 322.966C241.323 322.741 241.323 322.741 241.405 322.515C241.323 322.741 241.323 322.741 241.241 322.966ZM240.83 324.094C240.748 324.319 240.748 324.319 240.666 324.545C240.748 324.319 240.748 324.319 240.83 324.094ZM240.256 325.673C240.173 325.898 240.091 326.124 240.091 326.124C240.091 326.124 240.173 325.898 240.256 325.673ZM235.739 343.695C235.514 343.613 235.288 343.531 235.063 343.449C234.221 346.462 233.38 349.476 232.312 352.408C233.38 349.476 234.672 346.627 235.739 343.695ZM236.565 324.585C236.791 324.667 236.791 324.667 237.016 324.749C236.791 324.667 236.791 324.667 236.565 324.585ZM234.161 343.12C233.935 343.038 233.71 342.956 233.484 342.874C231.924 347.159 230.816 351.608 229.174 356.119C230.816 351.608 232.375 347.323 234.161 343.12ZM206.07 409.772C205.845 409.69 205.845 409.69 205.619 409.608C205.845 409.69 205.845 409.69 206.07 409.772ZM223.513 432.722C225.317 433.379 227.593 433.441 229.397 434.098C227.593 433.441 225.563 432.702 223.841 431.82L223.616 431.738C223.533 431.963 223.533 431.963 223.451 432.189C223.369 432.414 223.144 432.332 223.062 432.558C223.287 432.64 223.513 432.722 223.513 432.722ZM228.619 432.026C227.265 431.534 225.769 430.734 224.498 430.016C224.416 430.241 224.19 430.159 224.19 430.159C224.108 430.385 224.026 430.61 223.862 431.061L224.087 431.143C225.441 431.636 227.265 431.534 228.619 432.026ZM224.99 428.663L224.765 428.581C224.683 428.806 224.519 429.257 224.436 429.483L224.662 429.565C225.79 429.975 227.163 429.709 228.291 430.119C227.163 429.709 226.036 429.299 224.99 428.663ZM225.098 410.824C225.098 410.824 225.098 410.824 225.324 410.906C226.883 406.621 228.443 402.336 230.228 398.133C232.055 392.413 233.881 386.692 235.851 381.28C233.881 386.692 231.378 392.166 229.326 397.805C227.766 402.09 226.432 406.457 225.098 410.824ZM230.905 398.379C229.345 402.664 228.544 406.97 226.984 411.255C228.544 406.97 230.022 402.91 231.807 398.707C233.141 394.34 234.618 390.281 236.178 385.996C234.618 390.281 232.464 394.094 230.905 398.379ZM232.483 398.954C231.252 402.337 230.472 405.884 229.323 409.041C230.472 405.884 231.929 402.583 233.385 399.282C234.391 395.817 235.397 392.352 236.546 389.195C235.397 392.352 233.714 395.571 232.483 398.954ZM234.794 350.502C235.533 348.472 236.354 346.217 237.318 344.269C237.092 344.187 236.867 344.105 236.641 344.023C236.128 346.135 235.533 348.472 234.794 350.502ZM321.256 352.6C323.637 346.06 344.404 358.472 341.942 365.237C331.189 394.781 317.316 432.895 306.563 462.439C305.414 465.597 300.432 464.549 295.573 461.759C295.347 461.677 295.122 461.595 294.814 461.739C294.138 461.492 293.543 461.02 292.867 460.774C287.577 457.061 283.457 452.242 280.404 447.299C277.124 442.274 274.686 437.045 272.781 431.754C271.736 428.309 270.835 425.172 270.015 421.809C266.978 430.153 263.941 438.498 261.232 445.94C258.852 452.48 238.084 440.069 240.547 433.303C251.3 403.759 265.172 365.645 275.925 336.101C276.336 334.974 277.033 334.461 278.325 334.421C280.54 333.95 283.554 334.791 286.465 336.617C292 339.653 297.555 344.74 296.775 348.287C296.693 348.513 296.754 349.046 296.672 349.271C295.277 353.105 294.25 357.329 293.449 361.635C292.936 363.747 292.648 365.94 292.135 368.052C291.847 370.246 291.56 372.44 291.272 374.634C290.902 377.053 290.84 379.329 290.552 381.523C290.49 383.799 290.428 386.075 290.366 388.351C290.385 393.211 290.486 397.845 290.895 402.336C291.754 409.8 293.228 416.977 295.482 423.416C304.101 399.735 313.54 373.8 321.256 352.6ZM278.939 336.943L279.022 336.717C277.298 341.453 275.574 346.19 274.301 351.09C275.717 346.497 277.216 341.679 278.939 336.943ZM275.427 357.118C275.694 355.683 276.043 354.022 276.392 352.362C276.146 353.038 275.982 353.489 275.818 353.94L275.736 354.166C274.997 356.196 274.484 358.307 273.97 360.419C273.888 360.645 273.724 361.096 273.56 361.547C274.36 360.05 274.853 358.697 275.427 357.118ZM273.602 357.22C273.951 355.56 274.3 353.899 274.732 352.013C274.567 352.464 274.403 352.915 274.239 353.366L274.157 353.591C273.418 355.621 272.905 357.733 272.084 359.988C272.063 360.747 271.899 361.198 271.878 361.956C272.453 360.378 273.028 358.799 273.828 357.302L273.602 357.22ZM268.268 366.261C267.858 367.389 267.448 368.517 266.955 369.87C267.365 368.742 267.776 367.615 268.104 366.712C268.186 366.487 268.268 366.261 268.268 366.261ZM268.009 411.884C267.948 411.351 267.968 410.592 267.763 409.751C267.517 410.428 267.353 410.879 267.107 411.556C265.055 417.194 263.679 423.078 261.709 428.491C263.679 423.078 265.957 417.522 268.009 411.884ZM268.418 413.565C267.105 417.174 266.161 421.172 264.765 425.006C265.997 421.623 267.146 418.466 268.603 415.165C268.541 414.632 268.48 414.099 268.418 413.565ZM267.329 422.874C267.904 421.296 268.478 419.717 269.135 417.913C269.217 417.687 269.074 417.38 268.93 417.072C268.499 418.958 267.986 421.07 267.329 422.874ZM315.595 429.204C314.364 432.587 313.809 436.216 312.66 439.373C313.809 436.216 315.266 432.915 316.497 429.532C317.728 426.149 318.734 422.684 319.883 419.527C318.734 422.684 316.826 425.821 315.595 429.204ZM314.016 428.629C312.682 432.996 311.656 437.22 310.096 441.505C311.656 437.22 313.359 433.243 315.144 429.04C316.478 424.673 317.73 420.531 319.29 416.246C317.73 420.531 315.576 424.344 314.016 428.629ZM312.438 428.055C310.796 432.565 309.605 437.24 308.107 442.058C309.831 437.322 311.698 432.894 313.565 428.465C315.392 422.745 317.218 417.025 319.188 411.612C317.218 417.025 314.49 422.417 312.438 428.055ZM321.148 370.439L321.066 370.665C319.917 373.822 319.137 377.369 317.906 380.752C319.137 377.369 320.594 374.069 321.969 370.993L322.051 370.768C322.974 367.528 323.98 364.063 325.211 360.68C323.98 364.063 322.298 367.282 321.148 370.439ZM319.57 369.865L319.488 370.09C318.01 374.15 317.127 378.681 315.65 382.741C317.127 378.681 318.687 374.396 320.39 370.419L320.472 370.193C321.724 366.052 323.284 361.767 324.843 357.482C323.284 361.767 321.047 365.805 319.57 369.865ZM317.991 369.29L317.909 369.516C315.939 374.928 314.338 380.731 312.286 386.369C314.338 380.731 316.616 375.175 318.811 369.844L318.893 369.619C320.638 364.124 322.464 358.404 324.516 352.765C322.464 358.404 319.961 363.878 317.991 369.29ZM290.707 414.782C290.297 413.1 289.887 411.419 289.56 409.512C289.887 411.419 290.297 413.1 290.399 414.925C290.727 416.832 290.828 418.657 291.464 420.421C291.873 422.102 292.59 423.64 293.226 425.404C293.595 425.794 293.881 426.409 294.168 427.024C294.25 426.799 294.25 426.799 294.332 426.573C293.554 424.502 292.857 422.205 292.386 419.99C291.669 418.452 291.342 416.545 290.707 414.782ZM290.705 420.4C289.455 416.114 288.288 411.603 287.736 406.805C288.288 411.603 288.615 416.319 289.782 420.83C290.765 423.742 292.056 426.511 293.347 429.279C293.43 429.054 293.43 429.054 293.43 429.054C292.364 426.367 291.381 423.455 290.93 420.482L290.705 420.4ZM288.101 421.24C289.002 424.377 290.293 427.146 291.584 429.914C291.871 430.53 292.158 431.145 292.444 431.76C292.527 431.535 292.609 431.309 292.609 431.309C291.031 427.925 289.986 424.48 289.167 421.117L289.249 420.892C287.282 415.068 286.013 408.732 285.502 402.416C286.013 408.732 286.442 415.273 288.101 421.24ZM408.23 405.966C396.954 401.861 382.971 396.772 370.342 392.175C368.536 397.137 366.648 402.324 364.76 407.511C370.849 409.727 377.164 412.026 382.351 413.914C384.606 414.735 377.833 437.554 375.803 436.815C369.94 434.681 363.174 432.219 356.634 429.838C353.514 438.408 350.395 446.978 347.44 455.097C359.393 459.448 372.473 464.209 383.073 468.067C386.456 469.298 380.585 492.446 377.202 491.214C365.249 486.864 350.139 481.364 336.833 476.521C334.331 476.377 331.174 475.228 328.263 473.402C328.037 473.32 327.812 473.238 327.586 473.156C327.361 473.074 327.361 473.074 327.217 472.766C322.215 469.668 318.464 465.238 319.613 462.081C330.366 432.537 344.239 394.423 354.992 364.879C355.977 362.173 359.832 362.81 364.034 364.595C364.26 364.677 364.485 364.759 364.485 364.759C379.596 370.259 398.991 377.318 414.101 382.818C417.484 384.049 411.613 407.197 408.23 405.966ZM402.492 396.47C400.913 395.896 399.027 395.464 397.448 394.89C399.027 395.464 400.585 396.798 402.163 397.372C402.389 397.454 402.389 397.454 402.389 397.454C403.967 398.029 406.018 398.009 407.597 398.584C406.018 398.009 404.296 397.127 402.717 396.552C402.717 396.552 402.717 396.552 402.492 396.47ZM401.999 397.823C399.887 397.31 397.55 396.715 395.52 395.976C397.55 396.715 399.641 397.987 401.589 398.951L401.814 399.033C403.926 399.546 406.345 399.916 408.375 400.655C406.345 399.916 404.172 398.87 402.225 397.905L401.999 397.823ZM401.425 399.402C398.636 398.643 395.622 397.801 392.916 396.816C395.622 397.801 398.308 399.545 401.014 400.53L401.24 400.612C403.946 401.597 407.124 401.987 409.83 402.972C407.124 401.987 404.274 400.695 401.65 399.484L401.425 399.402ZM378.897 376.389C381.829 377.456 384.925 378.072 387.631 379.057C384.925 378.072 382.075 376.78 379.225 375.487C378.097 375.077 376.662 374.81 375.309 374.317C375.453 374.625 375.596 374.932 375.596 374.932C376.642 375.568 377.769 375.979 378.897 376.389ZM380.374 372.33C378.714 371.981 376.827 371.55 375.249 370.975C376.827 371.55 378.467 372.657 380.046 373.232C381.85 373.889 383.593 374.012 385.397 374.669C383.593 374.012 382.096 373.212 380.374 372.33ZM379.8 373.908C377.913 373.477 375.884 372.739 374.079 372.082C373.997 372.307 373.997 372.307 373.997 372.307C376.027 373.046 377.667 374.154 379.471 374.811C381.727 375.631 383.921 375.919 386.176 376.74C383.921 375.919 381.973 374.955 379.8 373.908ZM351.446 427.95C351.446 427.95 351.446 427.95 351.221 427.868C349.661 432.153 347.733 436.048 346.173 440.333C344.613 444.618 343.587 448.842 342.027 453.127C342.253 453.209 342.253 453.209 342.253 453.209C343.813 448.924 345.516 444.947 347.075 440.662C348.635 436.377 349.887 432.235 351.446 427.95ZM352.547 382.123L352.629 381.897C354.373 376.403 356.2 370.682 358.252 365.044C356.2 370.682 353.697 376.156 351.727 381.569L351.645 381.794C349.675 387.207 348.073 393.009 346.021 398.648C348.073 393.009 350.351 387.453 352.547 382.123ZM354.125 382.697L354.207 382.472C355.459 378.33 357.019 374.045 358.579 369.76C357.019 374.045 354.783 378.084 353.305 382.144L353.223 382.369C351.746 386.429 350.863 390.96 349.385 395.019C350.863 390.96 352.422 386.675 354.125 382.697ZM355.704 383.272L355.786 383.046C356.71 379.807 357.716 376.342 358.947 372.959C357.716 376.342 356.033 379.561 354.884 382.718L354.802 382.944C353.653 386.101 352.873 389.648 351.641 393.031C352.873 389.648 354.329 386.347 355.704 383.272ZM371.464 481.719C369.803 481.37 367.999 480.713 366.42 480.139C367.999 480.713 369.557 482.047 371.135 482.621C371.361 482.703 371.361 482.703 371.361 482.703C372.939 483.278 374.99 483.258 376.569 483.833C374.99 483.258 373.186 482.601 371.689 481.801C371.689 481.801 371.689 481.801 371.464 481.719ZM370.889 483.298C368.859 482.559 366.522 481.964 364.492 481.225C366.522 481.964 368.531 483.461 370.561 484.2L370.786 484.282C372.816 485.021 375.317 485.165 377.347 485.904C375.317 485.165 373.144 484.119 371.114 483.38L370.889 483.298ZM370.314 484.877C367.526 484.117 364.594 483.05 361.888 482.065C364.594 483.05 367.28 484.794 369.986 485.779L370.212 485.861C372.918 486.846 376.096 487.236 378.802 488.221C376.096 487.236 373.164 486.169 370.54 484.959L370.314 484.877ZM347.787 461.864C350.801 462.705 353.897 463.321 356.603 464.306C353.897 463.321 351.047 462.029 348.197 460.736C347.213 460.633 346.536 460.387 345.634 460.059C345.552 460.284 345.47 460.51 345.388 460.735C346.29 461.064 346.885 461.535 347.787 461.864ZM348.443 460.06C350.699 460.88 352.892 461.168 355.148 461.989C352.892 461.168 350.945 460.204 348.772 459.157C347.87 458.829 347.111 458.808 346.209 458.48C346.127 458.706 346.045 458.931 346.045 458.931C346.865 459.485 347.541 459.731 348.443 460.06ZM349.346 457.579C348.362 457.476 347.685 457.23 346.701 457.127L346.619 457.352C347.439 457.906 348.034 458.378 348.936 458.706C350.74 459.363 352.565 459.261 354.369 459.918C352.565 459.261 351.068 458.461 349.346 457.579ZM349.33 441.483C348.099 444.866 347.545 448.495 346.395 451.652C347.545 448.495 349.001 445.194 350.233 441.811C351.464 438.428 352.47 434.963 353.619 431.806C352.47 434.963 350.562 438.1 349.33 441.483ZM348.879 441.318C350.214 436.951 351.466 432.81 353.025 428.525C351.466 432.81 349.311 436.623 347.752 440.908C346.192 445.193 345.391 449.499 343.832 453.784C345.391 449.499 347.094 445.521 348.879 441.318ZM372.997 428.387C371.787 428.202 370.577 428.017 369.45 427.607C370.577 428.017 371.541 428.879 372.668 429.289C373.796 429.7 374.862 429.577 375.99 429.987C374.862 429.577 374.042 429.023 372.997 428.387ZM372.422 429.966C370.761 429.617 369.408 429.124 368.055 428.632C369.408 429.124 370.515 430.293 372.094 430.868C373.447 431.36 375.046 431.176 376.399 431.669C375.046 431.176 373.693 430.684 372.422 429.966ZM371.847 431.545C369.736 431.031 367.931 430.375 366.127 429.718C367.931 430.375 369.489 431.708 371.519 432.447C373.323 433.103 375.374 433.083 377.178 433.74C375.374 433.083 373.57 432.427 371.847 431.545ZM362.79 412.924C363.549 412.944 364 413.109 364.676 413.355C364 413.109 363.549 412.944 362.872 412.698C362.872 412.698 362.872 412.698 362.79 412.924ZM363.898 411.284C363.672 411.202 363.672 411.202 363.447 411.119C363.672 411.202 363.672 411.202 363.898 411.284Z" fill="white"/>
</svg>
