<svg width="705" height="579" viewBox="0 0 705 579" fill="none" xmlns="http://www.w3.org/2000/svg">
<path d="M94.1637 430.295C97.0207 436.103 183.207 536.508 202.47 543.52L274.729 577.527C293.993 584.539 434.875 562.012 434.875 562.012C552.051 528.437 608.129 499.107 650.444 449.264C682.882 411.055 709.393 331.912 704.305 288.476C696.932 225.546 657.772 178.325 608.467 154.944L534.853 120.3C528.136 117.186 521.237 114.513 514.208 112.3C475.854 100.226 433.655 101.873 396.405 120.543C390.644 109.255 383.398 98.367 375.129 88.9275L375.034 88.8183C362.636 74.665 355.486 66.5019 340.467 58.4519L260.467 20.8004L237.357 11.4383C199.108 -2.24411 185.956 -1.18881 158.872 2.10208C120.632 6.74851 85.6327 24.3637 55.3671 54.1972C37.5279 71.7815 30.0116 84.783 16.8418 120.837C-10.1369 194.693 -4.95497 258.291 34.2077 333.969C42.0725 349.167 44.5102 354.243 47.3572 359.079C52.1998 367.303 58.2265 374.831 94.1637 430.295Z" fill="#F28AD6"/>
<path d="M202.47 543.52C183.207 536.508 97.0207 436.103 94.1637 430.295C37.0999 342.225 55.4507 375.02 34.2077 333.969C-4.95497 258.291 -10.1369 194.693 16.8418 120.837C30.0116 84.783 37.5279 71.7815 55.3671 54.1972C85.6327 24.3637 120.632 6.74851 158.872 2.10208C185.956 -1.18881 199.108 -2.24411 237.357 11.4383C277.299 25.7268 284.056 33.4402 302.775 54.8102L302.871 54.9198C325.744 81.0319 340.796 118.232 338.2 144.291L338.765 169.052L355.402 150.552C449.475 54.9908 616.005 117.545 632.046 254.468C637.135 297.904 610.623 377.047 578.185 415.256C535.871 465.099 479.793 494.429 362.617 528.004C362.617 528.004 221.734 550.531 202.47 543.52Z" fill="#FFB2E9"/>
<path opacity="0.99" d="M181.458 264.539C184.039 288.145 186.903 311.855 189.281 332.514C190.534 342.228 160.06 339.118 158.909 329.121C157.529 317.126 155.995 303.797 154.282 290.085C144.155 299.488 134.412 308.712 125.644 317.014C118.337 323.932 92.9935 306.726 100.198 300.09C115.298 285.793 132.732 269.471 149.884 253.047C147.302 229.44 144.439 205.731 141.958 185.354C140.705 175.639 171.282 178.468 172.432 188.464C173.71 200.742 175.347 213.788 177.06 227.501C187.187 218.097 196.827 209.155 205.698 200.572C213.004 193.653 238.245 211.141 231.041 217.777C216.043 231.793 198.609 248.114 181.458 264.539ZM207.714 227.484C204.484 231.097 200.971 234.608 197.177 238.016C200.971 234.608 205.227 231.687 208.637 228.459L208.739 228.177C212.149 224.948 215.482 221.053 218.995 217.543C215.482 221.053 211.791 224.179 207.714 227.484ZM223.301 216.237C218.815 220.67 214.149 224.718 209.098 228.946C204.893 233.481 200.407 237.914 195.92 242.347C200.407 237.914 205.636 234.071 210.02 229.92L210.123 229.638C214.507 225.487 218.815 220.67 223.301 216.237ZM210.764 230.51C204.816 236.326 198.867 242.143 192.919 247.959C198.867 242.143 205.456 237.198 211.404 231.381L211.686 231.484C217.634 225.668 223.121 219.364 229.351 213.65C223.121 219.364 216.994 224.796 210.764 230.51ZM153.588 207.784C152.59 202.632 151.771 197.864 151.337 192.918C151.771 197.864 151.821 202.991 152.358 207.656L152.255 207.937C152.792 212.602 154.175 217.575 154.891 222.625C154.175 217.575 153.74 212.628 153.588 207.784ZM151.589 208.014C150.437 201.529 149.465 195.429 148.878 189.149C149.465 195.429 149.668 201.888 150.359 207.886L150.256 208.168C150.946 214.165 152.482 220.471 153.07 226.751C152.482 220.471 151.895 214.191 151.589 208.014ZM148.257 208.398C149.074 216.677 150.943 224.7 151.761 232.978C150.943 224.7 150.125 216.421 149.308 208.142C148.208 199.76 147.006 191.66 145.906 183.279C147.006 191.66 147.157 200.016 147.975 208.295C147.975 208.295 147.975 208.295 148.257 208.398ZM181.477 284.659C180.659 279.891 179.84 275.124 179.124 270.074C179.84 275.124 179.608 280.147 180.144 284.812L180.042 285.094C180.861 289.862 182.243 294.834 182.678 299.781C182.243 294.834 181.809 289.888 181.375 284.941L181.477 284.659ZM179.478 284.889C178.583 279.455 177.687 274.021 177.074 268.69C177.303 274.2 177.532 279.711 178.145 285.042C178.043 285.324 178.043 285.324 178.043 285.324C179.015 291.425 180.269 297.628 181.241 303.728C180.269 297.628 179.963 291.451 179.375 285.171L179.478 284.889ZM150.574 259.045C146.677 262.734 142.498 266.321 138.32 269.908L138.217 270.19C133.73 274.623 129.525 279.159 124.859 283.207C129.525 279.159 134.473 275.213 139.139 271.165C139.139 271.165 139.139 271.165 139.242 270.883C143.139 267.193 146.857 263.119 150.574 259.045ZM136.833 268.729C133.321 272.239 129.808 275.75 126.296 279.26C129.808 275.75 134.064 272.829 137.756 269.703L137.858 269.421C141.268 266.193 144.319 262.195 148.114 258.788C144.319 262.195 140.628 265.321 136.936 268.447L136.833 268.729ZM140.626 272.344C144.035 269.116 147.548 265.605 151.06 262.095C151.163 261.813 150.881 261.71 150.984 261.428C147.189 264.836 143.395 268.244 139.601 271.652C133.934 277.571 127.986 283.387 121.756 289.101C127.986 283.387 134.575 278.442 140.523 272.626C140.523 272.626 140.523 272.626 140.626 272.344ZM176.043 285.554C176.861 293.833 178.73 301.856 179.829 310.238C178.73 301.856 177.912 293.577 177.376 285.401C176.66 280.351 175.944 275.302 175.228 270.252C175.125 270.534 174.843 270.432 174.741 270.714C175.175 275.661 175.609 280.607 176.146 285.272C176.043 285.554 176.043 285.554 176.043 285.554ZM297.641 290.544C296.897 293.466 296.153 296.387 295.127 299.207C294.614 300.616 294.101 302.026 293.588 303.435C293.177 304.563 292.664 305.972 292.254 307.1C291.741 308.509 291.048 309.535 290.638 310.662C290.228 311.79 290.099 313.02 289.304 314.327C287.073 319.581 284.457 325.014 281.174 330.523C277.713 335.648 273.764 341.235 268.79 346.129C265.97 348.614 263.15 351.099 259.869 353.098C256.485 355.378 252.639 357.171 248.333 358.477C243.745 359.68 238.695 360.396 233.595 359.497C230.853 359.138 228.213 358.496 226.06 357.394C223.523 356.47 221.089 355.265 219.141 353.598C214.862 350.444 211.454 346.65 209.097 342.6C207.022 338.652 205.332 334.525 204.487 330.706C202.234 322.862 202.159 315.173 202.725 308.355C203.112 301.153 204.626 294.361 206.32 287.954C207.166 284.75 208.398 281.368 209.526 278.267L211.065 274.038L211.886 271.783C212.194 270.937 212.399 270.373 212.707 269.527C214.964 263.325 217.888 257.047 221.658 251.076C225.043 245.284 229.376 239.519 234.837 234.164C237.759 231.396 240.58 228.911 244.245 226.733C247.911 224.556 251.859 222.481 256.729 221.38C261.317 220.177 266.546 219.845 271.928 220.847C277.208 222.13 282.18 224.258 286.075 227.592C288.304 229.361 289.867 231.207 291.43 233.053C292.993 234.898 294.171 236.924 295.068 238.846C297.424 242.896 298.551 246.818 299.498 250.356C301.188 257.994 301.468 265.12 301.004 271.655C300.438 278.473 299.129 284.701 297.641 290.544ZM279.171 257.962C278.429 253.861 277.2 250.221 275.381 247.324C277.2 250.221 278.326 254.143 278.607 257.757C279.067 261.755 279.04 266.215 278.834 270.29L278.731 270.572C277.934 278.902 276.65 287.693 273.572 296.15C276.65 287.693 279.165 279.03 280.064 270.419C280.091 265.959 280.016 261.781 279.171 257.962ZM273.996 249.374C272.997 247.733 271.895 246.375 270.588 245.58C271.895 246.375 272.997 247.733 273.996 249.374C274.995 251.015 275.507 253.117 276.019 255.219C276.941 259.704 276.99 264.83 276.656 270.136C276.321 275.441 275.32 280.823 274.036 286.103C273.395 288.743 272.753 291.383 271.83 293.92C271.188 296.559 270.162 299.379 268.854 302.095C270.162 299.379 271.188 296.559 272.112 294.022C273.035 291.485 273.959 288.948 274.6 286.308C276.268 280.849 277.551 275.57 277.886 270.264C278.221 264.959 277.889 259.73 276.686 255.142C275.892 252.937 274.995 251.015 273.996 249.374ZM269.409 247.066C268.102 246.271 266.692 245.758 265.078 245.809C266.692 245.758 268.102 246.271 269.306 247.348C270.511 248.425 271.894 249.886 272.688 252.091C273.226 253.244 273.661 254.68 273.815 256.012C274.25 257.448 274.403 258.781 274.454 260.395C274.658 263.343 274.76 266.573 274.477 269.981C273.911 276.799 272.679 283.693 270.498 290.562C269.882 292.253 269.549 294.047 268.933 295.739C268.317 297.43 267.702 299.122 266.984 301.095C266.471 302.504 266.06 303.632 265.265 304.939C265.265 304.939 265.265 304.939 265.547 305.042C266.06 303.632 266.573 302.223 266.984 301.095C267.984 299.224 268.599 297.533 269.215 295.841C269.831 294.15 270.446 292.458 271.062 290.767C273.243 283.899 275.141 276.928 275.707 270.11C275.99 266.701 275.889 263.472 275.505 260.14C275.352 258.807 275.019 257.089 274.481 255.936C274.046 254.5 273.892 253.167 273.354 252.014C272.279 249.707 270.895 248.245 269.409 247.066ZM240.103 281.095L238.769 284.76L237.23 288.988C236.819 290.116 236.409 291.244 235.896 292.653C235.357 295.011 234.716 297.651 234.177 300.009C232.996 305.006 232.2 309.825 232.455 314.387C232.428 318.847 232.888 322.845 234.041 325.819C234.758 327.357 235.399 328.229 235.86 328.716C236.5 329.587 236.782 329.69 237.346 329.895C237.346 329.895 237.628 329.998 237.91 330.1C238.192 330.203 238.294 329.921 238.858 330.126C239.525 330.05 240.575 329.794 241.729 329.256C244.139 327.898 247.241 325.515 249.882 322.645C252.522 319.775 255.086 316.239 257.189 312.216C257.779 311.473 258.369 310.73 258.959 309.986C258.984 309.038 259.292 308.192 259.985 307.167C261.806 303.041 263.832 298.351 265.474 293.841C267.218 289.049 268.475 284.717 269.553 280.002C270.631 275.286 271.324 270.749 271.351 266.29C271.378 261.83 270.918 257.831 269.765 254.858C269.048 253.32 268.51 252.166 267.767 251.577C267.588 251.192 267.409 250.808 267.127 250.705C266.845 250.602 266.563 250.5 266.665 250.218C266.102 250.013 265.717 250.192 264.871 249.884C264.487 250.063 264.102 250.243 263.718 250.422C263.051 250.499 262.667 250.678 261.898 251.037C259.206 252.292 256.002 254.956 252.874 258.287C250.028 261.721 247.258 265.821 244.95 270.408C243.847 272.561 242.642 274.996 241.821 277.251C241.026 278.558 240.616 279.685 240.103 281.095ZM216.272 347.446C218.758 350.266 221.73 352.625 225.574 354.343C221.73 352.625 218.86 349.984 216.272 347.446C213.787 344.626 212.071 341.447 210.636 338.371C207.767 332.219 206.693 326.4 206.182 320.787L206.284 320.505C205.773 314.892 205.826 309.484 206.161 304.178C206.88 298.694 207.779 293.593 208.959 288.596C207.779 293.593 206.598 298.591 205.879 304.076C204.878 309.458 204.543 314.763 204.951 320.658L204.849 320.94C205.642 326.656 206.998 332.577 210.149 338.832C211.686 341.626 213.505 344.523 216.272 347.446ZM230.803 354.012C232.776 354.73 235.237 354.987 237.415 355.141C235.237 354.987 232.879 354.448 230.803 354.012C228.445 353.473 226.293 352.37 224.422 351.37C222.372 349.985 220.604 348.703 218.938 347.139C217.375 345.293 215.991 343.832 215.095 341.909C212.815 338.525 211.304 334.783 210.075 331.143C209.127 327.606 208.462 324.171 208.181 320.557L208.284 320.275C207.619 313.329 208.082 306.793 208.828 300.36C209.957 293.748 211.266 287.52 213.524 281.318C211.266 287.52 209.675 293.645 208.264 300.155C207.134 306.767 206.671 313.303 206.951 320.428L207.13 320.813C207.514 324.145 208.076 327.862 209.305 331.502C210.535 335.141 212.046 338.884 214.608 342.371C215.607 344.011 217.17 345.857 218.835 347.421C220.501 348.985 222.269 350.267 224.422 351.37C226.293 352.37 228.445 353.473 230.803 354.012ZM237.288 352.86C242.978 353.016 248.335 351.454 252.667 349.2C248.335 351.454 242.978 353.016 237.288 352.86C231.701 352.423 226.062 350.371 221.988 346.653C217.914 342.935 215.096 338.398 213.508 333.989C211.638 329.477 210.717 324.992 210.462 320.429L210.565 320.148C209.67 311.202 210.57 302.59 212.213 294.569C213.085 290.417 214.24 286.367 215.394 282.318L216.421 279.499L217.447 276.68L218.473 273.861C218.883 272.733 219.191 271.887 219.601 270.76C219.191 271.887 218.883 272.733 218.473 273.861L217.447 276.68L215.394 282.318C213.958 286.265 212.803 290.314 211.649 294.363C209.622 302.565 208.722 311.176 209.232 320.301L209.129 320.583C209.769 324.966 210.588 329.733 212.457 334.245C214.327 338.757 217.427 343.397 221.501 347.114C225.96 350.653 231.598 352.705 237.288 352.86ZM353.796 327.265C356.378 350.871 359.241 374.581 361.619 395.24C362.872 404.954 332.398 401.844 331.247 391.847C329.867 379.852 328.333 366.523 326.62 352.81C316.493 362.214 306.75 371.438 297.982 379.74C290.675 386.658 265.332 369.452 272.536 362.816C287.637 348.519 305.07 332.197 322.222 315.773C319.64 292.166 316.777 268.457 314.297 248.08C313.043 238.365 343.62 241.194 344.771 251.19C346.048 263.467 347.685 276.514 349.398 290.227C359.525 280.823 369.165 271.881 378.036 263.297C385.342 256.379 410.584 273.867 403.379 280.503C388.381 294.519 370.948 310.84 353.796 327.265ZM380.053 290.21C376.822 293.823 373.31 297.334 369.515 300.741C373.31 297.334 377.565 294.413 380.975 291.185L381.078 290.903C384.487 287.674 387.821 283.779 391.333 280.269C387.821 283.779 384.129 286.905 380.053 290.21ZM395.639 278.963C391.153 283.396 386.487 287.444 381.436 291.672C377.231 296.207 372.745 300.64 368.258 305.073C372.745 300.64 377.975 296.797 382.359 292.646L382.461 292.364C386.845 288.213 391.153 283.396 395.639 278.963ZM383.102 293.236C377.154 299.052 371.206 304.869 365.258 310.685C371.206 304.869 377.794 299.924 383.742 294.107L384.024 294.21C389.972 288.393 395.459 282.09 401.689 276.376C395.459 282.09 389.332 287.522 383.102 293.236ZM325.926 270.51C324.928 265.358 324.109 260.59 323.675 255.643C324.109 260.59 324.159 265.717 324.696 270.381L324.593 270.663C325.13 275.328 326.513 280.301 327.229 285.351C326.513 280.301 326.079 275.354 325.926 270.51ZM323.927 270.74C322.776 264.255 321.803 258.155 321.216 251.875C321.803 258.155 322.007 264.614 322.697 270.612L322.594 270.893C323.284 276.891 324.82 283.197 325.408 289.477C324.82 283.197 324.233 276.917 323.927 270.74ZM320.595 271.124C321.413 279.403 323.281 287.425 324.099 295.704C323.281 287.425 322.464 279.147 321.646 270.868C320.546 262.486 319.344 254.386 318.244 246.005C319.344 254.386 319.495 262.742 320.313 271.021C320.313 271.021 320.313 271.021 320.595 271.124ZM353.815 347.385C352.997 342.617 352.178 337.85 351.462 332.8C352.178 337.85 351.946 342.873 352.483 347.538L352.38 347.82C353.199 352.588 354.581 357.56 355.016 362.507C354.581 357.56 354.147 352.614 353.713 347.667L353.815 347.385ZM351.816 347.615C350.921 342.181 350.025 336.747 349.412 331.416C349.641 336.926 349.87 342.437 350.483 347.768C350.381 348.05 350.381 348.05 350.381 348.05C351.353 354.151 352.607 360.354 353.579 366.454C352.607 360.354 352.301 354.176 351.714 347.897L351.816 347.615ZM322.912 321.771C319.015 325.46 314.837 329.047 310.658 332.634L310.555 332.916C306.068 337.349 301.864 341.884 297.198 345.933C301.864 341.884 306.811 337.939 311.477 333.891C311.477 333.891 311.477 333.891 311.58 333.609C315.477 329.919 319.195 325.845 322.912 321.771ZM309.171 331.455C305.659 334.965 302.147 338.476 298.634 341.986C302.147 338.476 306.402 335.555 310.094 332.429L310.196 332.147C313.606 328.919 316.658 324.921 320.452 321.514C316.658 324.921 312.966 328.047 309.274 331.173L309.171 331.455ZM312.964 335.07C316.374 331.842 319.886 328.331 323.398 324.821C323.501 324.539 323.219 324.436 323.322 324.154C319.527 327.562 315.733 330.97 311.939 334.378C306.273 340.297 300.325 346.113 294.095 351.827C300.325 346.113 306.913 341.168 312.861 335.352C312.861 335.352 312.861 335.352 312.964 335.07ZM348.381 348.28C349.199 356.559 351.068 364.582 352.168 372.964C351.068 364.582 350.25 356.303 349.714 348.127C348.998 343.077 348.282 338.028 347.566 332.978C347.463 333.26 347.181 333.158 347.079 333.44C347.513 338.387 347.947 343.333 348.484 347.998C348.381 348.28 348.381 348.28 348.381 348.28ZM469.979 353.27C469.235 356.192 468.491 359.113 467.465 361.932C466.952 363.342 466.439 364.752 465.926 366.161C465.515 367.289 465.002 368.698 464.592 369.826C464.079 371.235 463.387 372.26 462.976 373.388C462.566 374.516 462.437 375.746 461.642 377.053C459.411 382.307 456.795 387.739 453.512 393.249C450.051 398.374 446.102 403.961 441.128 408.855C438.308 411.34 435.488 413.825 432.207 415.824C428.823 418.104 424.978 419.897 420.671 421.203C416.083 422.406 411.034 423.122 405.933 422.223C403.191 421.864 400.551 421.222 398.398 420.119C395.861 419.196 393.427 417.991 391.479 416.324C387.2 413.17 383.792 409.376 381.435 405.326C379.36 401.378 377.67 397.251 376.825 393.432C374.572 385.588 374.497 377.899 375.063 371.081C375.45 363.879 376.964 357.087 378.658 350.68C379.504 347.476 380.736 344.094 381.864 340.993L383.403 336.764L384.224 334.509C384.532 333.663 384.737 333.099 385.045 332.253C387.302 326.051 390.226 319.773 393.996 313.802C397.381 308.01 401.714 302.245 407.175 296.89C410.098 294.122 412.918 291.637 416.584 289.459C420.249 287.282 424.197 285.207 429.067 284.106C433.656 282.903 438.884 282.571 444.267 283.572C449.546 284.856 454.518 286.984 458.413 290.318C460.642 292.087 462.205 293.933 463.768 295.778C465.331 297.624 466.509 299.65 467.406 301.572C469.763 305.622 470.889 309.544 471.836 313.082C473.526 320.72 473.806 327.845 473.342 334.381C472.777 341.199 471.468 347.427 469.979 353.27ZM451.509 320.688C450.767 316.587 449.538 312.947 447.719 310.05C449.538 312.947 450.664 316.869 450.945 320.483C451.405 324.481 451.378 328.941 451.172 333.016L451.07 333.298C450.273 341.628 448.988 350.419 445.91 358.876C448.988 350.419 451.503 341.756 452.402 333.145C452.429 328.685 452.354 324.507 451.509 320.688ZM446.334 312.1C445.335 310.459 444.233 309.101 442.926 308.306C444.233 309.101 445.335 310.459 446.334 312.1C447.333 313.741 447.845 315.843 448.357 317.945C449.279 322.43 449.328 327.556 448.994 332.862C448.659 338.167 447.658 343.549 446.375 348.829C445.733 351.469 445.092 354.109 444.168 356.646C443.527 359.285 442.5 362.105 441.192 364.821C442.5 362.105 443.527 359.285 444.45 356.748C445.373 354.211 446.297 351.674 446.938 349.034C448.606 343.575 449.889 338.296 450.224 332.99C450.559 327.685 450.227 322.456 449.024 317.868C448.23 315.663 447.333 313.741 446.334 312.1ZM441.747 309.792C440.44 308.997 439.03 308.484 437.416 308.535C439.03 308.484 440.44 308.997 441.644 310.074C442.849 311.151 444.232 312.612 445.026 314.817C445.564 315.97 445.999 317.406 446.153 318.738C446.588 320.174 446.741 321.507 446.792 323.121C446.996 326.069 447.098 329.299 446.815 332.707C446.249 339.525 445.017 346.419 442.836 353.288C442.221 354.979 441.887 356.773 441.271 358.465C440.656 360.156 440.04 361.847 439.322 363.821C438.809 365.23 438.398 366.358 437.603 367.665C437.603 367.665 437.603 367.665 437.885 367.768C438.398 366.358 438.911 364.948 439.322 363.821C440.322 361.95 440.938 360.259 441.553 358.567C442.169 356.876 442.784 355.184 443.4 353.493C445.581 346.624 447.479 339.653 448.045 332.836C448.328 329.427 448.227 326.198 447.843 322.865C447.69 321.533 447.357 319.815 446.819 318.662C446.384 317.226 446.231 315.893 445.693 314.74C444.617 312.433 443.233 310.971 441.747 309.792ZM412.441 343.821L411.107 347.486L409.568 351.714C409.158 352.842 408.747 353.97 408.234 355.379C407.695 357.737 407.054 360.377 406.515 362.735C405.334 367.732 404.538 372.551 404.793 377.113C404.766 381.573 405.226 385.571 406.379 388.545C407.096 390.083 407.737 390.954 408.198 391.442C408.838 392.313 409.12 392.416 409.684 392.621C409.684 392.621 409.966 392.724 410.248 392.826C410.53 392.929 410.632 392.647 411.196 392.852C411.863 392.775 412.914 392.519 414.067 391.982C416.477 390.624 419.579 388.241 422.22 385.371C424.86 382.501 427.425 378.965 429.528 374.942C430.117 374.199 430.707 373.455 431.297 372.712C431.323 371.764 431.63 370.918 432.323 369.893C434.144 365.767 436.17 361.077 437.812 356.567C439.556 351.774 440.813 347.443 441.891 342.728C442.969 338.012 443.662 333.475 443.689 329.016C443.716 324.556 443.256 320.557 442.103 317.584C441.386 316.046 440.848 314.892 440.105 314.303C439.926 313.918 439.747 313.533 439.465 313.431C439.183 313.328 438.901 313.226 439.004 312.944C438.44 312.739 438.055 312.918 437.209 312.61C436.825 312.789 436.44 312.969 436.056 313.148C435.39 313.225 435.005 313.404 434.236 313.763C431.544 315.018 428.34 317.682 425.212 321.013C422.366 324.447 419.596 328.547 417.288 333.134C416.186 335.287 414.98 337.722 414.159 339.977C413.364 341.284 412.954 342.411 412.441 343.821ZM388.61 410.172C391.096 412.992 394.068 415.351 397.912 417.069C394.068 415.351 391.198 412.71 388.61 410.172C386.125 407.352 384.409 404.173 382.974 401.097C380.106 394.945 379.031 389.126 378.52 383.513L378.622 383.231C378.111 377.618 378.164 372.21 378.499 366.904C379.218 361.419 380.117 356.319 381.297 351.322C380.117 356.319 378.936 361.317 378.217 366.802C377.216 372.184 376.881 377.489 377.29 383.384L377.187 383.666C377.98 389.382 379.337 395.303 382.487 401.558C384.024 404.352 385.843 407.249 388.61 410.172ZM403.141 416.738C405.115 417.456 407.575 417.713 409.754 417.867C407.575 417.713 405.217 417.174 403.141 416.738C400.783 416.199 398.631 415.096 396.76 414.096C394.71 412.711 392.942 411.429 391.276 409.865C389.713 408.019 388.33 406.558 387.433 404.635C385.153 401.251 383.642 397.509 382.413 393.869C381.465 390.332 380.8 386.897 380.519 383.283L380.622 383.001C379.957 376.055 380.421 369.519 381.166 363.086C382.296 356.474 383.605 350.246 385.862 344.044C383.605 350.246 382.014 356.371 380.602 362.881C379.472 369.493 379.009 376.029 379.289 383.154L379.468 383.539C379.852 386.871 380.414 390.588 381.644 394.228C382.873 397.867 384.384 401.61 386.946 405.097C387.945 406.737 389.508 408.583 391.174 410.147C392.839 411.711 394.607 412.993 396.76 414.096C398.631 415.096 400.783 416.199 403.141 416.738ZM409.626 415.586C415.316 415.742 420.673 414.18 425.006 411.926C420.673 414.18 415.316 415.742 409.626 415.586C404.039 415.149 398.401 413.097 394.326 409.379C390.252 405.661 387.434 401.124 385.846 396.715C383.977 392.203 383.055 387.718 382.8 383.155L382.903 382.873C382.008 373.928 382.908 365.316 384.551 357.294C385.423 353.143 386.578 349.093 387.733 345.044L388.759 342.225L389.785 339.406L390.811 336.587C391.221 335.459 391.529 334.613 391.939 333.486C391.529 334.613 391.221 335.459 390.811 336.587L389.785 339.406L387.733 345.044C386.296 348.991 385.142 353.04 383.987 357.089C381.96 365.291 381.06 373.902 381.57 383.027L381.467 383.309C382.107 387.692 382.926 392.459 384.795 396.971C386.665 401.482 389.765 406.123 393.839 409.84C398.298 413.379 403.936 415.431 409.626 415.586Z" fill="white"/>
</svg>
