<svg width="566" height="544" viewBox="0 0 566 544" fill="none" xmlns="http://www.w3.org/2000/svg">
<path d="M147.84 524.979C128.66 517.998 65.8317 432.379 63.8525 426.883C48.6686 396.598 40.8165 381.606 36.223 372.836L36.2171 372.825L36.2158 372.822L36.2081 372.807L36.2054 372.801L36.2013 372.793C32.9774 366.639 31.3626 363.555 29.9385 360.386L29.8818 360.26C28.4785 357.123 27.2431 353.862 24.8044 347.424L24.7949 347.399L24.7929 347.393L24.7859 347.375C23.6944 344.493 22.3624 340.976 20.6679 336.553C-6.71584 265.072 -6.87856 203.212 20.1222 129.241C33.3026 93.1317 40.336 79.9314 56.1716 61.5828C83.0379 30.4525 113.015 10.9654 144.827 3.95186C167.357 -1.0156 178.263 -2.89696 208.897 8.01363L255.882 25.1146C287.872 36.5085 292.942 43.6159 306.987 63.3056L307.059 63.4066C315.79 75.6462 323.049 91.3374 327.318 106.837C361.983 82.8217 400.833 78.4872 434.415 90.3321L484.215 108.469C528.666 125.501 563.245 171.225 565.421 237.297C566.809 279.447 539.852 358.557 510.654 398.019C472.567 449.496 424.463 481.8 325.739 522.202C325.739 522.202 214.004 549.061 194.825 542.08L147.84 524.979Z" fill="#D18AF2"/>
<path d="M147.84 524.979C128.66 517.998 65.8317 432.379 63.8525 426.883C48.6484 396.558 40.7963 381.566 36.2054 372.801C32.979 366.641 31.3633 363.556 29.9385 360.386C29.9196 360.344 29.9008 360.302 29.8819 360.26C28.4762 357.118 27.239 353.852 24.7928 347.393C23.7001 344.508 22.3661 340.986 20.668 336.553C-6.71577 265.072 -6.87863 203.212 20.1221 129.241C33.3027 93.1317 40.336 79.9315 56.1715 61.5828C83.0378 30.4524 113.015 10.9654 144.827 3.95185C167.357 -1.0156 178.263 -2.89695 208.897 8.01365C240.888 19.4076 245.957 26.5147 260.002 46.2045L260.074 46.3056C270.468 60.8775 278.778 80.3419 282.438 98.551C288.201 113.418 296.359 115.856 296.359 115.856C296.359 115.856 305.756 119.276 320.026 112.232C402.863 46.941 514.47 99.7704 518.436 220.196C519.824 262.346 492.867 341.456 463.67 380.918C425.583 432.395 377.479 464.7 278.755 505.101C278.755 505.101 167.02 531.96 147.84 524.979Z" fill="#E6B2FF"/>
<path d="M63.8525 426.883C65.8317 432.379 128.66 517.998 147.84 524.979C167.02 531.96 278.755 505.101 278.755 505.101C377.479 464.7 425.583 432.395 463.67 380.918C492.867 341.456 519.824 262.346 518.436 220.196C514.47 99.7704 402.863 46.941 320.026 112.232C305.756 119.276 296.359 115.856 296.359 115.856C296.359 115.856 288.201 113.418 282.438 98.551C278.778 80.3419 270.468 60.8775 260.074 46.3056L260.002 46.2045C245.957 26.5147 240.888 19.4076 208.897 8.01365C178.263 -2.89695 167.357 -1.0156 144.827 3.95185C113.015 10.9654 83.0378 30.4524 56.1715 61.5828C40.336 79.9315 33.3027 93.1317 20.1221 129.241C-6.87863 203.212 -6.71577 265.072 20.668 336.553C22.3661 340.986 23.7001 344.508 24.7928 347.393C27.239 353.852 28.4762 357.118 29.8819 360.26C29.9008 360.302 29.9196 360.344 29.9385 360.386C31.3633 363.556 32.979 366.641 36.2054 372.801C40.7963 381.566 48.6484 396.558 63.8525 426.883Z" fill="#E6B2FF"/>
<path opacity="0.99" d="M249.651 163.749C254.33 150.894 273.764 167.673 268.695 180.897C266.068 188.114 263.278 195.782 260.405 203.675C257.306 211.486 254.126 219.523 250.33 227.847C248.319 231.968 246.308 236.089 243.99 240.353C241.446 244.535 238.595 248.861 234.677 253.309C232.647 255.379 230.308 257.593 227.519 259.643C224.504 261.61 220.67 263.024 216.63 263.597C212.508 264.395 208.572 263.984 205.107 262.978C204.205 262.65 203.528 262.404 202.544 262.301C201.724 261.747 201.047 261.501 200.371 261.255C199.469 260.926 198.649 260.372 197.972 260.126C197.521 259.962 197.07 259.798 196.701 259.408L195.43 258.69C192.375 256.557 189.341 253.665 187.313 250.117C185.202 246.794 184.013 243.042 183.42 239.761C183.44 239.002 183.236 238.161 183.256 237.403L183.216 236.111C183.072 235.803 183.011 235.27 183.093 235.045C183.114 234.286 182.909 233.445 182.93 232.687L182.91 230.636C182.931 229.877 183.177 229.201 183.115 228.668L183.403 226.474C183.588 225.264 183.547 223.972 183.732 222.763C185.376 212.634 188.044 203.9 190.63 195.391C193.442 186.964 196.089 178.989 198.962 171.096C201.835 163.202 204.544 155.76 207.253 148.317C211.931 135.462 231.139 152.159 226.296 165.465C223.67 172.682 220.961 180.124 218.395 187.874C215.604 195.542 212.957 203.517 210.843 211.432C209.673 215.348 208.728 219.346 207.866 223.118C207.229 226.973 206.675 230.602 206.899 233.493C206.879 234.252 206.94 234.785 206.919 235.544C207.288 235.934 207.267 236.692 207.411 237C207.698 237.615 207.841 237.923 207.985 238.23C208.354 238.62 208.805 238.784 209.625 239.338C210.752 239.748 211.654 240.077 212.188 240.015C212.864 240.262 213.172 240.118 213.479 239.975C214.013 239.913 214.71 239.401 215.489 238.663C217.274 237.269 219.632 234.297 221.54 231.16C223.448 228.024 225.295 224.354 227.141 220.684C228.988 217.014 230.609 213.262 232.23 209.51C235.554 201.781 238.427 193.888 241.443 186.302C244.234 178.634 247.025 170.966 249.651 163.749ZM192.987 198.037C191.386 203.839 189.785 209.641 188.635 215.608C189.785 209.641 191.694 203.696 193.52 197.975C195.265 192.481 197.317 186.843 199.369 181.204L199.451 180.979C203.022 169.764 206.819 158.631 210.841 147.58C206.819 158.631 202.346 169.518 198.549 180.651L198.467 180.876C196.415 186.514 194.588 192.235 192.987 198.037ZM200.046 181.451C197.009 189.795 194.873 198.468 192.431 207.284C194.873 198.468 197.911 190.124 200.948 181.779L201.03 181.554C203.841 173.127 206.653 164.7 209.69 156.356C206.653 164.7 202.939 172.799 200.128 181.225L200.046 181.451ZM201.624 182.025C199.244 188.566 197.458 195.578 195.529 202.282C197.458 195.578 199.92 188.812 202.526 182.354L202.609 182.128C204.538 175.424 206.693 168.801 209.073 162.261C206.693 168.801 203.861 175.177 201.706 181.8L201.624 182.025ZM221.908 234.359C220.247 236.819 218.667 239.054 216.883 240.447C218.667 239.054 220.472 236.901 222.359 234.523C224.165 232.371 225.908 229.685 227.283 226.61C230.401 220.849 232.556 214.227 235.306 208.076C232.556 214.227 229.725 220.603 226.463 226.056L226.381 226.281C225.088 229.131 223.57 231.899 221.908 234.359ZM218.462 241.022C217.518 242.211 216.206 243.01 215.283 243.441C216.206 243.01 217.518 242.211 218.605 241.33C219.774 240.223 221.025 238.89 222.277 237.558C224.635 234.585 226.933 231.08 228.78 227.41C230.708 223.515 232.329 219.763 234.032 215.785C235.51 211.726 237.213 207.749 238.69 203.689C237.213 207.749 235.51 211.726 233.581 215.621C231.96 219.373 230.032 223.268 227.96 226.856L227.877 227.082C226.031 230.751 224.041 234.114 221.908 237.168C220.8 238.808 219.631 239.915 218.462 241.022ZM230.276 228.21L230.358 227.985C235.487 218.103 239.284 206.97 243.45 196.227C239.284 206.97 234.811 217.857 229.456 227.656L229.374 227.882C226.892 232.597 224.102 237.456 220.963 241.166C219.322 242.868 217.538 244.261 216 244.979C215.077 245.409 214.236 245.614 213.17 245.736C214.236 245.614 215.077 245.409 216 244.979C217.764 244.343 219.466 243.175 221.189 241.248C224.696 237.928 227.712 233.151 230.276 228.21ZM342.783 211.183C342.659 212.926 342.454 214.894 341.797 216.698C341.12 219.261 340.073 221.434 338.576 223.443C337.386 225.309 335.745 227.01 334.186 228.486C333.407 229.224 332.402 229.88 331.705 230.392C331.007 230.905 330.003 231.561 329.305 232.073C327.685 233.016 326.147 233.733 324.383 234.368C321.389 235.577 318.252 236.478 315.197 237.154C312.449 237.686 309.476 238.136 306.81 238.443C303.078 238.873 299.428 239.077 295.86 239.055C300.879 255.44 306.389 273.28 311.306 287.84C312.781 292.208 289.343 296.958 287.725 292.283C284.283 282.091 280.432 270.218 276.888 258.201C273.851 266.545 270.896 274.664 268.187 282.107C265.806 288.647 245.039 276.236 247.501 269.47C258.255 239.926 272.127 201.812 282.88 172.268C284.522 167.757 295.326 172.456 300.717 177.994C304.203 178.241 307.832 178.796 311.154 179.494C315.685 180.377 320.36 181.568 325.3 184.132C327.699 185.261 330.159 186.922 332.537 188.809C333.726 189.753 334.833 190.922 335.94 192.091C336.965 193.486 338.072 194.655 338.789 196.193C340.388 198.818 341.74 202.119 342.251 205.626C342.661 207.307 342.763 209.132 342.783 211.183ZM318.834 209.617C318.691 209.31 318.404 208.695 318.117 208.079C317.461 207.074 315.903 205.741 313.197 204.756C311.844 204.264 310.49 203.771 308.83 203.422C307.169 203.073 305.283 202.642 303.622 202.293C301.428 202.005 299.459 201.799 297.409 201.819C295.849 206.104 294.208 210.615 292.648 214.9C297.118 215.25 301.752 215.149 306.099 214.432C307.166 214.309 308.006 214.105 309.073 213.982L310.446 213.716C310.98 213.654 311.287 213.511 311.82 213.45C313.276 212.958 314.732 212.466 315.963 211.893C317.193 211.319 318.116 210.888 318.506 210.519C318.895 210.151 318.977 209.925 318.977 209.925C318.977 209.925 318.752 209.843 318.834 209.617ZM278.861 241.552C278.636 241.47 278.718 241.244 278.718 241.244C278.636 241.47 278.636 241.47 278.861 241.552ZM277.815 243.725L277.589 243.643L277.815 243.725ZM278.021 238.947C278.103 238.722 277.96 238.414 277.96 238.414C277.96 238.414 277.878 238.64 277.796 238.865C277.796 238.865 277.939 239.173 277.857 239.398C277.939 239.173 278.021 238.947 278.021 238.947ZM276.831 240.813L276.749 241.038C276.893 241.346 277.036 241.654 277.18 241.961L277.262 241.736C277.118 241.428 276.975 241.121 276.831 240.813ZM275.928 243.294C275.846 243.519 275.846 243.519 275.846 243.519C275.908 244.052 276.051 244.36 276.195 244.668C276.133 244.135 275.99 243.827 275.928 243.294ZM276.686 246.124C276.83 246.431 276.748 246.657 276.891 246.964C276.748 246.657 276.83 246.431 276.686 246.124ZM319.943 205.168C318.61 203.917 316.97 202.809 315.022 201.845C313.075 200.881 310.594 199.978 308.031 199.3C304.853 198.91 301.675 198.519 298.64 198.436C298.558 198.662 298.558 198.662 298.558 198.662C301.736 199.052 304.832 199.669 307.621 200.428L307.928 200.285C310.491 200.962 312.829 201.557 314.858 202.296C316.97 202.809 318.61 203.917 319.943 205.168ZM313.936 199.917C315.823 200.348 317.319 201.149 318.816 201.949C316.13 200.205 312.296 198.81 308.38 197.64C305.202 197.249 302.25 196.941 299.215 196.858C302.085 197.392 305.181 198.008 308.052 198.542L308.277 198.624C310.164 199.055 312.05 199.486 313.936 199.917ZM308.647 196.204C305.777 195.67 302.824 195.362 299.789 195.279C302.742 195.588 305.53 196.347 308.319 197.106L308.544 197.189C311.64 197.805 314.901 197.97 317.668 199.488C315.126 198.052 311.969 196.903 308.647 196.204ZM282.772 190.107L282.69 190.332C281.541 193.49 280.761 197.037 279.529 200.42C280.761 197.037 282.218 193.736 283.592 190.661L283.674 190.435C284.598 187.196 285.604 183.731 286.835 180.348C285.604 183.731 283.921 186.95 282.772 190.107ZM281.194 189.532L281.111 189.758C279.634 193.817 278.751 198.349 277.273 202.408C278.751 198.349 280.31 194.064 282.014 190.086L282.096 189.861C283.348 185.719 284.907 181.434 286.467 177.149C284.907 181.434 282.671 185.473 281.194 189.532ZM279.533 189.183C277.563 194.596 275.962 200.398 273.91 206.036C275.962 200.398 278.239 194.842 280.435 189.512L280.517 189.286C282.261 183.791 284.088 178.071 286.14 172.433C284.088 178.071 281.585 183.545 279.615 188.958L279.533 189.183ZM273.815 248.399C272.071 253.893 270.552 259.47 268.664 264.657C270.469 259.696 272.275 254.734 274.307 249.855C274.163 249.547 274.102 249.014 273.815 248.399ZM274.798 251.311C273.793 254.776 272.869 258.015 271.72 261.173C272.787 258.241 273.854 255.309 275.147 252.459C275.003 252.151 274.86 251.844 274.798 251.311ZM274.283 259.041C274.776 257.688 275.269 256.334 275.761 254.981C275.843 254.756 275.7 254.448 275.7 254.448C275.125 256.027 274.858 257.462 274.283 259.041ZM302.475 266.492C301.697 264.421 300.692 262.268 299.996 259.971C300.692 262.268 300.856 264.626 301.552 266.923C302.249 269.219 303.56 271.229 304.257 273.526C303.56 271.229 303.089 269.015 302.619 266.8L302.475 266.492ZM300.937 267.209C299.954 264.298 298.888 261.611 297.905 258.699C298.888 261.611 299.113 264.502 300.096 267.414C300.854 270.244 302.453 272.869 303.436 275.781C302.453 272.869 301.695 270.039 300.937 267.209ZM299.256 267.619C298.067 263.866 296.572 260.257 295.383 256.504C296.572 260.257 297.227 264.071 298.415 267.824L298.333 268.049C299.521 271.802 301.324 275.268 302.738 279.103C301.324 275.268 300.362 271.597 299.481 267.701L299.256 267.619ZM318.847 234.141C320.918 233.362 323.215 232.666 325.368 231.662C323.215 232.666 320.918 233.362 318.704 233.833C317.638 233.956 316.571 234.079 315.423 234.427C314.357 234.55 313.29 234.672 312.45 234.877L312.224 234.795C308.41 235.45 304.432 236.556 300.249 236.821C304.432 236.556 308.389 236.209 312.572 235.943L312.654 235.718L315.484 234.96C316.551 234.837 317.699 234.489 318.847 234.141ZM320.119 232.05C322.19 231.271 324.569 230.349 326.805 229.12C324.569 230.349 322.272 231.046 319.976 231.742C317.228 232.274 314.48 232.807 312.04 233.196C307.16 233.973 302.115 235.202 297.03 235.139C302.115 235.202 307.139 234.732 312.163 234.262C314.685 233.648 317.433 233.115 320.119 232.05ZM327.092 226.926C328.712 225.983 330.271 224.507 331.83 223.031C330.271 224.507 328.569 225.675 326.867 226.844C325.247 227.786 323.483 228.421 321.945 229.139C320.181 229.774 318.5 230.183 316.818 230.593C315.978 230.798 315.137 231.003 314.296 231.207L311.856 231.596L311.63 231.514C305.909 232.497 300.188 233.479 294.345 233.395C300.106 233.705 306.114 233.337 311.979 232.663L312.061 232.437L314.501 232.048C315.116 231.761 316.182 231.639 316.88 231.126C318.561 230.717 320.243 230.307 322.088 229.446C323.626 228.729 325.472 227.868 327.092 226.926ZM119.398 338.03C116.999 336.902 114.6 335.773 112.427 334.727C110.028 333.599 107.855 332.552 105.539 331.198C105.539 331.198 105.313 331.116 105.395 330.891C98.01 342.761 92.0601 354.898 87.3406 366.461C85.9659 369.536 84.0381 370.622 81.6801 370.786C79.1785 370.641 76.5543 369.431 74.2584 367.318C71.737 365.123 69.7695 362.109 68.6427 358.889C67.5979 355.444 67.394 351.794 69.0763 348.575C72.2361 341.297 75.9291 333.958 80.1553 326.557C84.3814 319.156 88.9151 311.611 94.1254 304.313C96.7306 300.664 99.5613 297.097 102.392 293.53C105.305 289.738 108.586 286.335 112.176 282.789C114.042 281.17 115.991 279.325 118.083 277.788C119.17 276.906 120.257 276.025 121.569 275.225L122.266 274.713C122.574 274.57 122.964 274.201 123.579 273.914C124.502 273.483 125.507 272.828 126.43 272.397C130.429 270.533 134.632 269.509 138.795 270.002C142.813 270.188 146.873 271.665 150.214 274.414C150.952 275.193 151.772 275.747 152.285 276.444C152.941 277.449 153.678 278.229 154.191 278.926C154.847 279.931 155.277 280.854 155.933 281.859C156.076 282.166 156.363 282.781 156.425 283.315C156.794 283.704 156.855 284.237 157.142 284.853C157.572 285.775 157.695 286.842 158.043 287.99L158.535 289.446C158.453 289.672 158.596 289.979 158.514 290.205L158.801 290.82C158.985 292.419 159.251 293.793 159.292 295.085C159.823 300.642 159.535 305.645 159.103 310.34C158.157 319.957 156.473 328.794 154.645 337.323C152.51 345.996 150.539 354.218 148.117 362.275C145.696 370.333 143.212 377.857 140.421 385.525C139.19 388.908 136.873 390.363 134.597 390.301C132.013 390.382 129.553 388.721 127.257 386.608C122.522 382.075 118.915 375.144 120.988 368.747C123.8 360.32 126.468 351.586 128.849 342.237C125.774 340.862 122.698 339.487 119.398 338.03ZM129.301 339.592L129.526 339.674C129.691 339.223 129.547 338.915 129.711 338.464C128.051 338.115 126.472 337.54 125.201 336.822C126.472 337.54 127.804 338.792 129.301 339.592ZM130.553 335.45C129.876 335.204 128.974 334.875 128.298 334.629C128.974 334.875 129.63 335.88 130.307 336.127C130.389 335.901 130.471 335.676 130.553 335.45ZM130.286 336.885C129.076 336.7 127.949 336.29 126.821 335.88C127.949 336.29 128.83 337.377 129.958 337.787C130.04 337.562 130.122 337.336 130.286 336.885ZM157.217 307.1C157.382 303.84 157.322 300.498 157.261 297.155C157.322 300.498 157.157 303.758 156.766 306.936C156.355 310.873 155.8 314.502 155.328 317.905L155.246 318.131C154.444 325.246 153.334 332.504 151.856 339.373C153.334 332.504 155.12 325.492 156.455 318.316L156.23 318.234C156.784 314.605 157.114 310.893 157.217 307.1ZM154.782 290.634C154.577 289.793 154.372 288.953 154.168 288.112C154.372 288.953 154.577 289.793 154.782 290.634L154.905 291.7C154.966 292.234 155.11 292.541 155.027 292.767C155.294 294.141 155.334 295.432 155.375 296.724C155.538 299.082 155.619 301.666 155.25 304.085C155.043 308.863 154.468 313.251 153.81 317.864C152.577 326.865 151.119 335.784 148.984 344.457C151.119 335.784 153.254 327.111 154.712 318.192L154.794 317.967C155.226 313.271 155.576 308.801 155.783 304.024C155.845 301.748 155.764 299.164 155.6 296.806C155.56 295.515 155.294 294.141 155.253 292.849C155.11 292.541 154.966 292.234 155.13 291.783L154.782 290.634ZM149.986 282.759C148.818 281.057 147.65 279.355 145.784 278.165C147.65 279.355 148.818 281.057 149.986 282.759C151.072 284.687 151.851 286.758 152.63 288.829L152.814 290.429C153.101 291.044 153.162 291.577 152.998 292.028C153.203 292.869 153.407 293.709 153.387 294.468C153.571 296.068 153.755 297.667 153.631 299.41C153.691 305.561 152.992 311.692 152.15 317.515L152.067 317.74C150.383 329.387 148.165 341.094 145.127 352.248C148.165 341.094 151.059 329.633 153.052 317.843L153.134 317.618C153.751 311.713 154.367 305.807 154.164 299.348C153.98 297.749 153.796 296.15 153.694 294.325C153.715 293.566 153.51 292.725 153.305 291.885C153.162 291.577 153.101 291.044 153.039 290.511L152.63 288.829C152.077 286.84 151.072 284.687 149.986 282.759ZM130.892 298.029C128.246 300.387 125.518 302.969 123.077 306.167C121.519 307.643 120.103 309.427 118.688 311.21C119.139 311.374 119.59 311.539 119.959 311.928C120.636 312.174 121.087 312.339 121.538 312.503C123.711 313.549 125.884 314.596 128.057 315.642C130.005 316.606 131.952 317.57 133.982 318.309C134.27 316.115 134.64 313.696 134.927 311.502C135.339 307.565 135.668 303.854 135.689 300.286C135.587 298.461 135.485 296.636 135.219 295.262L135.158 294.729L134.768 295.098C133.763 295.754 132.369 296.779 130.892 298.029ZM122.254 316.85C121.126 316.44 119.999 316.029 118.871 315.619C119.999 316.029 120.88 317.116 121.926 317.752C123.053 318.163 124.345 318.122 125.391 318.758C124.345 318.122 123.3 317.486 122.254 316.85ZM120.348 314.368C121.168 314.922 121.824 315.927 122.5 316.173L122.726 316.255C123.628 316.584 124.694 316.461 125.514 317.015C124.694 316.461 123.874 315.907 123.054 315.353C122.152 315.025 121.168 314.922 120.348 314.368ZM94.7316 334.927C91.5311 340.913 88.7816 347.064 85.8067 353.132C88.7816 347.064 92.4332 341.242 95.5516 335.481L95.6337 335.255C98.9776 329.576 101.953 323.508 105.83 317.768C101.953 323.508 98.3831 329.105 94.7316 334.927ZM85.0464 358.73C88.3704 351.001 92.822 343.682 97.0482 336.281L97.1303 336.055C101.274 328.88 105.275 321.397 110.096 314.468C105.275 321.397 100.454 328.326 96.2282 335.727C92.2276 343.21 88.3704 351.001 85.0464 358.73ZM98.5448 337.081C104.125 327.363 109.479 317.564 116.474 308.872C109.479 317.564 103.305 326.81 97.7247 336.527L97.6427 336.753C92.2881 346.552 87.6101 356.598 83.6086 366.89C87.6101 356.598 92.9647 346.799 98.5448 337.081ZM121.679 318.429C120.101 317.854 118.522 317.279 117.251 316.561C118.522 317.279 119.629 318.449 121.126 319.249C122.622 320.049 124.365 320.172 125.944 320.747C124.365 320.172 122.951 319.147 121.679 318.429ZM255.974 411.748C256.773 415.87 257.571 419.991 258.452 423.888C259.066 426.41 235.219 429.478 234.686 426.731C234.564 425.664 234.133 424.742 234.01 423.675C231.652 423.839 229.069 423.92 226.649 423.55C224.455 423.262 222.344 422.749 220.622 421.867C218.592 421.128 216.644 420.164 215.086 418.831C211.663 416.308 208.936 413.272 207.051 410.032C205.391 406.874 204.039 403.572 203.363 400.517C201.56 394.242 201.501 388.09 201.953 382.636C202.263 376.874 203.474 371.441 204.829 366.315C205.506 363.752 206.491 361.046 207.394 358.565L208.625 355.182L209.282 353.378C209.528 352.702 209.693 352.251 209.939 351.574C211.745 346.612 214.084 341.59 217.099 336.813C219.807 332.18 223.274 327.567 227.643 323.283C229.981 321.069 232.237 319.081 235.17 317.339C238.102 315.597 241.26 313.937 245.157 313.056C248.827 312.094 253.01 311.828 257.316 312.629C261.54 313.656 265.517 315.359 268.633 318.025C270.416 319.441 271.667 320.917 272.917 322.394C274.167 323.871 275.11 325.491 275.827 327.029C277.713 330.269 278.614 333.407 279.372 336.237C280.723 342.347 280.947 348.048 280.577 353.276C280.124 358.73 279.077 363.713 277.886 368.387C277.291 370.725 276.695 373.062 275.875 375.317C275.464 376.445 275.054 377.573 274.643 378.7C274.315 379.602 273.905 380.73 273.576 381.632C273.166 382.76 272.612 383.58 272.284 384.482C271.955 385.384 271.852 386.368 271.216 387.414C269.431 391.617 267.339 395.963 264.713 400.371C262.333 404.102 259.42 407.894 255.974 411.748ZM235.084 398.27C235.084 398.27 235.084 398.27 235.166 398.045C234.47 395.748 233.466 393.595 233.077 391.155C233.466 393.595 233.855 396.035 234.018 398.393L234.161 398.701C234.469 398.557 234.777 398.414 235.084 398.27ZM233.259 398.372C233.075 396.773 231.907 395.071 231.805 393.246C231.907 395.071 232.317 396.752 232.419 398.577C232.562 398.885 232.48 399.11 232.623 399.418C232.849 399.5 232.931 399.275 233.156 399.357C233.239 399.131 233.239 399.131 233.464 399.213C233.321 398.906 233.403 398.68 233.485 398.454L233.259 398.372ZM231.803 398.864C231.537 397.49 230.512 396.096 230.246 394.722C230.512 396.096 230.778 397.469 230.737 398.987C230.88 399.294 231.024 399.602 231.167 399.91C231.393 399.992 231.7 399.848 232.008 399.705C231.865 399.397 231.721 399.09 231.803 398.864ZM263.11 342.322C262.516 339.041 261.533 336.129 260.078 333.811C261.533 336.129 262.209 339.184 262.659 342.157C263.027 345.356 263.005 348.924 262.841 352.184L262.758 352.41C262.121 359.074 261.094 366.106 258.631 372.872C261.094 366.106 263.105 359.176 263.825 352.287C263.846 348.719 263.786 345.377 263.11 342.322ZM258.97 335.451C258.171 334.139 257.289 333.052 256.244 332.416C257.289 333.052 258.171 334.139 258.97 335.451C259.769 336.764 260.179 338.445 260.589 340.127C261.326 343.715 261.365 347.816 261.098 352.061C260.83 356.305 260.029 360.611 259.002 364.834C258.489 366.946 257.976 369.058 257.237 371.088C256.724 373.2 255.903 375.455 254.857 377.628C255.903 375.455 256.724 373.2 257.463 371.17C258.201 369.14 258.94 367.11 259.453 364.999C260.788 360.632 261.814 356.408 262.082 352.164C262.35 347.919 262.084 343.736 261.122 340.066C260.487 338.302 259.769 336.764 258.97 335.451ZM255.3 333.605C254.255 332.969 253.127 332.559 251.835 332.599C253.127 332.559 254.255 332.969 255.218 333.83C256.182 334.692 257.289 335.861 257.924 337.625C258.354 338.547 258.702 339.696 258.825 340.762C259.173 341.91 259.296 342.977 259.337 344.268C259.5 346.627 259.581 349.21 259.355 351.937C258.902 357.391 257.916 362.907 256.172 368.401C255.679 369.755 255.412 371.19 254.92 372.543C254.427 373.896 253.935 375.249 253.36 376.828C252.95 377.956 252.621 378.858 251.985 379.903C251.985 379.903 251.985 379.903 252.211 379.985C252.621 378.858 253.032 377.73 253.36 376.828C254.16 375.331 254.653 373.978 255.145 372.625C255.638 371.272 256.13 369.919 256.623 368.566C258.367 363.071 259.886 357.494 260.339 352.04C260.565 349.313 260.484 346.729 260.177 344.064C260.055 342.997 259.788 341.624 259.358 340.701C259.01 339.552 258.887 338.486 258.457 337.563C257.596 335.718 256.489 334.548 255.3 333.605ZM231.856 360.828L230.788 363.76L229.557 367.143C229.229 368.045 228.9 368.947 228.49 370.075C228.059 371.961 227.546 374.073 227.115 375.959C226.17 379.957 225.533 383.812 225.737 387.462C225.716 391.03 226.084 394.228 227.006 396.607C227.58 397.838 228.092 398.535 228.461 398.925C228.604 399.232 228.83 399.314 228.973 399.622C227.97 394.66 227.11 390.005 226.086 385.801C225.615 383.586 241.548 381.213 247.679 381.911C247.679 381.911 247.679 381.911 247.761 381.686C249.218 378.385 250.839 374.633 252.152 371.025C253.548 367.191 254.553 363.726 255.416 359.953C256.278 356.181 256.833 352.552 256.854 348.984C256.876 345.416 256.508 342.217 255.586 339.838C255.012 338.608 254.581 337.685 253.987 337.213C253.843 336.906 253.7 336.598 253.475 336.516C253.249 336.434 253.023 336.352 253.106 336.126C252.655 335.962 252.347 336.106 251.67 335.859C251.363 336.003 251.055 336.146 250.747 336.29C250.214 336.351 249.907 336.494 249.292 336.781C247.138 337.785 244.575 339.917 242.072 342.582C239.795 345.329 237.58 348.609 235.733 352.279C234.851 354.001 233.887 355.949 233.23 357.753C232.594 358.798 232.266 359.7 231.856 360.828ZM212.791 413.909C214.779 416.165 217.157 418.052 220.233 419.427C217.157 418.052 214.861 415.939 212.791 413.909C210.803 411.653 209.43 409.11 208.282 406.649C205.987 401.727 205.127 397.072 204.719 392.582L204.801 392.356C204.392 387.866 204.434 383.539 204.702 379.295C205.277 374.907 205.996 370.827 206.941 366.829C205.996 370.827 205.052 374.825 204.476 379.213C203.676 383.518 203.408 387.763 203.734 392.479L203.652 392.704C204.287 397.277 205.372 402.014 207.893 407.018C209.122 409.253 210.577 411.571 212.791 413.909ZM224.416 419.161C225.994 419.736 227.963 419.942 229.706 420.065C227.963 419.942 226.076 419.511 224.416 419.161C222.529 418.73 220.807 417.848 219.311 417.048C217.671 415.94 216.256 414.915 214.924 413.663C213.673 412.187 212.566 411.018 211.849 409.48C210.025 406.772 208.816 403.778 207.833 400.866C207.075 398.037 206.543 395.289 206.318 392.398L206.4 392.172C205.869 386.615 206.239 381.387 206.835 376.24C207.739 370.95 208.786 365.968 210.592 361.006C208.786 365.968 207.514 370.868 206.384 376.076C205.481 381.366 205.11 386.594 205.334 392.295L205.477 392.602C205.784 395.268 206.234 398.241 207.218 401.153C208.201 404.065 209.41 407.059 211.46 409.849C212.259 411.161 213.509 412.638 214.842 413.889C216.174 415.14 217.589 416.166 219.311 417.048C220.807 417.848 222.529 418.73 224.416 419.161ZM229.604 418.24C230.813 418.425 231.88 418.302 232.946 418.18C231.88 418.302 230.895 418.2 229.604 418.24C225.134 417.89 220.623 416.249 217.364 413.275C214.104 410.3 211.85 406.67 210.58 403.143C209.084 399.534 208.347 395.946 208.143 392.296L208.225 392.07C207.509 384.914 208.229 378.024 209.543 371.607C210.241 368.285 211.165 365.046 212.089 361.806L212.91 359.551L213.731 357.296L214.551 355.041C214.88 354.139 215.126 353.462 215.454 352.56C215.126 353.462 214.88 354.139 214.551 355.041L213.731 357.296L212.089 361.806C210.94 364.964 210.016 368.203 209.092 371.443C207.471 378.004 206.751 384.893 207.159 392.193L207.077 392.418C207.588 395.925 208.243 399.739 209.739 403.348C211.235 406.957 213.715 410.669 216.974 413.644C220.541 416.474 225.052 418.116 229.604 418.24ZM250.17 418.574C250.743 419.805 251.01 421.179 251.501 422.635C251.01 421.179 251.277 419.743 251.01 418.37C251.031 417.611 250.744 416.996 250.457 416.38C250.375 416.606 250.068 416.749 250.068 416.749C250.129 417.283 250.108 418.041 250.17 418.574ZM251.851 418.165C252.261 419.846 252.896 421.61 253.223 423.517C252.896 421.61 253.019 419.867 252.692 417.96C252.487 417.119 252.282 416.279 251.852 415.356C251.77 415.581 251.544 415.499 251.462 415.725C251.667 416.565 251.646 417.324 251.626 418.083L251.851 418.165ZM253.451 417.981C254.147 420.277 254.843 422.574 255.314 424.789C254.843 422.574 254.762 419.991 254.373 417.55C254.025 416.402 253.677 415.254 253.329 414.105C253.247 414.331 253.021 414.249 252.939 414.474C253.062 415.541 253.184 416.607 253.533 417.755L253.451 417.981ZM353.734 347.723C357.568 349.118 351.922 372.348 348.088 370.953C342.224 368.818 335.91 366.52 329.369 364.139C319.601 390.977 308.356 421.874 299.326 446.682C296.946 453.222 275.953 440.729 278.415 433.963C286.952 410.508 297.459 381.641 306.817 355.931C301.179 353.879 295.766 351.909 290.804 350.103C286.745 348.625 292.391 325.395 296.224 326.791C313.59 333.111 336.143 341.32 353.734 347.723ZM294.706 329.559C297.864 330.708 301.165 332.165 304.24 333.539L304.465 333.621C307.705 334.545 310.862 335.694 313.876 336.536C310.944 335.469 307.951 333.868 304.794 332.719L304.568 332.637C301.411 331.488 297.864 330.708 294.706 329.559ZM303.316 336.779C305.202 337.21 307.314 337.723 309.344 338.462C307.314 337.723 305.449 336.533 303.644 335.877L303.419 335.795C301.615 335.138 299.421 334.85 297.391 334.111C299.421 334.85 301.368 335.814 303.091 336.697L303.316 336.779ZM303.891 335.2C306.454 335.877 308.934 336.78 311.415 337.683C308.934 336.78 306.7 335.201 304.219 334.298L303.994 334.216C301.513 333.313 298.786 333.087 296.305 332.184C298.786 333.087 301.266 333.989 303.665 335.118L303.891 335.2ZM304.762 369.997C305.911 366.839 306.692 363.292 307.923 359.909C306.692 363.292 305.235 366.593 303.86 369.668C302.854 373.133 301.849 376.598 300.617 379.981C301.849 376.598 303.531 373.379 304.762 369.997ZM306.341 370.571C307.818 366.512 308.701 361.98 310.261 357.695C308.701 361.98 307.142 366.265 305.439 370.243C304.105 374.61 302.545 378.895 301.068 382.954C302.545 378.895 304.781 374.856 306.341 370.571ZM299.434 428.843C300.665 425.46 301.22 421.831 302.369 418.674C301.22 421.831 299.763 425.132 298.306 428.433C297.301 431.898 296.295 435.363 295.146 438.52C296.295 435.363 298.203 432.226 299.434 428.843ZM300.787 429.336C302.347 425.051 303.455 420.601 304.933 416.542C303.455 420.601 301.67 424.804 299.885 429.007C298.551 433.374 297.299 437.516 295.739 441.801C297.299 437.516 299.228 433.621 300.787 429.336ZM302.591 429.992L302.366 429.91L302.591 429.992L302.366 429.91C304.418 424.272 306.019 418.47 307.989 413.057C306.019 418.47 303.741 424.026 301.464 429.582C299.637 435.302 297.893 440.797 295.841 446.435C297.893 440.797 300.314 435.548 302.366 429.91L302.591 429.992ZM307.92 371.146C309.479 366.861 310.895 362.268 312.229 357.901C312.229 357.901 312.229 357.901 312.004 357.819C310.444 362.104 308.803 366.614 307.017 370.817L306.935 371.043C305.191 376.538 303.364 382.258 301.312 387.896C303.364 382.258 305.867 376.784 307.837 371.371L307.92 371.146ZM330.026 362.335C331.83 362.992 333.942 363.505 335.746 364.162C333.942 363.505 332.077 362.315 330.354 361.433C330.19 361.884 330.108 362.11 330.026 362.335ZM330.519 360.982C333.081 361.66 335.419 362.255 337.9 363.158C335.419 362.255 333.102 360.901 330.847 360.08C330.765 360.306 330.683 360.531 330.519 360.982ZM331.175 359.178C334.333 360.327 337.572 361.251 340.955 362.482C337.572 361.251 334.579 359.651 331.504 358.276C331.339 358.727 331.257 358.952 331.175 359.178Z" fill="white"/>
</svg>
