<svg width="566" height="544" viewBox="0 0 566 544" fill="none" xmlns="http://www.w3.org/2000/svg">
<path d="M147.965 525.526C128.786 518.546 65.9572 432.926 63.978 427.43C48.7941 397.145 40.942 382.154 36.3485 373.384L36.3426 373.372L36.3413 373.369L36.3336 373.354L36.3309 373.349L36.3267 373.341C33.1029 367.186 31.4881 364.102 30.0639 360.933L30.0073 360.807C28.604 357.671 27.3686 354.409 24.9299 347.971L24.9204 347.946L24.9184 347.941L24.9114 347.922C23.8199 345.04 22.4879 341.524 20.7934 337.101C-6.59035 265.62 -6.75307 203.759 20.2477 129.788C33.4281 93.6791 40.4615 80.4788 56.2971 62.1302C83.1634 30.9999 113.141 11.5127 144.952 4.49922C167.483 -0.468233 178.388 -2.3496 209.022 8.56099L256.007 25.662C287.998 37.0559 293.068 44.1633 307.112 63.853L307.184 63.9539C315.915 76.1935 323.175 91.8847 327.444 107.384C362.109 83.3691 400.958 79.0346 434.54 90.8795L484.34 109.016C528.792 126.048 563.371 171.772 565.546 237.845C566.934 279.994 539.977 359.104 510.78 398.566C472.693 450.043 424.589 482.348 325.865 522.749C325.865 522.749 214.13 549.608 194.95 542.627L147.965 525.526Z" fill="#F28AD6"/>
<path d="M147.965 525.526C128.786 518.545 65.9572 432.926 63.978 427.43C48.7739 397.105 40.9218 382.114 36.3309 373.348C33.1045 367.189 31.4888 364.104 30.064 360.933C30.045 360.891 30.0263 360.849 30.0074 360.807C28.6017 357.666 27.3645 354.399 24.9183 347.941C23.8256 345.055 22.4916 341.533 20.7935 337.101C-6.59028 265.62 -6.75314 203.759 20.2476 129.788C33.4282 93.679 40.4615 80.4788 56.297 62.1301C83.1633 30.9998 113.141 11.5128 144.952 4.49921C167.483 -0.468241 178.388 -2.34959 209.022 8.56101C241.013 19.955 246.083 27.062 260.128 46.7518L260.2 46.853C270.594 61.4249 278.903 80.8893 282.564 99.0983C288.326 113.966 296.485 116.403 296.485 116.403C296.485 116.403 305.882 119.823 320.151 112.779C402.989 47.4884 514.596 100.318 518.562 220.744C519.95 262.893 492.993 342.003 463.795 381.465C425.708 432.942 377.604 465.247 278.88 505.648C278.88 505.648 167.145 532.507 147.965 525.526Z" fill="#FFB2E9"/>
<path d="M63.978 427.43C65.9572 432.926 128.786 518.545 147.965 525.526C167.145 532.507 278.88 505.648 278.88 505.648C377.604 465.247 425.708 432.942 463.795 381.465C492.993 342.003 519.95 262.893 518.562 220.744C514.596 100.318 402.989 47.4884 320.151 112.779C305.882 119.823 296.485 116.403 296.485 116.403C296.485 116.403 288.326 113.966 282.564 99.0983C278.903 80.8893 270.594 61.4249 260.2 46.853L260.128 46.7518C246.083 27.062 241.013 19.955 209.022 8.56101C178.388 -2.34959 167.483 -0.468241 144.952 4.49921C113.141 11.5128 83.1633 30.9998 56.297 62.1301C40.4615 80.4788 33.4282 93.679 20.2476 129.788C-6.75314 203.759 -6.59028 265.62 20.7935 337.101C22.4916 341.533 23.8256 345.055 24.9183 347.941C27.3645 354.399 28.6017 357.666 30.0074 360.807C30.0263 360.849 30.045 360.891 30.064 360.933C31.4888 364.104 33.1045 367.189 36.3309 373.348C40.9218 382.114 48.7739 397.105 63.978 427.43Z" fill="#FFB2E9"/>
<g opacity="0.99">
<path d="M121.266 223.983C124.02 249.163 127.074 274.453 129.61 296.489C130.947 306.851 98.4412 303.534 97.2141 292.871C95.7415 280.076 94.1054 265.859 92.2779 251.231C81.4759 261.262 71.084 271.101 61.7313 279.956C53.9374 287.336 26.9041 268.983 34.5886 261.904C50.696 246.653 69.2919 229.244 87.5872 211.725C84.8333 186.544 81.7788 161.254 79.1333 139.519C77.7967 129.157 110.412 132.174 111.639 142.836C113.002 155.932 114.748 169.849 116.575 184.476C127.377 174.445 137.66 164.907 147.122 155.751C154.916 148.372 181.839 167.025 174.155 174.104C158.157 189.054 139.561 206.463 121.266 223.983ZM149.273 184.458C145.827 188.312 142.081 192.056 138.033 195.691C142.081 192.056 146.62 188.941 150.257 185.497L150.366 185.196C154.004 181.753 157.559 177.598 161.306 173.854C157.559 177.598 153.621 180.932 149.273 184.458ZM165.899 172.461C161.113 177.189 156.136 181.507 150.749 186.017C146.264 190.855 141.478 195.583 136.692 200.311C141.478 195.583 147.056 191.484 151.733 187.056L151.842 186.755C156.519 182.328 161.113 177.189 165.899 172.461ZM152.525 187.685C146.181 193.889 139.836 200.093 133.492 206.298C139.836 200.093 146.864 194.819 153.209 188.615L153.509 188.724C159.854 182.52 165.707 175.796 172.352 169.701C165.707 175.796 159.171 181.59 152.525 187.685ZM91.5383 163.444C90.4737 157.949 89.6003 152.863 89.1371 147.587C89.6003 152.863 89.6534 158.331 90.2261 163.307L90.1166 163.608C90.6893 168.584 92.164 173.888 92.928 179.274C92.164 173.888 91.7008 168.611 91.5383 163.444ZM89.4058 163.69C88.1775 156.772 87.1405 150.265 86.5137 143.567C87.1405 150.265 87.3572 157.155 88.0935 163.553L87.9841 163.853C88.7203 170.251 90.3587 176.977 90.9856 183.675C90.3587 176.977 89.7319 170.279 89.4058 163.69ZM85.8515 164.099C86.7238 172.93 88.717 181.487 89.5893 190.318C88.717 181.487 87.8448 172.657 86.9725 163.826C85.7995 154.885 84.5171 146.246 83.3442 137.305C84.5171 146.246 84.6786 155.158 85.5508 163.989C85.5508 163.989 85.5508 163.989 85.8515 164.099ZM121.287 245.444C120.413 240.359 119.54 235.273 118.776 229.887C119.54 235.273 119.292 240.632 119.865 245.608L119.756 245.908C120.629 250.994 122.104 256.298 122.567 261.575C122.104 256.298 121.641 251.021 121.177 245.745L121.287 245.444ZM119.154 245.689C118.199 239.893 117.244 234.097 116.589 228.41C116.834 234.288 117.078 240.166 117.733 245.853C117.623 246.154 117.623 246.154 117.623 246.154C118.66 252.661 119.998 259.277 121.035 265.785C119.998 259.277 119.672 252.689 119.045 245.99L119.154 245.689ZM88.3235 218.122C84.1667 222.058 79.7093 225.884 75.2518 229.71L75.1424 230.011C70.3566 234.739 65.8715 239.577 60.8944 243.895C65.8715 239.577 71.1492 235.368 76.1263 231.05C76.1263 231.05 76.1263 231.05 76.2357 230.749C80.3925 226.814 84.358 222.468 88.3235 218.122ZM73.6665 228.452C69.9199 232.197 66.1733 235.941 62.4267 239.685C66.1733 235.941 70.7125 232.826 74.6504 229.491L74.7598 229.191C78.397 225.747 81.6517 221.483 85.699 217.848C81.6517 221.483 77.7138 224.817 73.7759 228.151L73.6665 228.452ZM77.7116 232.308C81.3487 228.865 85.0954 225.12 88.842 221.376C88.9514 221.075 88.6507 220.966 88.7602 220.665C84.7128 224.3 80.6655 227.935 76.6182 231.57C70.5743 237.883 64.2298 244.088 57.5845 250.182C64.2298 244.088 71.2576 238.813 77.6021 232.609C77.6021 232.609 77.6021 232.609 77.7116 232.308ZM115.491 246.399C116.363 255.23 118.356 263.788 119.529 272.728C118.356 263.788 117.484 254.957 116.912 246.236C116.148 240.849 115.384 235.463 114.62 230.077C114.511 230.378 114.21 230.269 114.101 230.569C114.564 235.846 115.027 241.123 115.6 246.099C115.491 246.399 115.491 246.399 115.491 246.399Z" fill="white"/>
<path d="M245.195 251.722C244.401 254.838 243.607 257.955 242.513 260.962C241.966 262.465 241.418 263.969 240.871 265.472C240.433 266.675 239.886 268.178 239.448 269.381C238.901 270.885 238.163 271.978 237.725 273.181C237.287 274.384 237.15 275.696 236.302 277.09C233.922 282.694 231.131 288.489 227.63 294.366C223.938 299.833 219.726 305.792 214.42 311.012C211.412 313.663 208.404 316.314 204.904 318.445C201.295 320.878 197.193 322.79 192.6 324.183C187.706 325.467 182.319 326.23 176.879 325.272C173.954 324.888 171.138 324.204 168.842 323.028C166.136 322.043 163.539 320.757 161.462 318.979C156.897 315.615 153.262 311.568 150.748 307.248C148.535 303.037 146.732 298.634 145.831 294.561C143.427 286.194 143.348 277.992 143.951 270.72C144.364 263.038 145.979 255.793 147.785 248.959C148.688 245.542 150.002 241.933 151.206 238.626L153.723 231.71C154.051 230.807 154.27 230.206 154.598 229.304C157.006 222.688 160.125 215.991 164.146 209.622C167.756 203.445 172.379 197.295 178.204 191.582C181.321 188.631 184.329 185.98 188.239 183.657C192.15 181.334 196.361 179.121 201.555 177.947C206.45 176.663 212.027 176.31 217.768 177.378C223.399 178.746 228.703 181.017 232.857 184.572C235.235 186.459 236.902 188.428 238.569 190.397C240.236 192.366 241.493 194.526 242.45 196.577C244.964 200.898 246.165 205.081 247.176 208.854C248.978 217.002 249.276 224.602 248.782 231.574C248.179 238.846 246.782 245.489 245.195 251.722ZM225.493 216.967C224.702 212.593 223.391 208.71 221.45 205.62C223.391 208.71 224.592 212.894 224.892 216.749C225.383 221.014 225.354 225.771 225.134 230.118L225.025 230.418C224.174 239.303 222.805 248.68 219.521 257.701C222.805 248.68 225.487 239.44 226.446 230.255C226.475 225.498 226.394 221.041 225.493 216.967ZM219.973 207.807C221.039 209.557 221.585 211.799 222.131 214.041C223.114 218.826 223.167 224.294 222.81 229.953C222.453 235.612 221.385 241.353 220.017 246.984C219.332 249.8 218.648 252.616 217.663 255.322C216.979 258.138 215.884 261.145 214.489 264.043C215.884 261.145 216.979 258.138 217.964 255.432C218.949 252.725 219.934 250.019 220.618 247.203C222.397 241.381 223.765 235.749 224.122 230.09C224.48 224.431 224.126 218.853 222.842 213.959C221.995 211.608 221.039 209.557 219.973 207.807ZM215.08 205.345C213.686 204.497 212.183 203.95 210.46 204.004C212.183 203.95 213.686 204.497 214.971 205.646C216.256 206.794 217.731 208.353 218.578 210.705C219.152 211.935 219.616 213.466 219.78 214.888C220.244 216.419 220.408 217.841 220.462 219.563C220.68 222.707 220.788 226.152 220.486 229.788C219.883 237.06 218.568 244.414 216.242 251.74C215.586 253.545 215.23 255.458 214.573 257.263C213.916 259.067 213.26 260.871 212.493 262.976C211.946 264.479 211.508 265.682 210.661 267.076C210.661 267.076 210.661 267.076 210.961 267.186C211.508 265.682 212.056 264.179 212.493 262.976C213.56 260.98 214.217 259.176 214.874 257.372C215.53 255.568 216.187 253.764 216.844 251.959C219.17 244.633 221.195 237.197 221.799 229.925C222.1 226.289 221.992 222.844 221.583 219.29C221.419 217.868 221.065 216.037 220.491 214.806C220.026 213.275 219.863 211.853 219.289 210.623C218.142 208.162 216.666 206.603 215.08 205.345ZM183.821 241.643L180.756 250.062C180.318 251.265 179.881 252.468 179.333 253.971C178.759 256.486 178.074 259.302 177.499 261.817C176.24 267.148 175.391 272.288 175.663 277.154C175.634 281.911 176.125 286.176 177.355 289.348C178.12 290.989 178.803 291.918 179.295 292.438C179.978 293.368 180.279 293.477 180.88 293.696C180.88 293.696 181.181 293.806 181.481 293.915C181.782 294.024 181.892 293.724 182.493 293.943C183.204 293.861 184.325 293.588 185.555 293.014C188.126 291.566 191.434 289.024 194.251 285.963C197.068 282.902 199.803 279.13 202.046 274.838C202.675 274.045 203.304 273.253 203.933 272.46C203.961 271.449 204.289 270.546 205.028 269.453C206.97 265.052 209.132 260.05 210.883 255.238C212.743 250.126 214.084 245.506 215.234 240.476C216.384 235.446 217.123 230.607 217.152 225.85C217.181 221.093 216.69 216.828 215.461 213.656C214.696 212.016 214.122 210.785 213.329 210.156C213.138 209.746 212.947 209.336 212.646 209.227C212.345 209.117 212.045 209.008 212.154 208.707C211.553 208.488 211.143 208.679 210.24 208.351C209.83 208.542 209.42 208.733 209.01 208.925C208.299 209.007 207.889 209.198 207.069 209.58C204.198 210.919 200.779 213.761 197.443 217.315C194.407 220.977 191.453 225.351 188.991 230.244C187.815 232.54 186.529 235.137 185.654 237.542C184.806 238.936 184.368 240.139 183.821 241.643ZM158.401 312.417C161.053 315.425 164.223 317.941 168.324 319.774C164.223 317.941 161.162 315.124 158.401 312.417C155.75 309.409 153.92 306.018 152.39 302.737C149.33 296.175 148.183 289.968 147.638 283.981L147.748 283.68C147.203 277.693 147.259 271.924 147.616 266.265C148.383 260.414 149.342 254.974 150.601 249.643C149.342 254.974 148.083 260.305 147.315 266.155C146.247 271.896 145.89 277.555 146.326 283.844L146.216 284.144C147.062 290.241 148.509 296.557 151.87 303.229C153.51 306.209 155.45 309.299 158.401 312.417ZM173.901 319.42C176.006 320.187 178.63 320.461 180.954 320.625C178.63 320.461 176.115 319.886 173.901 319.42C171.386 318.846 169.09 317.669 167.094 316.602C164.907 315.125 163.021 313.758 161.245 312.09C159.578 310.121 158.102 308.562 157.146 306.511C154.713 302.902 153.102 298.91 151.79 295.027C150.78 291.254 150.07 287.59 149.771 283.735L149.88 283.435C149.171 276.025 149.666 269.054 150.461 262.192C151.666 255.139 153.062 248.496 155.47 241.88C153.062 248.496 151.365 255.029 149.859 261.973C148.654 269.026 148.16 275.998 148.458 283.598L148.65 284.008C149.059 287.563 149.659 291.527 150.97 295.41C152.281 299.292 153.893 303.284 156.626 307.003C157.692 308.753 159.359 310.722 161.135 312.39C162.912 314.059 164.798 315.426 167.094 316.602C169.09 317.669 171.386 318.846 173.901 319.42ZM180.818 318.192C174.858 317.726 168.844 315.537 164.498 311.571C160.153 307.606 157.147 302.766 155.453 298.063C153.459 293.251 152.476 288.466 152.204 283.599L152.313 283.299C151.359 273.757 152.319 264.571 154.071 256.014C155.002 251.586 156.234 247.266 157.465 242.947C155.933 247.157 154.701 251.476 153.47 255.796C151.307 264.544 150.348 273.729 150.892 283.462L150.782 283.763C151.464 288.438 152.338 293.524 154.332 298.336C156.326 303.148 159.633 308.098 163.979 312.063C168.735 315.837 174.749 318.026 180.818 318.192Z" fill="white"/>
<path d="M305.093 290.89C307.847 316.071 310.902 341.361 313.438 363.397C314.774 373.759 282.269 370.441 281.041 359.779C279.569 346.983 277.933 332.766 276.105 318.139C265.303 328.17 254.911 338.009 245.559 346.864C237.765 354.243 210.731 335.89 218.416 328.812C234.523 313.561 253.119 296.151 271.415 278.632C268.661 253.452 265.606 228.162 262.961 206.426C261.624 196.064 294.239 199.081 295.466 209.744C296.829 222.84 298.575 236.756 300.402 251.383C311.204 241.353 321.487 231.815 330.949 222.659C338.743 215.279 365.667 233.933 357.982 241.011C341.984 255.961 323.388 273.371 305.093 290.89ZM333.1 251.366C329.654 255.22 325.908 258.964 321.861 262.599C325.908 258.964 330.447 255.849 334.084 252.405L334.194 252.104C337.831 248.66 341.386 244.506 345.133 240.762C341.386 244.506 337.448 247.84 333.1 251.366ZM349.726 239.369C344.94 244.097 339.963 248.415 334.576 252.924C330.091 257.762 325.305 262.491 320.52 267.219C325.305 262.491 330.884 258.391 335.56 253.964L335.67 253.663C340.346 249.235 344.94 244.097 349.726 239.369ZM336.353 254.593C330.008 260.797 323.664 267.001 317.319 273.205C323.664 267.001 330.691 261.727 337.036 255.522L337.337 255.632C343.681 249.428 349.534 242.704 356.179 236.609C349.534 242.704 342.998 248.498 336.353 254.593ZM275.366 230.352C274.301 224.856 273.428 219.771 272.964 214.494C273.428 219.771 273.481 225.239 274.053 230.215L273.944 230.516C274.517 235.492 275.991 240.796 276.755 246.182C275.991 240.796 275.528 235.519 275.366 230.352ZM273.233 230.597C272.005 223.68 270.968 217.173 270.341 210.475C270.968 217.173 271.185 224.063 271.921 230.46L271.811 230.761C272.548 237.159 274.186 243.885 274.813 250.583C274.186 243.885 273.559 237.186 273.233 230.597ZM269.679 231.006C270.551 239.837 272.544 248.395 273.417 257.226C272.544 248.395 271.672 239.564 270.8 230.733C269.627 221.793 268.345 213.153 267.172 204.213C268.345 213.153 268.506 222.066 269.378 230.897C269.378 230.897 269.378 230.897 269.679 231.006ZM305.114 312.352C304.241 307.266 303.367 302.181 302.604 296.795C303.367 302.181 303.12 307.539 303.692 312.515L303.583 312.816C304.456 317.901 305.931 323.206 306.394 328.482C305.931 323.206 305.468 317.929 305.005 312.652L305.114 312.352ZM302.982 312.597C302.026 306.801 301.071 301.005 300.417 295.318C300.661 301.196 300.905 307.074 301.56 312.761C301.45 313.061 301.45 313.061 301.45 313.061C302.487 319.569 303.825 326.185 304.862 332.692C303.825 326.185 303.499 319.596 302.872 312.898L302.982 312.597ZM272.151 285.03C267.994 288.966 263.537 292.792 259.079 296.618L258.97 296.919C254.184 301.647 249.699 306.485 244.722 310.803C249.699 306.485 254.977 302.276 259.954 297.958C259.954 297.958 259.954 297.958 260.063 297.657C264.22 293.721 268.185 289.376 272.151 285.03ZM257.494 295.36C253.747 299.104 250.001 302.849 246.254 306.593C250.001 302.849 254.54 299.733 258.478 296.399L258.587 296.098C262.224 292.655 265.479 288.391 269.526 284.756C265.479 288.391 261.541 291.725 257.603 295.059L257.494 295.36ZM261.539 299.216C265.176 295.772 268.923 292.028 272.669 288.283C272.779 287.983 272.478 287.873 272.588 287.573C268.54 291.208 264.493 294.842 260.446 298.477C254.402 304.791 248.057 310.995 241.412 317.09C248.057 310.995 255.085 305.721 261.429 299.517C261.429 299.517 261.429 299.517 261.539 299.216ZM299.318 313.307C300.19 322.138 302.183 330.696 303.356 339.636C302.183 330.696 301.311 321.865 300.74 313.143C299.976 307.757 299.212 302.371 298.448 296.985C298.338 297.286 298.038 297.176 297.928 297.477C298.391 302.754 298.855 308.03 299.427 313.006C299.318 313.307 299.318 313.307 299.318 313.307Z" fill="white"/>
<path d="M429.022 318.629C428.228 321.746 427.435 324.862 426.34 327.869C425.793 329.373 425.246 330.876 424.698 332.38C424.261 333.583 423.713 335.086 423.276 336.289C422.728 337.792 421.99 338.886 421.552 340.089C421.114 341.291 420.977 342.604 420.129 343.998C417.749 349.602 414.959 355.397 411.458 361.274C407.765 366.74 403.553 372.699 398.248 377.92C395.24 380.571 392.232 383.222 388.731 385.353C385.122 387.785 381.02 389.698 376.427 391.091C371.533 392.374 366.147 393.138 360.707 392.18C357.781 391.796 354.966 391.112 352.669 389.935C349.963 388.95 347.366 387.665 345.289 385.887C340.724 382.523 337.089 378.476 334.575 374.155C332.362 369.944 330.559 365.542 329.658 361.468C327.255 353.102 327.175 344.9 327.779 337.628C328.191 329.945 329.806 322.701 331.613 315.867C332.516 312.45 333.829 308.841 335.033 305.533L337.55 298.617C337.879 297.715 338.097 297.114 338.426 296.212C340.834 289.596 343.952 282.899 347.973 276.53C351.584 270.352 356.206 264.202 362.031 258.49C365.148 255.538 368.157 252.887 372.067 250.565C375.977 248.242 380.188 246.029 385.383 244.855C390.277 243.571 395.854 243.217 401.595 244.285C407.227 245.654 412.53 247.925 416.685 251.48C419.062 253.367 420.73 255.336 422.397 257.305C424.064 259.274 425.321 261.434 426.277 263.485C428.791 267.805 429.993 271.989 431.003 275.762C432.805 283.909 433.104 291.51 432.61 298.481C432.006 305.753 430.61 312.396 429.022 318.629ZM409.321 283.875C408.529 279.501 407.218 275.618 405.278 272.528C407.218 275.618 408.42 279.801 408.719 283.656C409.21 287.921 409.181 292.678 408.961 297.025L408.852 297.326C408.002 306.211 406.632 315.588 403.349 324.609C406.632 315.588 409.314 306.348 410.274 297.162C410.302 292.405 410.222 287.949 409.321 283.875ZM403.801 274.715C404.867 276.465 405.413 278.707 405.959 280.949C406.942 285.733 406.995 291.201 406.638 296.861C406.28 302.52 405.213 308.261 403.844 313.892C403.16 316.708 402.475 319.524 401.49 322.23C400.806 325.046 399.711 328.053 398.316 330.95C399.711 328.053 400.806 325.046 401.791 322.339C402.776 319.633 403.761 316.927 404.445 314.111C406.224 308.288 407.593 302.657 407.95 296.998C408.307 291.338 407.953 285.761 406.67 280.867C405.823 278.516 404.867 276.465 403.801 274.715ZM398.908 272.253C397.514 271.405 396.01 270.858 394.288 270.912C396.01 270.858 397.514 271.405 398.798 272.553C400.083 273.702 401.559 275.261 402.406 277.612C402.979 278.843 403.444 280.374 403.607 281.796C404.072 283.327 404.235 284.748 404.289 286.471C404.507 289.615 404.616 293.06 404.314 296.696C403.71 303.968 402.396 311.322 400.07 318.648C399.413 320.452 399.057 322.366 398.4 324.17C397.744 325.974 397.087 327.779 396.321 329.884C395.774 331.387 395.336 332.59 394.488 333.984C394.488 333.984 394.488 333.984 394.789 334.093C395.336 332.59 395.883 331.086 396.321 329.884C397.388 327.888 398.044 326.084 398.701 324.28C399.358 322.475 400.014 320.671 400.671 318.867C402.997 311.541 405.022 304.105 405.626 296.833C405.928 293.197 405.819 289.752 405.41 286.198C405.247 284.776 404.892 282.944 404.318 281.714C403.854 280.183 403.69 278.761 403.116 277.531C401.969 275.07 400.493 273.511 398.908 272.253ZM367.648 308.55L364.584 316.97C364.146 318.173 363.708 319.376 363.161 320.879C362.586 323.394 361.902 326.21 361.327 328.725C360.068 334.056 359.218 339.195 359.49 344.062C359.462 348.819 359.953 353.084 361.182 356.256C361.947 357.896 362.63 358.826 363.122 359.346C363.805 360.275 364.106 360.385 364.707 360.604C364.707 360.604 365.008 360.713 365.309 360.823C365.609 360.932 365.719 360.631 366.32 360.85C367.031 360.768 368.152 360.495 369.383 359.922C371.953 358.473 375.262 355.932 378.079 352.871C380.896 349.809 383.631 346.037 385.874 341.746C386.503 340.953 387.132 340.16 387.761 339.368C387.788 338.356 388.117 337.454 388.855 336.361C390.798 331.96 392.959 326.957 394.71 322.146C396.571 317.034 397.912 312.414 399.061 307.384C400.211 302.354 400.951 297.515 400.979 292.758C401.008 288.001 400.517 283.736 399.288 280.564C398.523 278.923 397.949 277.693 397.157 277.064C396.965 276.654 396.774 276.244 396.473 276.134C396.173 276.025 395.872 275.915 395.981 275.615C395.38 275.396 394.97 275.587 394.068 275.259C393.658 275.45 393.247 275.641 392.837 275.832C392.126 275.914 391.716 276.105 390.896 276.488C388.025 277.827 384.607 280.669 381.27 284.222C378.235 287.885 375.281 292.258 372.819 297.151C371.642 299.447 370.357 302.044 369.481 304.45C368.633 305.844 368.195 307.047 367.648 308.55ZM342.229 379.325C344.88 382.333 348.051 384.849 352.151 386.682C348.051 384.849 344.989 382.032 342.229 379.325C339.578 376.317 337.747 372.926 336.217 369.645C333.157 363.082 332.011 356.876 331.465 350.888L331.575 350.588C331.03 344.6 331.086 338.832 331.443 333.172C332.211 327.322 333.169 321.882 334.428 316.551C333.169 321.882 331.91 327.213 331.143 333.063C330.075 338.804 329.718 344.463 330.153 350.751L330.044 351.052C330.89 357.149 332.337 363.465 335.697 370.137C337.337 373.117 339.277 376.207 342.229 379.325ZM357.728 386.328C359.833 387.094 362.458 387.368 364.781 387.533C362.458 387.368 359.943 386.794 357.728 386.328C355.213 385.753 352.917 384.577 350.922 383.51C348.735 382.033 346.849 380.666 345.072 378.997C343.405 377.028 341.929 375.47 340.973 373.419C338.541 369.809 336.929 365.817 335.618 361.935C334.607 358.162 333.898 354.498 333.598 350.643L333.707 350.342C332.999 342.933 333.493 335.962 334.288 329.1C335.493 322.047 336.889 315.403 339.297 308.788C336.889 315.403 335.192 321.937 333.686 328.881C332.481 335.934 331.987 342.905 332.286 350.506L332.477 350.916C332.886 354.47 333.486 358.435 334.798 362.317C336.109 366.2 337.721 370.192 340.453 373.911C341.519 375.661 343.186 377.63 344.963 379.298C346.739 380.966 348.625 382.334 350.922 383.51C352.917 384.577 355.213 385.753 357.728 386.328ZM364.645 385.1C358.686 384.633 352.672 382.444 348.326 378.479C343.98 374.513 340.974 369.673 339.28 364.971C337.286 360.158 336.303 355.374 336.031 350.507L336.141 350.206C335.187 340.665 336.146 331.479 337.898 322.922C338.829 318.493 340.061 314.174 341.292 309.855C339.76 314.065 338.529 318.384 337.297 322.703C335.135 331.451 334.175 340.637 334.719 350.37L334.61 350.671C335.292 355.346 336.165 360.431 338.159 365.244C340.154 370.056 343.46 375.005 347.806 378.971C352.562 382.745 358.576 384.934 364.645 385.1Z" fill="white"/>
</g>
</svg>
