<svg width="566" height="544" viewBox="0 0 566 544" fill="none" xmlns="http://www.w3.org/2000/svg">
<path d="M147.84 524.979C128.66 517.998 65.8317 432.379 63.8525 426.883C48.6686 396.598 40.8165 381.606 36.223 372.836L36.2171 372.825L36.2158 372.822L36.2081 372.807L36.2054 372.801L36.2013 372.793C32.9774 366.639 31.3626 363.555 29.9385 360.386L29.8818 360.26C28.4785 357.123 27.2431 353.862 24.8044 347.424L24.7949 347.399L24.7929 347.393L24.7859 347.375C23.6944 344.493 22.3624 340.976 20.6679 336.553C-6.71584 265.072 -6.87856 203.212 20.1222 129.241C33.3026 93.1317 40.336 79.9314 56.1716 61.5828C83.0379 30.4525 113.015 10.9654 144.827 3.95186C167.357 -1.0156 178.263 -2.89696 208.897 8.01363L255.882 25.1146C287.872 36.5085 292.942 43.6159 306.987 63.3056L307.059 63.4066C315.79 75.6462 323.049 91.3374 327.318 106.837C361.983 82.8217 400.833 78.4872 434.415 90.3321L484.215 108.469C528.666 125.501 563.245 171.225 565.421 237.297C566.809 279.447 539.852 358.557 510.654 398.019C472.567 449.496 424.463 481.8 325.739 522.202C325.739 522.202 214.004 549.061 194.825 542.08L147.84 524.979Z" fill="#6CECDD"/>
<path d="M147.84 524.979C128.66 517.998 65.8318 432.379 63.8526 426.883C48.6486 396.558 40.7964 381.566 36.2055 372.801C32.9792 366.641 31.3634 363.557 29.9386 360.386C29.9197 360.344 29.9009 360.302 29.882 360.26C28.4763 357.118 27.2391 353.852 24.793 347.393C23.7002 344.508 22.3662 340.986 20.6681 336.553C-6.71564 265.073 -6.8785 203.212 20.1222 129.241C33.3028 93.1319 40.3362 79.9317 56.1716 61.583C83.0379 30.4527 113.016 10.9656 144.827 3.95209C167.357 -1.01536 178.263 -2.89671 208.897 8.01389C240.888 19.4079 245.957 26.5149 260.002 46.2047L260.074 46.3059C270.469 60.8778 278.778 80.3421 282.438 98.5512C288.201 113.419 296.359 115.856 296.359 115.856C296.359 115.856 305.756 119.276 320.026 112.232C402.864 46.9413 514.471 99.7707 518.436 220.197C519.824 262.346 492.867 341.456 463.67 380.918C425.583 432.395 377.479 464.7 278.755 505.101C278.755 505.101 167.02 531.96 147.84 524.979Z" fill="#9BF2E8"/>
<path d="M63.8526 426.883C65.8318 432.379 128.66 517.998 147.84 524.979C167.02 531.96 278.755 505.101 278.755 505.101C377.479 464.7 425.583 432.395 463.67 380.918C492.867 341.456 519.824 262.346 518.436 220.197C514.471 99.7707 402.864 46.9413 320.026 112.232C305.756 119.276 296.359 115.856 296.359 115.856C296.359 115.856 288.201 113.419 282.438 98.5512C278.778 80.3421 270.469 60.8778 260.074 46.3059L260.002 46.2047C245.957 26.5149 240.888 19.4079 208.897 8.01389C178.263 -2.89671 167.357 -1.01536 144.827 3.95209C113.016 10.9656 83.0379 30.4527 56.1716 61.583C40.3362 79.9317 33.3028 93.1319 20.1222 129.241C-6.8785 203.212 -6.71564 265.073 20.6681 336.553C22.3662 340.986 23.7002 344.508 24.793 347.393C27.2391 353.852 28.4763 357.118 29.882 360.26C29.9009 360.302 29.9197 360.344 29.9386 360.386C31.3634 363.557 32.9792 366.641 36.2055 372.801C40.7964 381.566 48.6486 396.558 63.8526 426.883Z" fill="#9BF2E8"/>
<g opacity="0.99">
<path d="M252.15 223.265C251.986 223.716 251.822 224.167 251.658 224.618L251.247 225.746C250.406 228.759 249.195 231.384 247.452 234.069C244.272 239.297 239.739 244.032 233.956 247.291C228.398 250.631 221.98 252.126 216.054 252.268C210.353 252.492 205.064 251.588 200.389 250.398C196.698 249.31 193.315 248.078 189.933 246.847C183.269 246.21 171.358 237.533 173.246 232.346C183.999 202.802 197.872 164.688 208.625 135.144C210.266 130.633 221.071 135.332 226.462 140.87C229.948 141.117 233.577 141.672 236.898 142.37C241.43 143.253 246.104 144.443 251.045 147.008C253.444 148.136 255.904 149.798 258.282 151.685C259.471 152.629 260.578 153.798 261.685 154.967C262.709 156.361 263.816 157.531 264.534 159.069C266.132 161.694 267.484 164.995 267.996 168.502C268.406 170.183 268.508 172.008 268.528 174.059C268.404 175.801 268.198 177.77 267.542 179.574C266.864 182.137 265.818 184.31 264.32 186.319C263.131 188.185 261.49 189.886 259.931 191.362C259.152 192.1 258.147 192.756 257.449 193.268C256.752 193.781 255.747 194.436 255.05 194.949C253.43 195.892 251.892 196.609 250.128 197.244C249.513 197.531 248.898 197.818 248.282 198.104C248.426 198.412 248.651 198.494 248.795 198.802C249.225 199.725 249.512 200.34 249.799 200.955C250.516 202.493 251.008 203.949 251.5 205.405C252.626 208.625 252.994 211.823 252.973 215.391C253.075 217.216 252.951 218.959 252.602 220.62C252.499 221.604 252.479 222.363 252.15 223.265ZM219.105 196.168C219.023 196.394 219.023 196.394 219.023 196.394C218.797 196.312 218.797 196.312 218.797 196.312C218.797 196.312 218.797 196.312 219.105 196.168ZM226.998 201.851C226.547 201.686 226.013 201.748 225.48 201.809C228.248 203.327 230.482 204.907 231.938 207.224C230.851 205.296 229.007 203.348 226.998 201.851ZM228.597 201.666C229.786 202.61 231.283 203.41 232.082 204.723C231.2 203.636 230.319 202.549 229.13 201.605C229.13 201.605 228.823 201.749 228.597 201.666ZM204.423 200.019L204.197 199.937C202.658 203.463 201.119 206.99 199.806 210.598C197.754 216.236 196.378 222.121 194.408 227.533C196.378 222.121 198.656 216.565 200.708 210.926C202.021 207.318 203.109 203.627 204.423 200.019ZM202.963 211.747C201.732 215.13 201.177 218.759 200.028 221.917C201.177 218.759 202.634 215.458 203.865 212.076C205.097 208.693 206.102 205.228 207.252 202.07C206.102 205.228 204.195 208.364 202.963 211.747ZM202.512 211.583C203.6 207.893 204.77 203.976 206.083 200.368C204.544 203.894 202.698 207.564 201.385 211.173C199.825 215.458 199.024 219.763 197.464 224.048C199.024 219.763 200.727 215.786 202.512 211.583ZM224.188 201.85C223.655 201.911 222.897 201.89 222.138 201.87C222.815 202.116 223.184 202.506 223.635 202.67C225.5 203.86 227.14 204.967 228.473 206.218C229.293 206.772 229.805 207.47 230.317 208.167C230.83 208.864 231.26 209.787 231.465 210.628C231.26 209.787 230.83 208.864 230.4 207.941C229.887 207.244 229.375 206.547 228.862 205.85C227.612 204.373 226.054 203.04 224.188 201.85ZM246.971 196.095C248.427 195.603 249.657 195.029 251.113 194.538C249.657 195.029 248.427 195.603 247.053 195.869C246.971 196.095 246.971 196.095 246.971 196.095ZM246.171 194.782C248.243 194.004 250.396 192.999 252.549 191.995C250.396 192.999 248.017 193.921 245.802 194.392C246.028 194.475 245.946 194.7 246.171 194.782ZM252.611 189.719C250.991 190.662 249.228 191.297 247.69 192.014C246.541 192.363 245.7 192.567 244.552 192.916C244.778 192.998 244.921 193.305 245.147 193.388C245.987 193.183 246.91 192.752 247.833 192.322C249.371 191.605 251.217 190.744 252.837 189.801C254.457 188.859 256.016 187.383 257.575 185.907C256.016 187.383 254.539 188.633 252.611 189.719ZM244.579 172.493C244.435 172.186 244.148 171.57 243.861 170.955C243.206 169.95 241.648 168.617 238.941 167.632C237.588 167.139 236.235 166.647 234.574 166.298C232.913 165.949 231.027 165.518 229.366 165.169C227.398 164.963 225.204 164.675 223.154 164.695C221.594 168.98 219.952 173.491 218.393 177.776C222.863 178.126 227.497 178.024 231.844 177.308C232.91 177.185 233.751 176.98 234.817 176.858L236.191 176.592C236.724 176.53 237.032 176.387 237.565 176.325C239.021 175.834 240.702 175.424 241.707 174.768C242.938 174.195 243.861 173.764 244.25 173.395C244.64 173.026 244.722 172.801 244.722 172.801C244.722 172.801 244.722 172.801 244.579 172.493ZM245.687 168.044C244.355 166.793 242.715 165.685 240.767 164.721C238.819 163.757 236.339 162.854 233.776 162.176C230.598 161.786 227.42 161.395 224.385 161.312C224.303 161.538 224.303 161.538 224.303 161.538C227.481 161.928 230.577 162.544 233.365 163.304L233.673 163.16C236.236 163.838 238.573 164.433 240.603 165.172C242.715 165.685 244.355 166.793 245.687 168.044ZM239.681 162.793C241.567 163.224 243.064 164.024 244.56 164.824C241.875 163.081 238.041 161.685 234.125 160.515C230.947 160.125 227.994 159.816 224.96 159.734C227.83 160.268 230.926 160.884 233.797 161.418L234.022 161.5C235.908 161.931 237.795 162.362 239.681 162.793ZM234.392 159.08C231.521 158.546 228.569 158.238 225.534 158.155C228.487 158.463 231.275 159.223 234.063 159.982L234.289 160.064C237.385 160.68 240.645 160.845 243.413 162.364C240.871 160.928 237.713 159.778 234.392 159.08ZM206.18 152.387L206.262 152.162C208.006 146.667 209.833 140.947 211.885 135.309C209.833 140.947 207.33 146.421 205.359 151.834L205.277 152.059C203.307 157.472 201.706 163.274 199.654 168.912C201.706 163.274 203.984 157.718 206.18 152.387ZM207.758 152.962L207.84 152.736C209.092 148.595 210.652 144.31 212.212 140.025C210.652 144.31 208.416 148.349 206.938 152.408L206.856 152.634C205.379 156.693 204.496 161.224 203.018 165.284C204.496 161.224 206.055 156.939 207.758 152.962ZM209.337 153.537L209.419 153.311C210.343 150.072 211.348 146.607 212.58 143.224C211.348 146.607 209.666 149.825 208.517 152.983L208.435 153.208C207.286 156.366 206.505 159.913 205.274 163.296C206.505 159.913 207.962 156.612 209.337 153.537ZM200.991 225.587C203.923 226.654 206.937 227.496 209.807 228.03C212.985 228.42 215.712 228.647 218.009 227.95C220.449 227.561 222.295 226.701 224.079 225.307C225.863 223.913 227.217 221.597 228.346 219.198C228.51 218.747 228.592 218.521 228.756 218.07C228.756 218.07 228.838 217.845 228.92 217.619L229.002 217.394C229.167 216.943 229.023 216.635 229.187 216.184C229.208 215.425 229.311 214.441 228.963 213.293C228.758 212.452 228.41 211.304 227.754 210.299C227.61 209.991 227.467 209.683 227.467 209.683C227.323 209.376 227.098 209.294 226.954 208.986C226.811 208.679 226.442 208.289 226.073 207.899C224.372 206.258 222.137 204.679 219.431 203.694C217.483 202.729 215.228 201.909 212.583 201.457C211.681 201.128 210.922 201.108 209.938 201.005C206.901 209.349 203.946 217.468 200.991 225.587ZM226.678 244.131C219.931 246.528 212.857 247.018 206.357 245.929C209.679 246.627 212.939 246.792 216.506 246.814C219.849 246.753 223.663 246.098 226.882 244.972L227.19 244.828C230.492 243.476 233.732 241.59 236.46 239.008C239.106 236.65 241.239 233.596 243.065 230.685C241.239 233.596 238.962 236.343 236.091 238.618C233.219 240.893 229.979 242.779 226.76 243.905L226.678 244.131ZM227.169 245.587C222.104 247.574 216.301 248.782 211.154 248.186C216.301 248.782 222.083 248.333 227.6 246.51C230.286 245.444 232.911 243.846 235.311 242.165C237.567 240.177 239.597 238.106 241.402 235.954C239.597 238.106 237.341 240.095 234.942 241.775C232.624 243.23 230.081 244.604 227.395 245.669L227.169 245.587ZM228.317 248.048C232.849 246.122 236.725 243.191 240.232 239.87C238.591 241.571 236.582 242.883 234.346 244.113C232.336 245.424 230.183 246.428 227.886 247.125C223.436 248.826 218.925 249.993 214.517 250.176C218.925 249.993 223.641 249.666 228.317 248.048Z" fill="white"/>
<path d="M337.846 203.886C326.57 199.781 312.587 194.692 299.957 190.095C298.152 195.057 296.264 200.244 294.376 205.431C300.465 207.647 306.78 209.946 311.967 211.834C314.222 212.655 307.449 235.474 305.419 234.735C299.555 232.601 292.79 230.139 286.249 227.758C283.13 236.328 280.011 244.898 277.056 253.017C289.009 257.368 302.089 262.129 312.689 265.987C316.072 267.218 310.201 290.366 306.818 289.135C294.865 284.784 279.755 279.284 266.449 274.441C263.947 274.297 260.79 273.148 257.879 271.322C257.653 271.24 257.428 271.158 257.202 271.076C256.977 270.994 256.977 270.994 256.833 270.686C251.831 267.589 248.08 263.158 249.229 260.001C259.982 230.457 273.854 192.343 284.608 162.799C285.593 160.093 289.447 160.73 293.65 162.515C293.876 162.597 294.101 162.679 294.101 162.679C309.211 168.179 328.607 175.238 343.717 180.738C347.1 181.969 341.229 205.117 337.846 203.886ZM332.107 194.39C330.529 193.816 328.642 193.385 327.064 192.81C328.642 193.385 330.2 194.718 331.779 195.292C332.005 195.375 332.005 195.375 332.005 195.375C333.583 195.949 335.634 195.929 337.212 196.504C335.634 195.929 333.912 195.047 332.333 194.472C332.333 194.472 332.333 194.472 332.107 194.39ZM331.615 195.743C329.503 195.23 327.166 194.635 325.136 193.896C327.166 194.635 329.257 195.907 331.204 196.871L331.43 196.953C333.542 197.466 335.961 197.836 337.991 198.575C335.961 197.836 333.788 196.79 331.84 195.826L331.615 195.743ZM331.04 197.322C328.252 196.563 325.238 195.721 322.532 194.736C325.238 195.721 327.924 197.465 330.63 198.45L330.855 198.532C333.562 199.517 336.74 199.907 339.446 200.892C336.74 199.907 333.89 198.615 331.266 197.404L331.04 197.322ZM308.513 174.309C311.444 175.376 314.54 175.993 317.247 176.978C314.54 175.993 311.691 174.7 308.841 173.407C307.713 172.997 306.278 172.73 304.925 172.237C305.068 172.545 305.212 172.853 305.212 172.853C306.257 173.489 307.385 173.899 308.513 174.309ZM309.99 170.25C308.329 169.901 306.443 169.47 304.864 168.895C306.443 169.47 308.083 170.577 309.662 171.152C311.466 171.809 313.209 171.932 315.013 172.589C313.209 171.932 311.712 171.132 309.99 170.25ZM309.415 171.829C307.529 171.397 305.499 170.659 303.695 170.002C303.613 170.228 303.613 170.228 303.613 170.228C305.643 170.966 307.283 172.074 309.087 172.731C311.342 173.552 313.536 173.839 315.792 174.66C313.536 173.839 311.589 172.875 309.415 171.829ZM281.062 225.87C281.062 225.87 281.062 225.87 280.837 225.788C279.277 230.073 277.348 233.969 275.789 238.254C274.229 242.539 273.203 246.762 271.643 251.047C271.869 251.129 271.869 251.129 271.869 251.129C273.428 246.844 275.131 242.867 276.691 238.582C278.251 234.297 279.503 230.155 281.062 225.87ZM282.162 180.043L282.245 179.817C283.989 174.323 285.816 168.602 287.868 162.964C285.816 168.602 283.312 174.076 281.342 179.489L281.26 179.715C279.29 185.127 277.689 190.93 275.637 196.568C277.689 190.93 279.967 185.373 282.162 180.043ZM283.741 180.617L283.823 180.392C285.075 176.25 286.635 171.965 288.194 167.68C286.635 171.965 284.399 176.004 282.921 180.064L282.839 180.289C281.362 184.349 280.478 188.88 279.001 192.939C280.478 188.88 282.038 184.595 283.741 180.617ZM285.32 181.192L285.402 180.967C286.326 177.727 287.331 174.262 288.563 170.879C287.331 174.262 285.649 177.481 284.5 180.638L284.418 180.864C283.269 184.021 282.488 187.568 281.257 190.951C282.488 187.568 283.945 184.267 285.32 181.192ZM301.079 279.639C299.419 279.29 297.614 278.633 296.036 278.059C297.614 278.633 299.172 279.967 300.751 280.541C300.977 280.623 300.977 280.623 300.977 280.623C302.555 281.198 304.606 281.178 306.184 281.753C304.606 281.178 302.801 280.521 301.305 279.721C301.305 279.721 301.305 279.721 301.079 279.639ZM300.505 281.218C298.475 280.479 296.138 279.884 294.108 279.145C296.138 279.884 298.147 281.381 300.176 282.12L300.402 282.202C302.432 282.941 304.933 283.085 306.963 283.824C304.933 283.085 302.76 282.039 300.73 281.3L300.505 281.218ZM299.93 282.797C297.142 282.037 294.21 280.97 291.504 279.985C294.21 280.97 296.895 282.714 299.602 283.699L299.827 283.781C302.534 284.766 305.712 285.156 308.418 286.141C305.712 285.156 302.78 284.089 300.156 282.879L299.93 282.797ZM277.402 259.784C280.416 260.625 283.512 261.241 286.219 262.226C283.512 261.241 280.663 259.949 277.813 258.656C276.829 258.553 276.152 258.307 275.25 257.979C275.168 258.204 275.086 258.43 275.004 258.655C275.906 258.984 276.5 259.455 277.402 259.784ZM278.059 257.98C280.314 258.8 282.508 259.088 284.763 259.909C282.508 259.088 280.561 258.124 278.387 257.078C277.485 256.749 276.727 256.728 275.825 256.4C275.742 256.626 275.66 256.851 275.66 256.851C276.48 257.405 277.157 257.651 278.059 257.98ZM278.962 255.499C277.978 255.396 277.301 255.15 276.317 255.047L276.235 255.272C277.055 255.826 277.649 256.298 278.552 256.626C280.356 257.283 282.181 257.181 283.985 257.838C282.181 257.181 280.684 256.381 278.962 255.499ZM278.946 239.403C277.715 242.786 277.16 246.415 276.011 249.572C277.16 246.415 278.617 243.114 279.848 239.731C281.08 236.348 282.085 232.883 283.235 229.726C282.085 232.883 280.178 236.02 278.946 239.403ZM278.495 239.239C279.829 234.871 281.081 230.73 282.641 226.445C281.081 230.73 278.927 234.543 277.368 238.828C275.808 243.113 275.007 247.419 273.447 251.704C275.007 247.419 276.71 243.441 278.495 239.239ZM302.612 226.307C301.403 226.122 300.193 225.937 299.065 225.527C300.193 225.937 301.156 226.799 302.284 227.209C303.412 227.62 304.478 227.497 305.606 227.908C304.478 227.497 303.658 226.943 302.612 226.307ZM302.038 227.886C300.377 227.537 299.024 227.044 297.671 226.552C299.024 227.044 300.131 228.213 301.709 228.788C303.063 229.281 304.662 229.097 306.015 229.589C304.662 229.097 303.309 228.604 302.038 227.886ZM301.463 229.465C299.351 228.951 297.547 228.295 295.743 227.638C297.547 228.295 299.105 229.628 301.135 230.367C302.939 231.023 304.99 231.004 306.794 231.66C304.99 231.004 303.185 230.347 301.463 229.465ZM292.406 210.844C293.164 210.865 293.615 211.029 294.292 211.275C293.615 211.029 293.164 210.865 292.488 210.618C292.488 210.618 292.488 210.618 292.406 210.844Z" fill="white"/>
<path d="M142.487 264.313C144.867 257.773 165.86 270.266 163.398 277.032C152.644 306.576 138.772 344.69 128.019 374.234C125.638 380.774 104.645 368.281 107.108 361.515C111.048 350.69 115.481 338.511 120.077 325.882L116.797 326.475L116.407 326.844L115.956 326.68L114.889 326.803L113.065 326.905C111.691 327.171 110.255 326.904 108.964 326.945L107.139 327.047C106.606 327.108 106.462 326.8 106.237 326.718L105.499 325.939C104.535 325.077 103.49 324.441 102.608 323.354L99.7179 320.77C98.8365 319.683 97.9551 318.596 97.2993 317.591C92.1279 331.799 87.1208 345.556 82.6882 357.735C80.3077 364.275 59.3147 351.782 61.7772 345.016C71.6274 317.953 84.1043 283.673 94.447 255.256C94.6112 254.805 94.7753 254.354 94.9395 253.903C95.432 252.55 95.8425 251.422 96.2529 250.295C96.1915 249.762 96.5812 249.393 96.6633 249.167C96.8275 248.716 96.9916 248.265 97.1558 247.814C99.5363 241.274 120.529 253.767 118.067 260.533C117.738 261.435 117.492 262.112 117.164 263.014C116.753 264.141 116.425 265.044 116.24 266.253C115.912 267.155 115.501 268.283 115.399 269.267C114.988 270.395 114.803 271.605 114.475 272.507C114.29 273.716 114.187 274.701 114.002 275.91C113.201 280.216 112.626 284.604 112.666 288.705C112.623 293.031 113.278 296.845 114.405 300.065C114.918 300.762 115.348 301.685 115.553 302.526C115.86 302.382 115.86 302.382 115.86 302.382L116.394 302.321C116.476 302.095 116.701 302.177 116.783 301.952C117.624 301.747 118.321 301.235 119.019 300.722C119.326 300.579 119.859 300.517 120.249 300.148L121.336 299.267C124.207 296.992 127.181 293.733 129.705 290.309C131.12 288.526 132.084 286.578 133.274 284.712C133.91 283.667 134.546 282.621 135.1 281.801C135.346 281.125 135.51 280.674 135.9 280.305C136.146 279.628 136.31 279.177 136.474 278.726C137.521 276.553 138.485 274.605 139.449 272.658C139.614 272.206 139.778 271.755 140.024 271.079C140.845 268.824 141.666 266.568 142.487 264.313ZM92.6984 274.797C92.6163 275.022 92.5342 275.248 92.5342 275.248C93.2522 273.977 93.8268 272.398 94.3193 271.045C94.5863 269.61 94.8533 268.174 95.1203 266.739C94.1353 269.445 93.3758 272.234 92.6984 274.797ZM94.3591 275.146C94.9337 273.567 95.4262 272.214 96.1443 270.943L96.3706 268.216L96.8631 266.863C95.8781 269.569 95.4262 272.214 94.4412 274.92L94.3591 275.146ZM96.597 265.489C97.1923 263.151 98.0952 260.671 98.9982 258.19L99.5935 255.853C99.101 257.206 98.834 258.641 98.3415 259.994L96.946 263.828L96.3507 266.165C96.4328 265.94 96.5149 265.714 96.5149 265.714L96.597 265.489ZM98.8356 253.023C98.7536 253.248 98.3639 253.617 98.2818 253.843C97.0298 257.984 95.5523 262.044 94.5258 266.267C94.6079 266.042 94.772 265.591 94.9362 265.14L95.0183 264.914C95.5315 262.802 96.3524 260.547 97.0911 258.517C97.5223 256.631 98.179 254.827 98.8356 253.023ZM89.3138 279.184C88.9855 280.086 88.7392 280.762 88.4109 281.664C88.7392 280.762 88.9855 280.086 89.2317 279.409L89.3138 279.184ZM89.4647 323.679C90.9423 319.619 92.1122 315.703 93.5897 311.644L93.4463 311.336C91.7432 315.313 90.0401 319.291 88.5626 323.35C86.5105 328.988 85.135 334.873 83.1649 340.286C85.135 334.873 87.1871 329.235 89.4647 323.679ZM91.0434 324.253C92.3568 320.645 93.3625 317.18 94.6759 313.571C93.137 317.098 91.4547 320.317 90.1413 323.925C88.5817 328.21 87.7807 332.516 86.2211 336.801C87.7807 332.516 89.2583 328.456 91.0434 324.253ZM92.6221 324.828C93.5458 321.588 94.6129 318.657 95.762 315.499C95.5365 315.417 95.5365 315.417 95.5365 315.417C94.3873 318.574 92.8692 321.342 91.72 324.5C90.4887 327.882 89.7085 331.429 88.5593 334.587C89.7085 331.429 91.1653 328.129 92.6221 324.828ZM136.779 289.819L137.251 289.225C137.333 288.999 137.415 288.774 137.497 288.548C137.025 289.142 136.779 289.819 136.389 290.188C136.307 290.414 136.225 290.639 136.143 290.865C136.225 290.639 136.615 290.27 136.779 289.819ZM125.232 298.387C122.812 300.826 120.248 302.958 117.787 304.105C120.248 302.958 123.324 301.523 125.745 299.084C126.442 298.571 126.996 297.751 127.693 297.239C127.857 296.788 128.247 296.419 128.329 296.193L129.273 295.005C129.826 294.184 130.298 293.59 130.852 292.77C131.18 291.868 131.652 291.273 132.206 290.453L130.627 292.688C130.073 293.508 129.375 294.02 128.904 294.615L127.96 295.804C127.652 295.947 127.263 296.316 127.099 296.767C126.401 297.28 125.704 297.792 125.232 298.387ZM117.438 305.766C117.049 306.135 116.823 306.053 116.515 306.196C116.823 306.053 117.049 306.135 117.664 305.848C117.664 305.848 117.971 305.705 118.197 305.787L118.894 305.274L120.35 304.783L121.581 304.209L122.278 303.696C122.586 303.553 122.893 303.41 122.975 303.184L124.288 302.385C124.903 302.098 125.293 301.729 125.682 301.36L126.851 300.253C128.718 298.634 130.133 296.85 131.405 294.759C131.569 294.308 131.651 294.083 131.816 293.631C130.236 295.866 128.288 297.711 126.339 299.556L125.17 300.663C124.78 301.032 124.309 301.626 124.001 301.769L122.606 302.794C122.524 303.02 122.217 303.163 122.135 303.389L121.519 303.676L120.125 304.7L118.894 305.274L118.279 305.561C117.971 305.705 117.664 305.848 117.438 305.766ZM128.184 301.504C128.574 301.135 129.045 300.541 129.435 300.172C129.763 299.27 130.01 298.593 130.256 297.916C129.394 298.88 128.533 299.843 127.446 300.725L127.364 300.95C125.333 303.021 122.852 304.927 120.534 306.382C119.919 306.669 119.304 306.956 118.689 307.243L117.766 307.673L116.925 307.878L115.777 308.226C115.551 308.144 115.018 308.205 114.71 308.349L115.777 308.226L117.151 307.96L118.832 307.55C119.447 307.263 120.062 306.976 120.678 306.69C123.221 305.317 125.846 303.718 128.184 301.504ZM134.795 340.178C136.622 334.457 138.674 328.819 140.644 323.407C138.674 328.819 135.946 334.211 133.893 339.849C131.841 345.488 130.466 351.372 128.496 356.785C130.466 351.372 132.518 345.734 134.795 340.178ZM136.374 340.752C137.934 336.467 139.186 332.326 140.745 328.041C139.186 332.326 137.032 336.139 135.472 340.424C133.912 344.709 133.112 349.015 131.552 353.3C133.112 349.015 134.815 345.037 136.374 340.752ZM137.953 341.327C138.959 337.862 139.964 334.397 141.114 331.24C139.964 334.397 138.282 337.616 137.051 340.999C135.819 344.381 135.039 347.929 133.89 351.086C135.039 347.929 136.496 344.628 137.953 341.327Z" fill="white"/>
<path d="M201.326 307.949C199.747 307.374 197.717 306.635 195.913 305.979C188.608 326.051 180.481 348.378 173.093 368.675C174.447 369.168 175.8 369.66 177.153 370.153C179.408 370.973 172.635 393.793 170.38 392.972C167.673 391.987 164.742 390.92 161.584 389.771C159.616 389.565 157.361 388.744 155.044 387.39C149.18 385.256 143.317 383.122 138.355 381.316C136.1 380.495 142.873 357.676 144.903 358.414C146.707 359.071 148.511 359.728 150.541 360.467C157.846 340.395 165.973 318.068 173.36 297.77C172.007 297.278 170.654 296.785 169.301 296.293C167.046 295.472 173.901 272.427 175.931 273.165C178.637 274.151 181.569 275.218 184.501 276.285C186.695 276.572 189.401 277.557 191.943 278.994C197.581 281.046 203.219 283.098 208.181 284.904C210.436 285.724 203.581 308.77 201.326 307.949ZM197.042 303.58C198.846 304.237 201.122 304.299 202.926 304.956C201.122 304.299 199.174 303.335 197.452 302.452C197.452 302.452 197.226 302.37 197.144 302.596C197.062 302.821 196.98 303.047 196.816 303.498L197.042 303.58ZM202.147 302.884C200.794 302.392 199.298 301.592 198.027 300.874L197.801 300.792C197.637 301.243 197.555 301.468 197.473 301.694L197.698 301.776C199.051 302.268 200.794 302.392 202.147 302.884ZM198.601 299.295C198.519 299.521 198.294 299.438 198.294 299.438C198.211 299.664 198.129 299.89 197.965 300.341L198.191 300.423C199.318 300.833 200.692 300.567 201.82 300.977C200.692 300.567 199.647 299.931 198.601 299.295ZM178.322 299.576C178.097 299.494 177.871 299.412 177.645 299.33C176.804 302.344 175.962 305.358 174.895 308.29C175.962 305.358 177.255 302.508 178.322 299.576ZM176.743 299.002C176.518 298.919 176.292 298.837 176.067 298.755C174.507 303.04 173.399 307.489 171.757 312C173.399 307.489 174.958 303.204 176.743 299.002ZM166.096 388.603C167.9 389.26 170.176 389.322 171.98 389.979C170.176 389.322 168.146 388.584 166.424 387.701L166.198 387.619C166.116 387.845 166.116 387.845 166.034 388.07C165.952 388.296 165.727 388.214 165.645 388.439C165.87 388.521 166.096 388.603 166.096 388.603ZM171.201 387.908C169.848 387.415 168.352 386.615 167.081 385.897C166.998 386.123 166.773 386.041 166.773 386.041C166.691 386.266 166.609 386.492 166.445 386.943L166.67 387.025C168.023 387.517 169.848 387.415 171.201 387.908ZM167.573 384.544L167.348 384.462C167.265 384.687 167.101 385.138 167.019 385.364L167.245 385.446C168.372 385.856 169.746 385.59 170.874 386.001C169.746 385.59 168.619 385.18 167.573 384.544ZM167.681 366.705C167.681 366.705 167.681 366.705 167.906 366.787C169.466 362.502 171.026 358.217 172.811 354.014C174.637 348.294 176.464 342.574 178.434 337.161C176.464 342.574 173.961 348.048 171.909 353.686C170.349 357.971 169.015 362.338 167.681 366.705ZM173.487 354.26C171.928 358.545 171.127 362.851 169.567 367.136C171.127 362.851 172.604 358.792 174.389 354.589C175.724 350.222 177.201 346.162 178.761 341.877C177.201 346.162 175.047 349.975 173.487 354.26ZM175.066 354.835C173.835 358.218 173.055 361.765 171.905 364.922C173.055 361.765 174.511 358.464 175.968 355.163C176.974 351.698 177.98 348.233 179.129 345.076C177.98 348.233 176.297 351.452 175.066 354.835ZM177.377 306.383C178.116 304.354 178.936 302.098 179.901 300.151C179.675 300.069 179.45 299.987 179.224 299.904C178.711 302.016 178.116 304.354 177.377 306.383Z" fill="white"/>
<path d="M263.839 308.482C266.22 301.941 286.987 314.353 284.524 321.119C273.771 350.663 259.899 388.777 249.146 418.32C247.997 421.478 243.014 420.431 238.156 417.641C237.93 417.558 237.705 417.476 237.397 417.62C236.72 417.374 236.126 416.902 235.449 416.656C230.16 412.943 226.04 408.123 222.987 403.18C219.707 398.156 217.269 392.926 215.363 387.636C214.319 384.191 213.417 381.053 212.598 377.69C209.561 386.035 206.524 394.379 203.815 401.821C201.435 408.362 180.667 395.95 183.13 389.184C193.883 359.641 207.755 321.527 218.508 291.983C218.919 290.855 219.616 290.343 220.908 290.302C223.122 289.831 226.136 290.673 229.048 292.498C234.583 295.535 240.138 300.621 239.358 304.169C239.276 304.394 239.337 304.927 239.255 305.153C237.86 308.987 236.833 313.21 236.032 317.516C235.519 319.628 235.231 321.822 234.718 323.934C234.43 326.128 234.143 328.321 233.855 330.515C233.485 332.935 233.423 335.211 233.135 337.405C233.073 339.681 233.011 341.957 232.949 344.233C232.968 349.092 233.069 353.726 233.478 358.217C234.337 365.681 235.811 372.858 238.064 379.297C246.683 355.617 256.123 329.681 263.839 308.482ZM221.522 292.824L221.604 292.599C219.881 297.335 218.157 302.071 216.884 306.971C218.3 302.378 219.798 297.56 221.522 292.824ZM218.01 313C218.277 311.564 218.626 309.904 218.975 308.243C218.729 308.92 218.565 309.371 218.401 309.822L218.318 310.047C217.58 312.077 217.066 314.189 216.553 316.301C216.471 316.526 216.307 316.977 216.143 317.428C216.943 315.932 217.435 314.578 218.01 313ZM216.185 313.102C216.534 311.441 216.883 309.78 217.314 307.894C217.15 308.345 216.986 308.796 216.822 309.247L216.74 309.473C216.001 311.502 215.488 313.614 214.667 315.869C214.646 316.628 214.482 317.079 214.461 317.838C215.036 316.259 215.61 314.68 216.411 313.184L216.185 313.102ZM210.851 322.143C210.441 323.27 210.03 324.398 209.538 325.751C209.948 324.623 210.359 323.496 210.687 322.594C210.769 322.368 210.851 322.143 210.851 322.143ZM210.592 367.765C210.53 367.232 210.551 366.473 210.346 365.633C210.1 366.309 209.936 366.76 209.69 367.437C207.637 373.075 206.262 378.96 204.292 384.372C206.262 378.96 208.54 373.403 210.592 367.765ZM211.001 369.447C209.688 373.055 208.744 377.053 207.348 380.887C208.579 377.504 209.729 374.347 211.185 371.046C211.124 370.513 211.063 369.98 211.001 369.447ZM209.912 378.756C210.486 377.177 211.061 375.598 211.718 373.794C211.8 373.568 211.656 373.261 211.513 372.953C211.082 374.84 210.568 376.951 209.912 378.756ZM258.178 385.085C256.946 388.468 256.392 392.097 255.243 395.255C256.392 392.097 257.849 388.796 259.08 385.414C260.311 382.031 261.317 378.566 262.466 375.408C261.317 378.566 259.409 381.702 258.178 385.085ZM256.599 384.511C255.265 388.878 254.238 393.101 252.679 397.386C254.238 393.101 255.942 389.124 257.727 384.921C259.061 380.554 260.313 376.412 261.872 372.127C260.313 376.412 258.159 380.226 256.599 384.511ZM255.02 383.936C253.379 388.447 252.188 393.121 250.69 397.939C252.414 393.203 254.281 388.775 256.148 384.346C257.975 378.626 259.801 372.906 261.771 367.493C259.801 372.906 257.072 378.298 255.02 383.936ZM263.731 326.321L263.649 326.546C262.5 329.704 261.72 333.251 260.489 336.634C261.72 333.251 263.177 329.95 264.551 326.875L264.633 326.649C265.557 323.41 266.563 319.945 267.794 316.562C266.563 319.945 264.88 323.163 263.731 326.321ZM262.153 325.746L262.071 325.972C260.593 330.031 259.71 334.562 258.232 338.622C259.71 334.562 261.27 330.277 262.973 326.3L263.055 326.074C264.307 321.933 265.866 317.648 267.426 313.363C265.866 317.648 263.63 321.687 262.153 325.746ZM260.574 325.172L260.492 325.397C258.522 330.81 256.921 336.612 254.869 342.25C256.921 336.612 259.198 331.056 261.394 325.725L261.476 325.5C263.221 320.005 265.047 314.285 267.099 308.647C265.047 314.285 262.544 319.759 260.574 325.172ZM233.289 370.663C232.88 368.982 232.47 367.3 232.143 365.393C232.47 367.3 232.88 368.982 232.982 370.807C233.309 372.714 233.411 374.539 234.046 376.302C234.456 377.984 235.173 379.522 235.808 381.285C236.177 381.675 236.464 382.29 236.751 382.905C236.833 382.68 236.833 382.68 236.915 382.454C236.137 380.383 235.44 378.086 234.969 375.872C234.252 374.334 233.925 372.427 233.289 370.663ZM233.288 376.281C232.038 371.996 230.871 367.484 230.319 362.686C230.871 367.484 231.197 372.2 232.365 376.712C233.348 379.624 234.639 382.392 235.93 385.161C236.012 384.935 236.012 384.935 236.012 384.935C234.947 382.249 233.963 379.337 233.513 376.363L233.288 376.281ZM230.683 377.121C231.585 380.259 232.876 383.027 234.167 385.796C234.454 386.411 234.74 387.026 235.027 387.641C235.109 387.416 235.191 387.19 235.191 387.19C233.614 383.807 232.569 380.362 231.75 376.999L231.832 376.773C229.865 370.949 228.596 364.613 228.085 358.297C228.596 364.613 229.024 371.154 230.683 377.121Z" fill="white"/>
<path d="M350.813 361.847C339.537 357.743 325.554 352.653 312.924 348.057C311.119 353.018 309.231 358.205 307.343 363.392C313.432 365.609 319.747 367.907 324.934 369.795C327.189 370.616 320.416 393.435 318.386 392.697C312.522 390.562 305.757 388.1 299.216 385.719C296.097 394.289 292.978 402.859 290.023 410.978C301.976 415.329 315.056 420.09 325.656 423.948C329.039 425.179 323.168 448.327 319.785 447.096C307.832 442.745 292.722 437.246 279.416 432.403C276.914 432.258 273.757 431.109 270.846 429.283C270.62 429.201 270.395 429.119 270.169 429.037C269.944 428.955 269.944 428.955 269.8 428.647C264.798 425.55 261.047 421.12 262.196 417.962C272.949 388.418 286.822 350.304 297.575 320.76C298.56 318.054 302.414 318.691 306.617 320.476C306.843 320.558 307.068 320.64 307.068 320.64C322.179 326.14 341.574 333.199 356.684 338.699C360.067 339.93 354.196 363.078 350.813 361.847ZM345.074 352.352C343.496 351.777 341.609 351.346 340.031 350.771C341.609 351.346 343.167 352.679 344.746 353.254C344.972 353.336 344.972 353.336 344.972 353.336C346.55 353.91 348.601 353.89 350.179 354.465C348.601 353.89 346.879 353.008 345.3 352.434C345.3 352.434 345.3 352.434 345.074 352.352ZM344.582 353.705C342.47 353.191 340.133 352.596 338.103 351.857C340.133 352.596 342.224 353.868 344.171 354.832L344.397 354.914C346.509 355.428 348.928 355.797 350.958 356.536C348.928 355.797 346.755 354.751 344.807 353.787L344.582 353.705ZM344.007 355.283C341.219 354.524 338.205 353.682 335.499 352.697C338.205 353.682 340.891 355.426 343.597 356.411L343.822 356.493C346.529 357.478 349.707 357.869 352.413 358.854C349.707 357.869 346.857 356.576 344.233 355.365L344.007 355.283ZM321.48 332.271C324.411 333.338 327.507 333.954 330.214 334.939C327.507 333.954 324.658 332.661 321.808 331.368C320.68 330.958 319.245 330.691 317.892 330.199C318.035 330.506 318.179 330.814 318.179 330.814C319.224 331.45 320.352 331.86 321.48 332.271ZM322.957 328.211C321.296 327.862 319.41 327.431 317.831 326.856C319.41 327.431 321.05 328.539 322.629 329.113C324.433 329.77 326.176 329.893 327.98 330.55C326.176 329.893 324.679 329.093 322.957 328.211ZM322.383 329.79C320.496 329.359 318.466 328.62 316.662 327.963C316.58 328.189 316.58 328.189 316.58 328.189C318.61 328.927 320.25 330.035 322.054 330.692C324.309 331.513 326.503 331.8 328.759 332.621C326.503 331.8 324.556 330.836 322.383 329.79ZM294.029 383.832C294.029 383.832 294.029 383.832 293.804 383.749C292.244 388.034 290.316 391.93 288.756 396.215C287.196 400.5 286.17 404.723 284.61 409.008C284.836 409.09 284.836 409.09 284.836 409.09C286.395 404.805 288.098 400.828 289.658 396.543C291.218 392.258 292.47 388.117 294.029 383.832ZM295.129 338.004L295.212 337.779C296.956 332.284 298.783 326.564 300.835 320.925C298.783 326.564 296.28 332.038 294.309 337.45L294.227 337.676C292.257 343.088 290.656 348.891 288.604 354.529C290.656 348.891 292.934 343.335 295.129 338.004ZM296.708 338.579L296.79 338.353C298.042 334.212 299.602 329.927 301.161 325.642C299.602 329.927 297.366 333.965 295.888 338.025L295.806 338.25C294.329 342.31 293.445 346.841 291.968 350.901C293.445 346.841 295.005 342.556 296.708 338.579ZM298.287 339.153L298.369 338.928C299.293 335.688 300.298 332.223 301.53 328.84C300.298 332.223 298.616 335.442 297.467 338.599L297.385 338.825C296.236 341.982 295.455 345.529 294.224 348.912C295.455 345.529 296.912 342.229 298.287 339.153ZM314.046 437.6C312.386 437.251 310.581 436.595 309.003 436.02C310.581 436.595 312.139 437.928 313.718 438.503C313.944 438.585 313.944 438.585 313.944 438.585C315.522 439.159 317.573 439.139 319.151 439.714C317.573 439.139 315.768 438.483 314.272 437.683C314.272 437.683 314.272 437.683 314.046 437.6ZM313.472 439.179C311.442 438.44 309.105 437.845 307.075 437.106C309.105 437.845 311.114 439.342 313.143 440.081L313.369 440.163C315.399 440.902 317.9 441.046 319.93 441.785C317.9 441.046 315.727 440 313.697 439.261L313.472 439.179ZM312.897 440.758C310.109 439.998 307.177 438.931 304.471 437.946C307.177 438.931 309.863 440.675 312.569 441.66L312.794 441.742C315.501 442.727 318.679 443.118 321.385 444.103C318.679 443.118 315.747 442.05 313.123 440.84L312.897 440.758ZM290.369 417.745C293.383 418.587 296.479 419.203 299.186 420.188C296.479 419.203 293.63 417.91 290.78 416.617C289.796 416.515 289.119 416.268 288.217 415.94C288.135 416.166 288.053 416.391 287.971 416.617C288.873 416.945 289.467 417.417 290.369 417.745ZM291.026 415.941C293.281 416.762 295.475 417.049 297.731 417.87C295.475 417.049 293.528 416.085 291.354 415.039C290.452 414.71 289.694 414.69 288.792 414.361C288.709 414.587 288.627 414.812 288.627 414.812C289.447 415.366 290.124 415.612 291.026 415.941ZM291.929 413.46C290.945 413.357 290.268 413.111 289.284 413.008L289.202 413.234C290.022 413.788 290.616 414.259 291.519 414.588C293.323 415.244 295.148 415.142 296.952 415.799C295.148 415.142 293.651 414.342 291.929 413.46ZM291.913 397.364C290.682 400.747 290.127 404.376 288.978 407.533C290.127 404.376 291.584 401.075 292.815 397.692C294.047 394.309 295.052 390.844 296.202 387.687C295.052 390.844 293.145 393.981 291.913 397.364ZM291.462 397.2C292.796 392.833 294.048 388.691 295.608 384.406C294.048 388.691 291.894 392.504 290.335 396.789C288.775 401.074 287.974 405.38 286.414 409.665C287.974 405.38 289.677 401.403 291.462 397.2ZM315.579 384.268C314.37 384.084 313.16 383.899 312.032 383.488C313.16 383.899 314.123 384.76 315.251 385.171C316.379 385.581 317.445 385.458 318.573 385.869C317.445 385.458 316.625 384.904 315.579 384.268ZM315.005 385.847C313.344 385.498 311.991 385.006 310.638 384.513C311.991 385.006 313.098 386.175 314.676 386.749C316.03 387.242 317.629 387.058 318.982 387.55C317.629 387.058 316.276 386.565 315.005 385.847ZM314.43 387.426C312.318 386.913 310.514 386.256 308.71 385.599C310.514 386.256 312.072 387.589 314.102 388.328C315.906 388.985 317.957 388.965 319.761 389.621C317.957 388.965 316.152 388.308 314.43 387.426ZM305.373 368.805C306.131 368.826 306.582 368.99 307.259 369.236C306.582 368.99 306.131 368.826 305.455 368.579C305.455 368.579 305.455 368.579 305.373 368.805Z" fill="white"/>
</g>
</svg>
